<?xml version="1.0" encoding="UTF-8" standalone="no"?>
<!-- Created with Inkscape (http://www.inkscape.org/) -->

<svg
   width="12.621097mm"
   height="12.964605mm"
   viewBox="0 0 12.621097 12.964605"
   version="1.1"
   id="svg1164"
   inkscape:version="1.1 (c4e8f9e, 2021-05-24)"
   sodipodi:docname="add-user.svg"
   xmlns:inkscape="http://www.inkscape.org/namespaces/inkscape"
   xmlns:sodipodi="http://sodipodi.sourceforge.net/DTD/sodipodi-0.dtd"
   xmlns="http://www.w3.org/2000/svg"
   xmlns:svg="http://www.w3.org/2000/svg">
  <sodipodi:namedview
     id="namedview1166"
     pagecolor="#ffffff"
     bordercolor="#666666"
     borderopacity="1.0"
     inkscape:pageshadow="2"
     inkscape:pageopacity="0.0"
     inkscape:pagecheckerboard="0"
     inkscape:document-units="mm"
     showgrid="false"
     inkscape:zoom="0.63250561"
     inkscape:cx="43.477875"
     inkscape:cy="317.78374"
     inkscape:window-width="1536"
     inkscape:window-height="822"
     inkscape:window-x="0"
     inkscape:window-y="25"
     inkscape:window-maximized="0"
     inkscape:current-layer="layer1" />
  <defs
     id="defs1161" />
  <g
     inkscape:label="Layer 1"
     inkscape:groupmode="layer"
     id="layer1"
     transform="translate(-102.86852,-60.865629)">
    <path
       fill="#54b7e3"
       d="m 113.40437,69.792456 c -1.11799,0 -2.03021,0.864749 -2.07822,1.935711 -8.1276,0 -8.1276,0 -8.1276,0 0.39095,-1.895798 0.39095,-1.895798 0.39095,-1.895798 0.0823,-0.399121 0.30177,-0.75832 0.631,-1.017744 0.20575,-0.166301 0.40466,-0.27273 0.61729,-0.312642 1.72154,-0.48559 1.72154,-0.48559 1.72154,-0.48559 0.0137,-0.0066 0.0206,-0.0066 0.0274,-0.01331 1.51579,1.523291 1.51579,1.523291 1.51579,1.523291 0,0 0,0 0,0 0.007,0 0.007,0.0066 0.007,0.0066 0,0 0,0 0,0 0.0137,0.01331 0.0274,0.01995 0.048,0.02661 0,0 0,0 0,0 0.0206,0.0066 0.0412,0.01331 0.0617,0.01331 0.0137,0 0.0343,-0.0066 0.0549,-0.01331 0,0 0,0 0,0 0.0206,-0.0066 0.0343,-0.01331 0.048,-0.02661 0,0 0,0 0,0 0.007,0 0.007,-0.0066 0.007,-0.0066 0,0 0,0 0,0 1.51578,-1.523291 1.51578,-1.523291 1.51578,-1.523291 0.007,0.0066 0.0137,0.0066 0.0274,0.01331 1.73526,0.48559 1.73526,0.48559 1.73526,0.48559 0.19891,0.03991 0.40466,0.146341 0.61043,0.312642 0.24005,0.192908 0.43209,0.452332 0.54184,0.745014 0.0274,0.05987 0.0892,0.09313 0.1509,0.09313 0.0206,0 0.0343,0 0.0548,-0.0066 0.0823,-0.03326 0.12346,-0.119738 0.0892,-0.19956 -0.13032,-0.339248 -0.3498,-0.638585 -0.63787,-0.871402 -0.24691,-0.192908 -0.49383,-0.319297 -0.72702,-0.365853 -1.72842,-0.492241 -1.72842,-0.492241 -1.72842,-0.492241 -0.0274,0 -0.048,-0.01331 -0.0617,-0.02661 -0.0549,-0.03326 -0.0892,-0.08647 -0.096,-0.152995 -0.0686,-0.57871 -0.0686,-0.57871 -0.0686,-0.57871 0.44582,-0.365863 0.78876,-0.884708 0.97396,-1.476735 0.33607,-0.09312 0.57613,-0.465629 0.57613,-0.911315 0,-0.405765 -0.19205,-0.745013 -0.47326,-0.878046 -0.007,-0.345903 -0.0754,-1.416862 -0.7819,-2.141924 -0.44581,-0.452331 -1.05623,-0.685149 -1.81071,-0.685149 -0.76131,0 -1.37175,0.232818 -1.81756,0.685149 -0.72017,0.725062 -0.78876,1.802667 -0.78876,2.148568 -0.28121,0.139697 -0.46639,0.478943 -0.46639,0.871402 0,0.445686 0.24691,0.818193 0.57612,0.911315 0.1852,0.592027 0.52814,1.110872 0.97396,1.476735 -0.0686,0.57871 -0.0686,0.57871 -0.0686,0.57871 -0.007,0.06653 -0.0411,0.119737 -0.096,0.152995 -0.0137,0.01331 -0.0343,0.02661 -0.0549,0.02661 -1.71469,0.485587 -1.71469,0.485587 -1.71469,0.485587 -0.25378,0.05321 -0.5007,0.179599 -0.74761,0.372507 -0.37722,0.305988 -0.63787,0.731713 -0.73389,1.19735 -0.40466,1.962317 -0.40466,1.962317 -0.40466,1.962317 -0.0206,0.07317 0,0.152993 0.0549,0.212857 0.048,0.05322 0.11659,0.08648 0.19204,0.08648 8.21678,0 8.21678,0 8.21678,0 0.10973,1.011092 0.99451,1.796023 2.06449,1.796023 1.14541,0 2.08505,-0.90466 2.08505,-2.015535 0,-1.117526 -0.93964,-2.022186 -2.08505,-2.022186 z m -6.7696,-8.03553 c 0.38409,-0.385805 0.91222,-0.585367 1.58437,-0.585367 0.6653,0 1.19344,0.199562 1.57752,0.585367 0.21948,0.226171 0.37724,0.498895 0.48011,0.764971 -0.37722,0.159647 -0.7819,0.212868 -1.25514,0.159647 -0.40468,-0.04656 -0.74761,-0.206203 -1.11113,-0.372504 -0.096,-0.04657 -0.1989,-0.09978 -0.30179,-0.146341 -0.45953,-0.199562 -0.86419,-0.246126 -1.20028,-0.126392 0,0 -0.007,0 -0.007,0 0.0686,-0.09312 0.14403,-0.192905 0.23319,-0.279381 z m -0.631,3.552132 c -0.0274,-0.106429 -0.0274,-0.106429 -0.0274,-0.106429 -0.10974,-0.0066 -0.10974,-0.0066 -0.10974,-0.0066 -0.22634,-0.01995 -0.40467,-0.292682 -0.40467,-0.625285 0,-0.305988 0.1509,-0.565412 0.3498,-0.618622 0.007,-0.0066 0.007,-0.0066 0.0137,-0.0066 0,0 0.007,-0.0066 0.0137,-0.0066 0.007,0 0.007,-0.0066 0.0137,-0.0066 0.007,-0.0066 0.007,-0.0066 0.0137,-0.0066 0,-0.0066 0.007,-0.0066 0.0137,-0.01331 0,0 0,-0.0066 0.007,-0.0066 0,-0.0066 0.007,-0.01331 0.007,-0.01331 0.007,-0.0066 0.007,-0.0066 0.007,-0.01331 0.007,-0.0067 0.007,-0.0067 0.007,-0.01331 0.007,-0.0066 0.007,-0.0066 0.007,-0.01331 0.007,-0.0066 0.007,-0.0066 0.007,-0.01331 0,-0.0066 0,-0.01331 0,-0.01331 0,-0.0066 0,-0.01331 0.007,-0.01995 0,0 0,-0.0066 0,-0.0066 0,-0.01331 -0.0206,-0.552114 0.17147,-1.137478 0.0823,-0.146341 0.23319,-0.272732 0.41838,-0.339248 0.25378,-0.08648 0.57613,-0.04656 0.96023,0.119726 0.096,0.04657 0.19891,0.09313 0.29493,0.139698 0.37036,0.172947 0.75446,0.352554 1.21399,0.405765 0.13032,0.01331 0.25378,0.01995 0.37724,0.01995 0.36351,0 0.69272,-0.06653 1.00822,-0.192908 0.13719,0.518848 0.11662,0.97118 0.11662,0.977832 0,0 0,0 0,0 0,0.01995 0.007,0.03991 0.0137,0.05986 0,0 0,0 0,0 0.007,0.01331 0.007,0.01995 0.0137,0.02661 0,0 0,0 0,0 0.0206,0.0266 0.048,0.05321 0.0823,0.06652 0.007,0 0.007,0 0.0137,0 0,0 0,0 0,0 0.20575,0.05321 0.35665,0.312642 0.35665,0.625276 0,0.332603 -0.17834,0.605333 -0.40466,0.625285 -0.10975,0.0066 -0.10975,0.0066 -0.10975,0.0066 -0.0274,0.106429 -0.0274,0.106429 -0.0274,0.106429 -0.1646,0.598672 -0.50068,1.124172 -0.96023,1.463421 -0.0686,0.05322 -0.0686,0.05322 -0.0686,0.05322 0.0892,0.751665 0.0892,0.751665 0.0892,0.751665 0.0137,0.08648 0.048,0.172956 0.10287,0.246126 -1.37175,1.37695 -1.37175,1.37695 -1.37175,1.37695 -1.37175,-1.37695 -1.37175,-1.37695 -1.37175,-1.37695 0.048,-0.07317 0.0823,-0.159649 0.096,-0.246126 0.0892,-0.751665 0.0892,-0.751665 0.0892,-0.751665 -0.0686,-0.05322 -0.0686,-0.05322 -0.0686,-0.05322 -0.45955,-0.339249 -0.79562,-0.864749 -0.96023,-1.463421 z m 7.4006,8.215132 c -0.97395,0 -1.7627,-0.764974 -1.7627,-1.709547 0,-0.94457 0.78875,-1.716199 1.7627,-1.716199 0.97394,0 1.76955,0.771629 1.76955,1.716199 0,0.944573 -0.79561,1.709547 -1.76955,1.709547 z"
       fill-rule="evenodd"
       id="path141"
       style="stroke-width:0.264583" />
    <path
       fill="#54b7e3"
       d="m 114.37264,71.659642 c -0.80907,0 -0.80907,0 -0.80907,0 0,-0.785281 0,-0.785281 0,-0.785281 0,-0.08651 -0.0686,-0.153058 -0.1577,-0.153058 -0.0891,0 -0.15771,0.06655 -0.15771,0.153058 0,0.785281 0,0.785281 0,0.785281 -0.80906,0 -0.80906,0 -0.80906,0 -0.0891,0 -0.15771,0.06655 -0.15771,0.153067 0,0.07986 0.0686,0.153059 0.15771,0.153059 0.80906,0 0.80906,0 0.80906,0 0,0.78528 0,0.78528 0,0.78528 0,0.08651 0.0686,0.153059 0.15771,0.153059 0.0891,0 0.1577,-0.06655 0.1577,-0.153059 0,-0.78528 0,-0.78528 0,-0.78528 0.80907,0 0.80907,0 0.80907,0 0.0891,0 0.15771,-0.0732 0.15771,-0.153059 0,-0.08652 -0.0686,-0.153067 -0.15771,-0.153067 z"
       fill-rule="evenodd"
       id="path143"
       style="stroke-width:0.264583" />
    <path
       fill="#54b7e3"
       d="m 110.47133,68.406042 c -2.25448,2.316266 -2.25448,2.316266 -2.25448,2.316266 -2.26136,-2.316266 -2.26136,-2.316266 -2.26136,-2.316266 -0.0619,-0.0594 -0.1581,-0.06599 -0.21996,-0.0066 -0.0687,0.05939 -0.0687,0.151783 -0.007,0.211169 2.36446,2.435058 2.36446,2.435058 2.36446,2.435058 0.10997,0.105582 0.10997,0.105582 0.10997,0.105582 0.0138,-0.0066 0.0138,-0.0066 0.0138,-0.0066 0.0137,0.0066 0.0137,0.0066 0.0137,0.0066 2.46757,-2.54064 2.46757,-2.54064 2.46757,-2.54064 0.0618,-0.05939 0.0618,-0.151775 -0.007,-0.211169 -0.0619,-0.05939 -0.15808,-0.05279 -0.21995,0.0066 z"
       fill-rule="evenodd"
       id="path145"
       style="stroke-width:0.264583" />
  </g>
</svg>
