<?xml version="1.0" encoding="UTF-8" standalone="no"?>
<!-- Created with Inkscape (http://www.inkscape.org/) -->

<svg
   width="8.7973804mm"
   height="12.79927mm"
   viewBox="0 0 8.7973804 12.79927"
   version="1.1"
   id="svg1164"
   inkscape:version="1.1 (c4e8f9e, 2021-05-24)"
   sodipodi:docname="checklist.svg"
   xmlns:inkscape="http://www.inkscape.org/namespaces/inkscape"
   xmlns:sodipodi="http://sodipodi.sourceforge.net/DTD/sodipodi-0.dtd"
   xmlns="http://www.w3.org/2000/svg"
   xmlns:svg="http://www.w3.org/2000/svg">
  <sodipodi:namedview
     id="namedview1166"
     pagecolor="#ffffff"
     bordercolor="#666666"
     borderopacity="1.0"
     inkscape:pageshadow="2"
     inkscape:pageopacity="0.0"
     inkscape:pagecheckerboard="0"
     inkscape:document-units="mm"
     showgrid="false"
     inkscape:zoom="0.63250561"
     inkscape:cx="271.93435"
     inkscape:cy="218.17988"
     inkscape:window-width="953"
     inkscape:window-height="932"
     inkscape:window-x="0"
     inkscape:window-y="28"
     inkscape:window-maximized="0"
     inkscape:current-layer="layer1" />
  <defs
     id="defs1161" />
  <g
     inkscape:label="Layer 1"
     inkscape:groupmode="layer"
     id="layer1"
     transform="translate(-33.249202,-90.64825)">
    <path
       fill="#54b7e3"
       d="m 41.216892,91.917543 c -2.06392,0 -2.06392,0 -2.06392,0 0,-0.225946 0,-0.225946 0,-0.225946 0,-0.186076 -0.15085,-0.338926 -0.34284,-0.338926 -0.32913,0 -0.32913,0 -0.32913,0 -0.0617,-0.392086 -0.41141,-0.704421 -0.83655,-0.704421 -0.42512,0 -0.77482,0.312335 -0.82968,0.704421 -0.43198,0 -0.43198,0 -0.43198,0 -0.19199,0 -0.3497,0.15285 -0.3497,0.338926 0,0.225946 0,0.225946 0,0.225946 -1.96106,0 -1.96106,0 -1.96106,0 -0.45256,0 -0.82283,0.35886 -0.82283,0.797465 0,9.935052 0,9.935052 0,9.935052 0,0.4386 0.37027,0.79746 0.82283,0.79746 7.14486,0 7.14486,0 7.14486,0 0.45941,0 0.82969,-0.35886 0.82969,-0.79746 0,-9.935052 0,-9.935052 0,-9.935052 0,-0.438605 -0.37028,-0.797465 -0.82969,-0.797465 z m -3.57244,-0.963604 c 0.25372,0 0.45942,0.172786 0.51428,0.398732 -1.02854,0 -1.02854,0 -1.02854,0 0.0549,-0.225946 0.26057,-0.398732 0.51426,-0.398732 z m -1.29594,0.737658 c 0,-0.01995 0.0137,-0.03323 0.0343,-0.03323 2.42734,0 2.42734,0 2.42734,0 0.0137,0 0.0274,0.01328 0.0274,0.03323 0,1.402199 0,1.402199 0,1.402199 0,0.04652 -0.0343,0.0864 -0.0891,0.0864 -0.0411,0 -0.0823,-0.03323 -0.0891,-0.07975 0,-0.02658 0,-0.02658 0,-0.02658 -0.0686,-0.491765 -0.50055,-0.863918 -1.01483,-0.863918 -0.51426,0 -0.94624,0.372153 -1.01481,0.863918 0,0.02658 0,0.02658 0,0.02658 -0.007,0.04653 -0.048,0.07975 -0.0891,0.07975 -0.10285,0 -0.10285,0 -0.10285,0 -0.048,0 -0.0891,-0.03987 -0.0891,-0.0864 z m 5.38264,10.958463 c 0,0.27246 -0.23312,0.49177 -0.51426,0.49177 -7.14486,0 -7.14486,0 -7.14486,0 -0.28113,0 -0.51426,-0.21931 -0.51426,-0.49177 0,-9.935052 0,-9.935052 0,-9.935052 0,-0.272473 0.23313,-0.498419 0.51426,-0.498419 1.96106,0 1.96106,0 1.96106,0 0,0.877207 0,0.877207 0,0.877207 0,0.212656 0.18514,0.392086 0.40456,0.392086 0.10285,0 0.10285,0 0.10285,0 0.19886,0 0.37028,-0.146195 0.3977,-0.345562 0.007,-0.02658 0.007,-0.02658 0.007,-0.02658 0.0411,-0.338926 0.34284,-0.598098 0.69939,-0.598098 0.35657,0 0.65827,0.259172 0.69941,0.598098 0.007,0.02658 0.007,0.02658 0.007,0.02658 0.0274,0.199367 0.19885,0.345562 0.39771,0.345562 0.22626,0 0.40454,-0.17943 0.40454,-0.392086 0,-0.877207 0,-0.877207 0,-0.877207 2.06393,0 2.06393,0 2.06393,0 0.28114,0 0.51426,0.225946 0.51426,0.498419 z"
       fill-rule="evenodd"
       id="path577"
       style="stroke-width:0.264583" />
  </g>
</svg>
