<?xml version="1.0" encoding="UTF-8" standalone="no"?>
<!-- Created with Inkscape (http://www.inkscape.org/) -->

<svg
   width="13.046928mm"
   height="11.30534mm"
   viewBox="0 0 13.046928 11.30534"
   version="1.1"
   id="svg292"
   inkscape:version="1.1 (c4e8f9e, 2021-05-24)"
   sodipodi:docname="cloud-secure.svg"
   xmlns:inkscape="http://www.inkscape.org/namespaces/inkscape"
   xmlns:sodipodi="http://sodipodi.sourceforge.net/DTD/sodipodi-0.dtd"
   xmlns="http://www.w3.org/2000/svg"
   xmlns:svg="http://www.w3.org/2000/svg">
  <sodipodi:namedview
     id="namedview294"
     pagecolor="#ffffff"
     bordercolor="#666666"
     borderopacity="1.0"
     inkscape:pageshadow="2"
     inkscape:pageopacity="0.0"
     inkscape:pagecheckerboard="0"
     inkscape:document-units="mm"
     showgrid="false"
     inkscape:zoom="0.63250561"
     inkscape:cx="56.916491"
     inkscape:cy="109.08994"
     inkscape:window-width="953"
     inkscape:window-height="960"
     inkscape:window-x="0"
     inkscape:window-y="0"
     inkscape:window-maximized="0"
     inkscape:current-layer="layer1" />
  <defs
     id="defs289" />
  <g
     inkscape:label="Layer 1"
     inkscape:groupmode="layer"
     id="layer1"
     transform="translate(-90.106076,-119.84029)">
    <path
       fill="#54b7e3"
       d="m 100.05449,122.02552 c -0.513259,-1.30746 -1.824931,-2.18523 -3.269667,-2.18523 -1.533451,0 -2.902148,0.98826 -3.352049,2.40007 -0.09505,-0.0184 -0.202768,-0.0245 -0.310491,-0.0245 -0.804743,0 -1.470086,0.60155 -1.520777,1.37497 -0.893456,0.35602 -1.49543,1.22152 -1.49543,2.16681 0,1.28904 1.083553,2.33255 2.414233,2.33255 0.557617,0 0.557617,0 0.557617,0 0.08237,0 0.145743,-0.0614 0.145743,-0.14118 0,-0.0737 -0.06337,-0.13505 -0.145743,-0.13505 -0.557617,0 -0.557617,0 -0.557617,0 -1.172263,0 -2.12275,-0.92688 -2.12275,-2.05632 0,-0.84094 0.544944,-1.61437 1.349687,-1.91514 0.05069,-0.0184 0.05069,-0.0184 0.05069,-0.0184 0.05069,-0.0184 0.08871,-0.0675 0.08871,-0.1289 0.0063,-0.0491 0.0063,-0.0491 0.0063,-0.0491 0.02535,-0.64451 0.563957,-1.15399 1.229294,-1.15399 0.10772,0 0.209108,0.0123 0.304157,0.0368 0.0697,0.0184 0.0697,0.0184 0.0697,0.0184 0.07604,0.0184 0.158411,-0.0245 0.177424,-0.0982 0.02535,-0.0737 0.02535,-0.0737 0.02535,-0.0737 0.386533,-1.32587 1.660184,-2.25275 3.085912,-2.25275 1.337014,0 2.5473,0.82253 3.016208,2.03791 0,0.006 0,0.0123 0.0063,0.0123 0.02535,0.0552 0.02535,0.0552 0.02535,0.0552 0.01902,0.043 0.0697,0.0737 0.126733,0.0737 0.05703,0 0.05703,0 0.05703,0 1.57146,0 2.84512,1.23993 2.84512,2.75609 0,0.96984 -0.53861,1.88444 -1.40672,2.37551 -0.3295,0.19028 -0.69702,0.30691 -1.08356,0.35602 -0.076,0.0123 -0.13306,0.0798 -0.12673,0.15959 0.0127,0.0737 0.0824,0.12891 0.16475,0.12277 0.42455,-0.0552 0.8301,-0.18415 1.19762,-0.39899 0.95048,-0.54017 1.54612,-1.54071 1.54612,-2.6149 0,-1.66348 -1.38771,-3.0139 -3.09858,-3.03231 z"
       fill-rule="evenodd"
       id="path33"
       style="stroke-width:0.264583" />
    <path
       fill="#54b7e3"
       d="m 96.647009,130.13733 c 1.658496,-1.98338 1.658496,-1.98338 1.658496,-1.98338 0.05045,-0.0556 0.03784,-0.14829 -0.01892,-0.19772 -0.06306,-0.0494 -0.157652,-0.0433 -0.208097,0.0185 -1.463008,1.75476 -1.463008,1.75476 -1.463008,1.75476 -0.964827,-0.84648 -0.964827,-0.84648 -0.964827,-0.84648 -0.06306,-0.0494 -0.151347,-0.0433 -0.208103,0.0123 -0.05045,0.0556 -0.04414,0.14829 0.01262,0.19773 z"
       fill-rule="evenodd"
       id="path35"
       style="stroke-width:0.264583" />
    <path
       fill="#54b7e3"
       d="m 93.711561,130.72027 c 0,0.23425 0.196839,0.42536 0.438118,0.42536 5.143106,0 5.143106,0 5.143106,0 0.241281,0 0.438118,-0.19111 0.438118,-0.42536 0,-3.79123 0,-3.79123 0,-3.79123 -6.019342,0 -6.019342,0 -6.019342,0 z m 0.292081,-3.50766 c 5.435182,0 5.435182,0 5.435182,0 0,3.50766 0,3.50766 0,3.50766 0,0.0801 -0.0635,0.14178 -0.146039,0.14178 -5.143106,0 -5.143106,0 -5.143106,0 -0.08255,0 -0.146037,-0.0616 -0.146037,-0.14178 z"
       fill-rule="evenodd"
       id="path37"
       style="stroke-width:0.264583" />
    <path
       fill="#54b7e3"
       d="m 99.089246,126.50126 c 0,-1.27905 -1.063702,-2.32216 -2.368008,-2.32216 -1.3043,0 -2.368005,1.04311 -2.368005,2.32216 0.291254,0 0.291254,0 0.291254,0 0,-1.11762 0.930738,-2.03655 2.076751,-2.03655 1.146014,0 2.076755,0.91893 2.076755,2.03655 z"
       fill-rule="evenodd"
       id="path39"
       style="stroke-width:0.264583" />
    <path
       fill="#54b7e3"
       d="m 96.736518,124.75963 c 0,0.28715 0,0.28715 0,0.28715 0.819399,0 1.48,0.65546 1.48,1.4545 0.292187,0 0.292187,0 0.292187,0 0,-0.9551 -0.793988,-1.74165 -1.772187,-1.74165 z"
       fill-rule="evenodd"
       id="path41"
       style="stroke-width:0.264583" />
  </g>
</svg>
