<?xml version="1.0" encoding="UTF-8" standalone="no"?>
<!-- Created with Inkscape (http://www.inkscape.org/) -->

<svg
   width="210mm"
   height="297mm"
   viewBox="0 0 210 297"
   version="1.1"
   id="svg292"
   inkscape:version="1.1 (c4e8f9e, 2021-05-24)"
   sodipodi:docname="cloud-add.svg"
   xmlns:inkscape="http://www.inkscape.org/namespaces/inkscape"
   xmlns:sodipodi="http://sodipodi.sourceforge.net/DTD/sodipodi-0.dtd"
   xmlns="http://www.w3.org/2000/svg"
   xmlns:svg="http://www.w3.org/2000/svg">
  <sodipodi:namedview
     id="namedview294"
     pagecolor="#ffffff"
     bordercolor="#666666"
     borderopacity="1.0"
     inkscape:pageshadow="2"
     inkscape:pageopacity="0.0"
     inkscape:pagecheckerboard="0"
     inkscape:document-units="mm"
     showgrid="false"
     inkscape:zoom="0.63250561"
     inkscape:cx="397.62493"
     inkscape:cy="561.25984"
     inkscape:window-width="1536"
     inkscape:window-height="932"
     inkscape:window-x="0"
     inkscape:window-y="28"
     inkscape:window-maximized="0"
     inkscape:current-layer="layer1" />
  <defs
     id="defs289" />
  <g
     inkscape:label="Layer 1"
     inkscape:groupmode="layer"
     id="layer1">
    <path
       fill="#54b7e3"
       d="m 70.589581,117.78125 c 0,-0.43457 -0.143246,-0.84893 -0.413817,-1.19254 -0.270568,-0.33856 -0.64194,-0.58111 -1.071671,-0.70239 -0.0955,-0.0253 -0.0955,-0.0253 -0.0955,-0.0253 0.0053,-0.091 0.0053,-0.091 0.0053,-0.091 0,-0.0303 0,-0.0556 0,-0.0859 0,-0.66702 -0.265266,-1.30371 -0.758659,-1.78881 -0.48809,-0.48005 -1.140642,-0.75797 -1.83564,-0.78324 -0.09019,-0.005 -0.09019,-0.005 -0.09019,-0.005 -0.02653,-0.0808 -0.02653,-0.0808 -0.02653,-0.0808 -0.127328,-0.37898 -0.318319,-0.73775 -0.567667,-1.06115 -0.23874,-0.31835 -0.530532,-0.59627 -0.864767,-0.82872 -0.334236,-0.23244 -0.7003,-0.4093 -1.092894,-0.53563 -0.397899,-0.12633 -0.817019,-0.18697 -1.241444,-0.18697 -1.008009,0 -1.96827,0.35878 -2.705709,1.01568 -0.732134,0.65186 -1.177779,1.5311 -1.246748,2.48109 -0.01061,0.10107 -0.01061,0.10107 -0.01061,0.10107 -0.100802,0.0101 -0.100802,0.0101 -0.100802,0.0101 -0.742743,0.0657 -1.432434,0.39415 -1.941744,0.92473 -0.50931,0.53057 -0.790492,1.2178 -0.790492,1.93534 0,1.58669 1.358161,2.88029 3.024029,2.88029 0.817017,0 0.817017,0 0.817017,0 0,-0.36382 0,-0.36382 0,-0.36382 -0.817017,0 -0.817017,0 -0.817017,0 -1.458961,0 -2.642046,-1.12685 -2.642046,-2.51646 0,-0.61648 0.238739,-1.21275 0.673775,-1.67259 0.42973,-0.45478 1.013314,-0.74787 1.649952,-0.82366 0.127328,-0.0101 0.127328,-0.0101 0.127328,-0.0101 0.01061,0.12128 0.01061,0.12128 0.01061,0.12128 0.02653,0.27286 0.07958,0.54068 0.164464,0.79839 0.360762,-0.11622 0.360762,-0.11622 0.360762,-0.11622 -0.106106,-0.31835 -0.153855,-0.65185 -0.153855,-0.99042 0,-1.87976 1.607511,-3.41086 3.581086,-3.41086 0.737439,0 1.443044,0.21223 2.04785,0.61143 0.599502,0.3992 1.050453,0.95504 1.305107,1.6069 0.05305,0.13138 0.05305,0.13138 0.05305,0.13138 -0.143242,0.0253 -0.143242,0.0253 -0.143242,0.0253 -0.466869,0.0859 -0.896599,0.28298 -1.252054,0.57606 0.259961,0.26782 0.259961,0.26782 0.259961,0.26782 0.164464,-0.13644 0.35015,-0.24256 0.546446,-0.32846 0.228129,-0.10106 0.477478,-0.1617 0.732134,-0.18696 0.0053,0 0.0053,0 0.0053,0 0.164464,-0.0101 0.164464,-0.0101 0.164464,-0.0101 0.01592,0 0.03183,0 0.05305,0 1.283887,0 2.323728,0.99547 2.323728,2.21327 0,0.091 -0.0053,0.18697 -0.02122,0.29813 -0.02653,0.17686 -0.02653,0.17686 -0.02653,0.17686 0.185687,0.0303 0.185687,0.0303 0.185687,0.0303 0.817017,0.11623 1.437738,0.80345 1.437738,1.59174 0,0.88935 -0.763963,1.617 -1.697699,1.617 -1.761364,0 -1.761364,0 -1.761364,0 0,0.36383 0,0.36383 0,0.36383 1.761364,0 1.761364,0 1.761364,0 1.14595,0 2.079683,-0.88935 2.079683,-1.98083 z"
       fill-rule="evenodd"
       id="path67"
       style="stroke-width:0.264583" />
    <path
       fill="#54b7e3"
       d="m 63.162141,116.99223 c -1.492888,0 -2.709511,1.1566 -2.709511,2.58714 0,1.42547 1.216623,2.58714 2.709511,2.58714 1.498198,0 2.714823,-1.16167 2.714823,-2.58714 0,-1.43054 -1.216625,-2.58714 -2.714823,-2.58714 z m 0,4.80904 c -1.280377,0 -2.326992,-0.99935 -2.326992,-2.2219 0,-1.22762 1.046615,-2.2219 2.326992,-2.2219 1.285689,0 2.332302,0.99428 2.332302,2.2219 0,1.22255 -1.046613,2.2219 -2.332302,2.2219 z"
       fill-rule="evenodd"
       id="path69"
       style="stroke-width:0.264583" />
    <path
       fill="#54b7e3"
       d="m 64.299673,119.39663 h -0.942526 v -0.90405 h -0.384702 v 0.90405 h -0.942526 v 0.36547 h 0.942526 v 0.90406 h 0.384702 v -0.90406 h 0.942526 z"
       fill-rule="evenodd"
       id="path71"
       style="stroke-width:0.264583" />
  </g>
</svg>
