<?xml version="1.0" encoding="UTF-8" standalone="no"?>
<!-- Created with Inkscape (http://www.inkscape.org/) -->

<svg
   width="14.849826mm"
   height="12.3298mm"
   viewBox="0 0 14.849826 12.3298"
   version="1.1"
   id="svg292"
   inkscape:version="1.1 (c4e8f9e, 2021-05-24)"
   sodipodi:docname="cloud-volume.svg"
   xmlns:inkscape="http://www.inkscape.org/namespaces/inkscape"
   xmlns:sodipodi="http://sodipodi.sourceforge.net/DTD/sodipodi-0.dtd"
   xmlns="http://www.w3.org/2000/svg"
   xmlns:svg="http://www.w3.org/2000/svg">
  <sodipodi:namedview
     id="namedview294"
     pagecolor="#ffffff"
     bordercolor="#666666"
     borderopacity="1.0"
     inkscape:pageshadow="2"
     inkscape:pageopacity="0.0"
     inkscape:pagecheckerboard="0"
     inkscape:document-units="mm"
     showgrid="false"
     inkscape:zoom="0.63250561"
     inkscape:cx="44.268382"
     inkscape:cy="80.631696"
     inkscape:window-width="953"
     inkscape:window-height="932"
     inkscape:window-x="0"
     inkscape:window-y="28"
     inkscape:window-maximized="0"
     inkscape:current-layer="layer1" />
  <defs
     id="defs289" />
  <g
     inkscape:label="Layer 1"
     inkscape:groupmode="layer"
     id="layer1"
     transform="translate(-93.387664,-127.27593)">
    <path
       fill="#54b7e3"
       d="m 108.23749,134.64342 c 0,-0.43456 -0.14331,-0.84892 -0.41397,-1.19253 -0.26535,-0.33856 -0.63686,-0.58111 -1.07206,-0.70239 -0.0902,-0.0253 -0.0902,-0.0253 -0.0902,-0.0253 0.005,-0.091 0.005,-0.091 0.005,-0.091 0,-0.0303 0,-0.0556 0,-0.0859 0,-0.66701 -0.27065,-1.30371 -0.75891,-1.78881 -0.48828,-0.48005 -1.14107,-0.75797 -1.84162,-0.78829 -0.0849,0 -0.0849,0 -0.0849,0 -0.0265,-0.0808 -0.0265,-0.0808 -0.0265,-0.0808 -0.12738,-0.37899 -0.31844,-0.73776 -0.56787,-1.06116 -0.23883,-0.31835 -0.53072,-0.59627 -0.86508,-0.82871 -0.33435,-0.23245 -0.70056,-0.4093 -1.09328,-0.53563 -0.39805,-0.12633 -0.81732,-0.18697 -1.2419,-0.18697 -1.008368,0 -1.968974,0.35877 -2.70668,1.01568 -0.732393,0.65185 -1.178198,1.5311 -1.252501,2.48109 -0.0053,0.096 -0.0053,0.096 -0.0053,0.096 -0.106138,0.0101 -0.106138,0.0101 -0.106138,0.0101 -0.74301,0.0707 -1.427641,0.39919 -1.937138,0.92472 -0.50949,0.53563 -0.790779,1.22286 -0.790779,1.9404 0,1.58669 1.353341,2.88029 3.019808,2.88029 1.135751,0 1.135751,0 1.135751,0 0,-0.36383 0,-0.36383 0,-0.36383 -1.135751,0 -1.135751,0 -1.135751,0 -1.454173,0 -2.637686,-1.13189 -2.637686,-2.51646 0,-0.61648 0.238826,-1.21275 0.674015,-1.67258 0.424577,-0.45984 1.013682,-0.74787 1.650545,-0.82366 0.127373,-0.0152 0.127373,-0.0152 0.127373,-0.0152 0.01061,0.12633 0.01061,0.12633 0.01061,0.12633 0.02122,0.26781 0.0743,0.54068 0.159221,0.79839 0.360886,-0.11622 0.360886,-0.11622 0.360886,-0.11622 -0.100833,-0.31835 -0.153905,-0.65186 -0.153905,-0.99041 0,-1.88483 1.608082,-3.41593 3.587679,-3.41593 0.73771,0 1.44357,0.21224 2.04858,0.61649 0.59972,0.39919 1.05084,0.95504 1.30559,1.60689 0.0477,0.13139 0.0477,0.13139 0.0477,0.13139 -0.14329,0.0253 -0.14329,0.0253 -0.14329,0.0253 -0.46172,0.0859 -0.89161,0.28298 -1.24719,0.57607 0.26005,0.26276 0.26005,0.26276 0.26005,0.26276 0.16452,-0.13139 0.34497,-0.24256 0.54134,-0.3234 0.23351,-0.10107 0.48296,-0.16676 0.73769,-0.18697 0.005,0 0.005,0 0.005,0 0.16453,-0.0101 0.16453,-0.0101 0.16453,-0.0101 0.0159,0 0.0318,0 0.0531,0 1.28436,0 2.32457,0.99042 2.32457,2.21328 0,0.0909 -0.005,0.18696 -0.0212,0.29813 -0.0266,0.17686 -0.0266,0.17686 -0.0266,0.17686 0.18576,0.0253 0.18576,0.0253 0.18576,0.0253 0.81731,0.12128 1.43826,0.8085 1.43826,1.59679 0,0.88935 -0.76423,1.617 -1.69832,1.617 -2.08043,0 -2.08043,0 -2.08043,0 0,0.36383 0,0.36383 0,0.36383 2.08043,0 2.08043,0 2.08043,0 1.14636,0 2.07513,-0.88935 2.07513,-1.98083 z"
       fill-rule="evenodd"
       id="path179"
       style="stroke-width:0.264583" />
    <path
       fill="#54b7e3"
       d="m 98.427509,133.25811 v 6.34762 h 4.789551 v -6.34762 z m 4.404851,5.98215 h -4.020152 v -1.11564 h 4.020152 z m 0,-1.48111 h -4.020152 v -1.13488 h 4.020152 z m 0,-1.50035 h -4.020152 v -1.13487 h 4.020152 z m 0,-1.50034 h -4.020152 v -1.13488 h 4.020152 z"
       fill-rule="evenodd"
       id="path181"
       style="stroke-width:0.264583" />
  </g>
</svg>
