<?xml version="1.0" encoding="UTF-8" standalone="no"?>
<!-- Created with Inkscape (http://www.inkscape.org/) -->

<svg
   width="210mm"
   height="297mm"
   viewBox="0 0 210 297"
   version="1.1"
   id="svg292"
   inkscape:version="1.1 (c4e8f9e, 2021-05-24)"
   sodipodi:docname="cloud-upgrade.svg"
   xmlns:inkscape="http://www.inkscape.org/namespaces/inkscape"
   xmlns:sodipodi="http://sodipodi.sourceforge.net/DTD/sodipodi-0.dtd"
   xmlns="http://www.w3.org/2000/svg"
   xmlns:svg="http://www.w3.org/2000/svg">
  <sodipodi:namedview
     id="namedview294"
     pagecolor="#ffffff"
     bordercolor="#666666"
     borderopacity="1.0"
     inkscape:pageshadow="2"
     inkscape:pageopacity="0.0"
     inkscape:pagecheckerboard="0"
     inkscape:document-units="mm"
     showgrid="false"
     inkscape:zoom="0.63250561"
     inkscape:cx="397.62493"
     inkscape:cy="561.25984"
     inkscape:window-width="1536"
     inkscape:window-height="932"
     inkscape:window-x="0"
     inkscape:window-y="28"
     inkscape:window-maximized="0"
     inkscape:current-layer="layer1" />
  <defs
     id="defs289" />
  <g
     inkscape:label="Layer 1"
     inkscape:groupmode="layer"
     id="layer1">
    <path
       fill="#54b7e3"
       d="m 100.28959,103.55871 c 0,-0.43457 -0.1433,-0.84387 -0.413959,-1.18748 -0.270671,-0.34361 -0.642175,-0.58616 -1.072059,-0.70744 -0.09022,-0.0253 -0.09022,-0.0253 -0.09022,-0.0253 0,-0.091 0,-0.091 0,-0.091 0.0053,-0.0253 0.0053,-0.0556 0.0053,-0.0808 0,-0.67207 -0.270655,-1.30877 -0.758933,-1.788816 -0.488262,-0.4851 -1.141048,-0.763021 -1.841603,-0.788286 -0.08491,-0.0051 -0.08491,-0.0051 -0.08491,-0.0051 -0.02653,-0.0758 -0.02653,-0.0758 -0.02653,-0.0758 -0.132678,-0.38404 -0.323752,-0.742812 -0.567875,-1.066212 -0.244139,-0.313293 -0.53603,-0.591214 -0.865079,-0.823661 -0.334346,-0.232445 -0.700556,-0.414356 -1.09328,-0.535631 -0.403352,-0.126328 -0.822624,-0.192018 -1.247211,-0.192018 -1.003057,0 -1.963671,0.358772 -2.701369,1.015679 -0.737698,0.651854 -1.178206,1.53615 -1.252509,2.481088 -0.0053,0.101063 -0.0053,0.101063 -0.0053,0.101063 -0.106146,0.01011 -0.106146,0.01011 -0.106146,0.01011 -0.743011,0.06569 -1.432954,0.394144 -1.937139,0.924724 -0.509497,0.53058 -0.790779,1.2178 -0.790779,1.9404 0,1.58669 1.353342,2.87524 3.019809,2.87524 0.191058,0 0.191058,0 0.191058,0 0,-0.36383 0,-0.36383 0,-0.36383 -0.191058,0 -0.191058,0 -0.191058,0 -1.454174,0 -2.637695,-1.12685 -2.637695,-2.51141 0,-0.62153 0.238827,-1.21275 0.668711,-1.67764 0.429898,-0.45478 1.018995,-0.74786 1.655858,-0.8186 0.127381,-0.0152 0.127381,-0.0152 0.127381,-0.0152 0.01061,0.12127 0.01061,0.12127 0.01061,0.12127 0.02122,0.27287 0.0743,0.54068 0.159213,0.80345 0.360895,-0.11622 0.360895,-0.11622 0.360895,-0.11622 -0.100833,-0.3234 -0.153914,-0.65691 -0.153914,-0.99547 0,-1.879762 1.60809,-3.410863 3.582371,-3.410863 0.737714,0 1.44888,0.21223 2.053897,0.611428 0.599721,0.399198 1.050841,0.955043 1.300276,1.61195 0.05307,0.126328 0.05307,0.126328 0.05307,0.126328 -0.14329,0.03032 -0.14329,0.03032 -0.14329,0.03032 -0.461727,0.08085 -0.891612,0.277927 -1.252506,0.571006 0.265359,0.267816 0.265359,0.267816 0.265359,0.267816 0.164523,-0.131379 0.344971,-0.242549 0.541343,-0.328451 0.23351,-0.101066 0.482946,-0.161703 0.737695,-0.186968 0.0053,0 0.0053,0 0.0053,0 0.159213,-0.0051 0.159213,-0.0051 0.159213,-0.0051 0.01593,0 0.03716,-0.0051 0.05838,-0.0051 1.27904,0 2.324568,0.995464 2.324568,2.218324 0,0.0859 -0.01061,0.18191 -0.02653,0.29813 -0.02125,0.17686 -0.02125,0.17686 -0.02125,0.17686 0.180445,0.0253 0.180445,0.0253 0.180445,0.0253 0.822624,0.12127 1.438254,0.80345 1.438254,1.59173 0,0.89441 -0.758917,1.61701 -1.698299,1.61701 -1.130438,0 -1.130438,0 -1.130438,0 0,0.36382 0,0.36382 0,0.36382 1.130438,0 1.130438,0 1.130438,0 1.146362,0 2.080427,-0.88934 2.080427,-1.98083 z"
       fill-rule="evenodd"
       id="path187"
       style="stroke-width:0.264583" />
    <path
       fill="#54b7e3"
       d="m 92.8516,107.94396 c 1.148025,0 1.148025,0 1.148025,0 0,-0.36533 0,-0.36533 0,-0.36533 -1.148025,0 -1.148025,0 -1.148025,0 -1.105519,0 -2.003753,-0.85751 -2.003753,-1.91291 0,-1.38014 0,-1.38014 0,-1.38014 0.600594,0.75096 0.600594,0.75096 0.600594,0.75096 0.308266,-0.21818 0.308266,-0.21818 0.308266,-0.21818 -0.760032,-0.94377 -0.760032,-0.94377 -0.760032,-0.94377 -0.07973,-0.10149 -0.201975,-0.16237 -0.340161,-0.16237 0,0 0,0 0,0 -0.138203,0 -0.260432,0.0609 -0.345472,0.16237 -0.754735,0.94377 -0.754735,0.94377 -0.754735,0.94377 0.308266,0.21818 0.308266,0.21818 0.308266,0.21818 0.600594,-0.75096 0.600594,-0.75096 0.600594,-0.75096 0,1.38014 0,1.38014 0,1.38014 0,1.25836 1.068313,2.27824 2.386433,2.27824 z"
       fill-rule="evenodd"
       id="path189"
       style="stroke-width:0.264583" />
    <path
       fill="#54b7e3"
       d="m 95.401628,106.83012 c 0.752361,-0.93723 0.752361,-0.93723 0.752361,-0.93723 -0.302001,-0.21668 -0.302001,-0.21668 -0.302001,-0.21668 -0.598704,0.74576 -0.598704,0.74576 -0.598704,0.74576 0,-1.37058 0,-1.37058 0,-1.37058 0,-1.24965 -1.070266,-2.26246 -2.37894,-2.26246 -1.14444,0 -1.14444,0 -1.14444,0 0,0.3628 0,0.3628 0,0.3628 1.14444,0 1.14444,0 1.14444,0 1.102048,0 1.997456,0.85157 1.997456,1.89966 0,1.37058 0,1.37058 0,1.37058 -0.604002,-0.74576 -0.604002,-0.74576 -0.604002,-0.74576 -0.302,0.21668 -0.302,0.21668 -0.302,0.21668 0.752361,0.93723 0.752361,0.93723 0.752361,0.93723 0.08476,0.10582 0.211921,0.17132 0.344389,0.17132 0.132456,0 0.254315,-0.0655 0.33908,-0.17132 z"
       fill-rule="evenodd"
       id="path191"
       style="stroke-width:0.264583" />
  </g>
</svg>
