<?xml version="1.0" encoding="UTF-8" standalone="no"?>
<!-- Created with Inkscape (http://www.inkscape.org/) -->

<svg
   width="210mm"
   height="297mm"
   viewBox="0 0 210 297"
   version="1.1"
   id="svg292"
   inkscape:version="1.1 (c4e8f9e, 2021-05-24)"
   sodipodi:docname="cloud-to-local.svg"
   xmlns:inkscape="http://www.inkscape.org/namespaces/inkscape"
   xmlns:sodipodi="http://sodipodi.sourceforge.net/DTD/sodipodi-0.dtd"
   xmlns="http://www.w3.org/2000/svg"
   xmlns:svg="http://www.w3.org/2000/svg">
  <sodipodi:namedview
     id="namedview294"
     pagecolor="#ffffff"
     bordercolor="#666666"
     borderopacity="1.0"
     inkscape:pageshadow="2"
     inkscape:pageopacity="0.0"
     inkscape:pagecheckerboard="0"
     inkscape:document-units="mm"
     showgrid="false"
     inkscape:zoom="0.63250561"
     inkscape:cx="397.62493"
     inkscape:cy="561.25984"
     inkscape:window-width="1536"
     inkscape:window-height="932"
     inkscape:window-x="0"
     inkscape:window-y="28"
     inkscape:window-maximized="0"
     inkscape:current-layer="layer1" />
  <defs
     id="defs289" />
  <g
     inkscape:label="Layer 1"
     inkscape:groupmode="layer"
     id="layer1">
    <path
       fill="#54b7e3"
       d="m 70.58959,116.6561 c 0,-0.43457 -0.143299,-0.84893 -0.41397,-1.19254 -0.270663,-0.33856 -0.642167,-0.58111 -1.072052,-0.70238 -0.09022,-0.0253 -0.09022,-0.0253 -0.09022,-0.0253 0,-0.091 0,-0.091 0,-0.091 0.0053,-0.0303 0.0053,-0.0556 0.0053,-0.0859 0,-0.66701 -0.270671,-1.3037 -0.758933,-1.7888 -0.48826,-0.48005 -1.141055,-0.75798 -1.841601,-0.7883 -0.08492,0 -0.08492,0 -0.08492,0 -0.02653,-0.0808 -0.02653,-0.0808 -0.02653,-0.0808 -0.132686,-0.37898 -0.323744,-0.73775 -0.567875,-1.06115 -0.244131,-0.31835 -0.53603,-0.59627 -0.865079,-0.82872 -0.334354,-0.23244 -0.700548,-0.4093 -1.093287,-0.53563 -0.403344,-0.12632 -0.822616,-0.18696 -1.247196,-0.18696 -1.003064,0 -1.963671,0.35877 -2.701377,1.01568 -0.737706,0.65185 -1.178198,1.5311 -1.252501,2.48109 -0.0053,0.096 -0.0053,0.096 -0.0053,0.096 -0.106137,0.0101 -0.106137,0.0101 -0.106137,0.0101 -0.743011,0.0708 -1.432955,0.3992 -1.937139,0.92473 -0.50949,0.53563 -0.790779,1.22286 -0.790779,1.9404 0,1.58669 1.353341,2.88029 3.019809,2.88029 0.191066,0 0.191066,0 0.191066,0 0,-0.36383 0,-0.36383 0,-0.36383 -0.191066,0 -0.191066,0 -0.191066,0 -1.454174,0 -2.637687,-1.1319 -2.637687,-2.51646 0,-0.61648 0.238826,-1.21275 0.66871,-1.67259 0.429882,-0.45984 1.018987,-0.74786 1.65585,-0.82366 0.127373,-0.0152 0.127373,-0.0152 0.127373,-0.0152 0.01061,0.12633 0.01061,0.12633 0.01061,0.12633 0.02122,0.26782 0.0743,0.54069 0.159221,0.79839 0.360886,-0.11621 0.360886,-0.11621 0.360886,-0.11621 -0.100832,-0.31836 -0.153905,-0.65186 -0.153905,-0.99042 0,-1.88482 1.608082,-3.41592 3.582371,-3.41592 0.737706,0 1.448871,0.21223 2.053897,0.61648 0.599712,0.3992 1.050832,0.95504 1.300268,1.6069 0.05307,0.13138 0.05307,0.13138 0.05307,0.13138 -0.143299,0.0253 -0.143299,0.0253 -0.143299,0.0253 -0.461727,0.0859 -0.891611,0.28298 -1.252497,0.57606 0.265358,0.26276 0.265358,0.26276 0.265358,0.26276 0.164523,-0.13138 0.344964,-0.24255 0.541335,-0.3234 0.233521,-0.10106 0.482955,-0.16675 0.737703,-0.18696 0.0053,0 0.0053,0 0.0053,0 0.159221,-0.0101 0.159221,-0.0101 0.159221,-0.0101 0.01593,0 0.03715,0 0.05838,0 1.27904,0 2.32456,0.99041 2.32456,2.21327 0,0.091 -0.01061,0.18697 -0.02653,0.29814 -0.02122,0.17686 -0.02122,0.17686 -0.02122,0.17686 0.180446,0.0253 0.180446,0.0253 0.180446,0.0253 0.822616,0.12128 1.438254,0.80851 1.438254,1.59679 0,0.88936 -0.758934,1.61701 -1.698316,1.61701 -1.130437,0 -1.130437,0 -1.130437,0 0,0.36382 0,0.36382 0,0.36382 1.130437,0 1.130437,0 1.130437,0 1.146363,0 2.080438,-0.88935 2.080438,-1.98083 z"
       fill-rule="evenodd"
       id="path151"
       style="stroke-width:0.264583" />
    <path
       fill="#54b7e3"
       d="m 59.819926,116.65411 c 0,3.70809 0,3.70809 0,3.70809 -0.435147,0 -0.435147,0 -0.435147,0 -0.281257,0 -0.509442,0.21189 -0.509442,0.47928 0,0.29765 0,0.29765 0,0.29765 0,0.26739 0.228185,0.47928 0.509442,0.47928 7.546092,0 7.546092,0 7.546092,0 0.281257,0 0.504134,-0.21189 0.504134,-0.47928 0,-0.29765 0,-0.29765 0,-0.29765 0,-0.26739 -0.222877,-0.47928 -0.504134,-0.47928 -0.43515,0 -0.43515,0 -0.43515,0 0,-3.70809 0,-3.70809 0,-3.70809 0,-0.26738 -0.228182,-0.47928 -0.509439,-0.47928 -1.761821,0 -1.761821,0 -1.761821,0 0,0.36325 0,0.36325 0,0.36325 1.889178,0 1.889178,0 1.889178,0 0,3.82412 0,3.82412 0,3.82412 -5.911638,0 -5.911638,0 -5.911638,0 0,-3.82412 0,-3.82412 0,-3.82412 1.889178,0 1.889178,0 1.889178,0 0,-0.36325 0,-0.36325 0,-0.36325 -1.767123,0 -1.767123,0 -1.767123,0 -0.275945,0 -0.50413,0.2119 -0.50413,0.47928 z m 7.232997,4.06628 c 0,0.53478 0,0.53478 0,0.53478 -7.795511,0 -7.795511,0 -7.795511,0 0,-0.53478 0,-0.53478 0,-0.53478 z"
       fill-rule="evenodd"
       id="path153"
       style="stroke-width:0.264583" />
    <path
       fill="#54b7e3"
       d="m 63.494618,119.02803 c 0.747321,-0.93984 0.747321,-0.93984 0.747321,-0.93984 -0.299982,-0.22233 -0.299982,-0.22233 -0.299982,-0.22233 -0.594706,0.75289 -0.594706,0.75289 -0.594706,0.75289 0,-4.53245 0,-4.53245 0,-4.53245 0.594706,0.75288 0.594706,0.75288 0.594706,0.75288 0.299982,-0.22233 0.299982,-0.22233 0.299982,-0.22233 -0.747321,-0.93983 -0.747321,-0.93983 -0.747321,-0.93983 -0.07894,-0.10106 -0.199995,-0.15664 -0.336825,-0.15664 0,0 0,0 0,0 -0.136837,0 -0.257881,0.0556 -0.34209,0.15664 -0.747329,0.93983 -0.747329,0.93983 -0.747329,0.93983 0.29999,0.22233 0.29999,0.22233 0.29999,0.22233 0.599961,-0.75288 0.599961,-0.75288 0.599961,-0.75288 0,4.53245 0,4.53245 0,4.53245 -0.599961,-0.75289 -0.599961,-0.75289 -0.599961,-0.75289 -0.29999,0.22233 -0.29999,0.22233 -0.29999,0.22233 0.747329,0.93984 0.747329,0.93984 0.747329,0.93984 0.08947,0.10611 0.210518,0.16675 0.34209,0.16675 0.131572,0 0.252617,-0.0606 0.336825,-0.16675 z"
       fill-rule="evenodd"
       id="path155"
       style="stroke-width:0.264583" />
  </g>
</svg>
