<?xml version="1.0" encoding="UTF-8" standalone="no"?>
<!-- Created with Inkscape (http://www.inkscape.org/) -->

<svg
   width="13.2307mm"
   height="11.64138mm"
   viewBox="0 0 13.2307 11.64138"
   version="1.1"
   id="svg292"
   inkscape:version="1.1 (c4e8f9e, 2021-05-24)"
   sodipodi:docname="cloud-transfer.svg"
   xmlns:inkscape="http://www.inkscape.org/namespaces/inkscape"
   xmlns:sodipodi="http://sodipodi.sourceforge.net/DTD/sodipodi-0.dtd"
   xmlns="http://www.w3.org/2000/svg"
   xmlns:svg="http://www.w3.org/2000/svg">
  <sodipodi:namedview
     id="namedview294"
     pagecolor="#ffffff"
     bordercolor="#666666"
     borderopacity="1.0"
     inkscape:pageshadow="2"
     inkscape:pageopacity="0.0"
     inkscape:pagecheckerboard="0"
     inkscape:document-units="mm"
     showgrid="false"
     inkscape:zoom="0.63250561"
     inkscape:cx="-167.58745"
     inkscape:cy="-281.42043"
     inkscape:window-width="953"
     inkscape:window-height="932"
     inkscape:window-x="0"
     inkscape:window-y="28"
     inkscape:window-maximized="0"
     inkscape:current-layer="layer1" />
  <defs
     id="defs289" />
  <g
     inkscape:label="Layer 1"
     inkscape:groupmode="layer"
     id="layer1"
     transform="translate(-149.41403,-222.99479)">
    <path
       fill="#54b7e3"
       d="m 155.61158,229.28628 c 0,0 0,0 0,0 -0.66534,-0.64387 -0.66534,-0.64387 -0.66534,-0.64387 -0.057,-0.0552 -0.15208,-0.0552 -0.20911,0 -0.057,0.0552 -0.057,0.14717 0,0.20236 0.41821,0.40471 0.41821,0.40471 0.41821,0.40471 -1.86295,0 -1.86295,0 -1.86295,0 -0.0824,0 -0.14573,0.0613 -0.14573,0.14104 0,0.0736 0.0634,0.14104 0.14573,0.14104 2.15444,0 2.15444,0 2.15444,0 0.74138,0.71132 0.74138,0.71132 0.74138,0.71132 -0.74138,0.71132 -0.74138,0.71132 -0.74138,0.71132 -2.63601,0 -2.63601,0 -2.63601,0 -0.98217,0 -0.98217,0 -0.98217,0 -1.17227,0 -2.12276,-0.91981 -2.12276,-2.04811 0,-0.84009 0.54495,-1.61273 1.3497,-1.91321 0.0507,-0.0184 0.0507,-0.0184 0.0507,-0.0184 0.0507,-0.0184 0.0887,-0.0675 0.0951,-0.12878 0,-0.0491 0,-0.0491 0,-0.0491 0.0253,-0.64387 0.56395,-1.15283 1.22929,-1.15283 0.10772,0 0.20911,0.0123 0.30416,0.0368 0.0697,0.0184 0.0697,0.0184 0.0697,0.0184 0.0824,0.0184 0.15841,-0.0245 0.17743,-0.0981 0.0253,-0.0736 0.0253,-0.0736 0.0253,-0.0736 0.38654,-1.32452 1.66018,-2.25046 3.08591,-2.25046 1.33701,0 2.55364,0.82169 3.01621,2.03584 0,0.006 0,0.0123 0.006,0.0123 0.0253,0.0491 0.0253,0.0491 0.0253,0.0491 0.019,0.049 0.0697,0.0797 0.12673,0.0797 0.057,0 0.057,0 0.057,0 1.57147,0 2.84512,1.23868 2.84512,2.7533 0,0.0797 0.0634,0.14104 0.14575,0.14104 0.0824,0 0.14574,-0.0613 0.14574,-0.14104 0,-1.66179 -1.38771,-3.01085 -3.09858,-3.02924 -0.51327,-1.30613 -1.82494,-2.18302 -3.26968,-2.18302 -1.53345,0 -2.90215,0.98727 -3.35205,2.39764 -0.095,-0.0184 -0.20276,-0.0245 -0.31048,-0.0245 -0.80475,0 -1.46375,0.60094 -1.52078,1.37358 -0.89346,0.35566 -1.49543,1.22028 -1.49543,2.16462 0,1.28773 1.08355,2.33019 2.41423,2.33019 0.98217,0 0.98217,0 0.98217,0 2.34453,0 2.34453,0 2.34453,0 -0.41822,0.40471 -0.41822,0.40471 -0.41822,0.40471 -0.057,0.0552 -0.057,0.14717 0,0.20236 0.0317,0.0245 0.0697,0.0429 0.10773,0.0429 0.0317,0 0.0697,-0.0184 0.10138,-0.0429 1.65385,-1.60046 1.65385,-1.60046 1.65385,-1.60046 z"
       fill-rule="evenodd"
       id="path47"
       style="stroke-width:0.264583" />
    <path
       fill="#54b7e3"
       d="m 157.40489,231.59389 c 0.0568,-0.0552 0.0568,-0.14721 0,-0.20241 -0.0568,-0.0552 -0.14514,-0.0552 -0.20192,0 -1.647,1.6009 -1.647,1.6009 -1.647,1.6009 1.647,1.60089 1.647,1.60089 1.647,1.60089 0.0252,0.0245 0.0631,0.0429 0.10096,0.0429 0.0379,0 0.0757,-0.0184 0.10096,-0.0429 0.0568,-0.0552 0.0568,-0.14721 0,-0.20241 -0.41648,-0.40482 -0.41648,-0.40482 -0.41648,-0.40482 2.6314,0 2.6314,0 2.6314,0 0,-0.28215 0,-0.28215 0,-0.28215 -2.92166,0 -2.92166,0 -2.92166,0 -0.732,-0.71151 -0.732,-0.71151 -0.732,-0.71151 0.732,-0.71151 0.732,-0.71151 0.732,-0.71151 2.92166,0 2.92166,0 2.92166,0 0,-0.28215 0,-0.28215 0,-0.28215 -2.6314,0 -2.6314,0 -2.6314,0 z"
       fill-rule="evenodd"
       id="path49"
       style="stroke-width:0.264583" />
    <path
       fill="#54b7e3"
       d="m 160.78606,232.16127 c -0.3465,0 -0.3465,0 -0.3465,0 -0.0834,0 -0.14758,0.0598 -0.14758,0.1375 0,0.0777 0.0642,0.1375 0.14758,0.1375 0.3465,0 0.3465,0 0.3465,0 0.0834,0 0.14758,-0.0598 0.14758,-0.1375 0,-0.0777 -0.0642,-0.1375 -0.14758,-0.1375 z"
       fill-rule="evenodd"
       id="path51"
       style="stroke-width:0.264583" />
    <path
       fill="#54b7e3"
       d="m 160.78606,233.53623 c -0.3465,0 -0.3465,0 -0.3465,0 -0.0834,0 -0.14758,0.0664 -0.14758,0.15278 0,0.0864 0.0642,0.15277 0.14758,0.15277 0.3465,0 0.3465,0 0.3465,0 0.0834,0 0.14758,-0.0664 0.14758,-0.15277 0,-0.0864 -0.0642,-0.15278 -0.14758,-0.15278 z"
       fill-rule="evenodd"
       id="path53"
       style="stroke-width:0.264583" />
    <path
       fill="#54b7e3"
       d="m 161.64306,232.86402 c -0.34942,0 -0.34942,0 -0.34942,0 -0.0826,0 -0.14612,0.0598 -0.14612,0.13751 0,0.0777 0.0635,0.13749 0.14612,0.13749 0.34942,0 0.34942,0 0.34942,0 0.0762,0 0.14612,-0.0598 0.14612,-0.13749 0,-0.0777 -0.0699,-0.13751 -0.14612,-0.13751 z"
       fill-rule="evenodd"
       id="path55"
       style="stroke-width:0.264583" />
    <path
       fill="#54b7e3"
       d="m 162.03363,232.29877 c 0,0.0777 0.0611,0.1375 0.14055,0.1375 0.32999,0 0.32999,0 0.32999,0 0.0795,0 0.14055,-0.0598 0.14055,-0.1375 0,-0.0777 -0.0611,-0.1375 -0.14055,-0.1375 -0.32999,0 -0.32999,0 -0.32999,0 -0.0795,0 -0.14055,0.0598 -0.14055,0.1375 z"
       fill-rule="evenodd"
       id="path57"
       style="stroke-width:0.264583" />
    <path
       fill="#54b7e3"
       d="m 162.50417,233.53623 c -0.32999,0 -0.32999,0 -0.32999,0 -0.0795,0 -0.14055,0.0664 -0.14055,0.15278 0,0.0864 0.0611,0.15277 0.14055,0.15277 0.32999,0 0.32999,0 0.32999,0 0.0795,0 0.14056,-0.0664 0.14056,-0.15277 0,-0.0864 -0.0611,-0.15278 -0.14056,-0.15278 z"
       fill-rule="evenodd"
       id="path59"
       style="stroke-width:0.264583" />
  </g>
</svg>
