<?xml version="1.0" encoding="UTF-8" standalone="no"?>
<!-- Created with Inkscape (http://www.inkscape.org/) -->

<svg
   width="14.84961mm"
   height="14.13785mm"
   viewBox="0 0 14.84961 14.13785"
   version="1.1"
   id="svg292"
   inkscape:version="1.1 (c4e8f9e, 2021-05-24)"
   sodipodi:docname="cloud-network.svg"
   xmlns:inkscape="http://www.inkscape.org/namespaces/inkscape"
   xmlns:sodipodi="http://sodipodi.sourceforge.net/DTD/sodipodi-0.dtd"
   xmlns="http://www.w3.org/2000/svg"
   xmlns:svg="http://www.w3.org/2000/svg">
  <sodipodi:namedview
     id="namedview294"
     pagecolor="#ffffff"
     bordercolor="#666666"
     borderopacity="1.0"
     inkscape:pageshadow="2"
     inkscape:pageopacity="0.0"
     inkscape:pagecheckerboard="0"
     inkscape:document-units="mm"
     showgrid="false"
     inkscape:zoom="0.63250561"
     inkscape:cx="-192.88366"
     inkscape:cy="173.9115"
     inkscape:window-width="953"
     inkscape:window-height="932"
     inkscape:window-x="0"
     inkscape:window-y="28"
     inkscape:window-maximized="0"
     inkscape:current-layer="layer1" />
  <defs
     id="defs289" />
  <g
     inkscape:label="Layer 1"
     inkscape:groupmode="layer"
     id="layer1"
     transform="translate(-156.13435,-102.52827)">
    <path
       fill="#54b7e3"
       d="m 170.98396,109.89571 c 0,-0.43457 -0.14329,-0.84892 -0.41397,-1.19254 -0.27067,-0.33855 -0.63686,-0.58111 -1.07206,-0.70238 -0.0902,-0.0253 -0.0902,-0.0253 -0.0902,-0.0253 0.005,-0.091 0.005,-0.091 0.005,-0.091 0,-0.0303 0,-0.0556 0,-0.0859 0,-0.66701 -0.27067,-1.30371 -0.75893,-1.78881 -0.48827,-0.48005 -1.14106,-0.75797 -1.84161,-0.78324 -0.0849,-0.005 -0.0849,-0.005 -0.0849,-0.005 -0.0265,-0.0808 -0.0265,-0.0808 -0.0265,-0.0808 -0.12737,-0.37898 -0.31843,-0.73775 -0.56786,-1.06115 -0.24414,-0.31835 -0.53603,-0.59628 -0.86508,-0.82872 -0.33436,-0.23244 -0.70056,-0.4093 -1.09329,-0.53563 -0.40335,-0.12633 -0.81731,-0.18697 -1.24189,-0.18697 -1.00837,0 -1.96898,0.35878 -2.70668,1.01568 -0.7324,0.65186 -1.17821,1.5311 -1.25251,2.48109 -0.005,0.10106 -0.005,0.10106 -0.005,0.10106 -0.10615,0.0101 -0.10615,0.0101 -0.10615,0.0101 -0.74301,0.0657 -1.43294,0.39414 -1.93713,0.92472 -0.5095,0.53058 -0.79078,1.21781 -0.79078,1.93535 0,1.58669 1.35334,2.88029 3.01981,2.88029 2.08043,0 2.08043,0 2.08043,0 0,-0.36383 0,-0.36383 0,-0.36383 -2.08043,0 -2.08043,0 -2.08043,0 -1.45417,0 -2.63769,-1.12685 -2.63769,-2.51646 0,-0.61648 0.23883,-1.21275 0.66872,-1.67258 0.42988,-0.45479 1.01898,-0.74787 1.65585,-0.82366 0.12737,-0.0101 0.12737,-0.0101 0.12737,-0.0101 0.0106,0.12128 0.0106,0.12128 0.0106,0.12128 0.0212,0.27287 0.0743,0.54068 0.15921,0.80345 0.3609,-0.12128 0.3609,-0.12128 0.3609,-0.12128 -0.10085,-0.31835 -0.15392,-0.65186 -0.15392,-0.99041 0,-1.87977 1.60809,-3.41087 3.58769,-3.41087 0.73239,0 1.44356,0.21223 2.04858,0.61143 0.59972,0.3992 1.05083,0.95504 1.30558,1.60689 0.0478,0.13139 0.0478,0.13139 0.0478,0.13139 -0.1433,0.0253 -0.1433,0.0253 -0.1433,0.0253 -0.46173,0.0859 -0.89161,0.28297 -1.2472,0.57606 0.26006,0.26781 0.26006,0.26781 0.26006,0.26781 0.16452,-0.13643 0.34496,-0.24255 0.54134,-0.32845 0.23351,-0.10107 0.48295,-0.1617 0.7377,-0.18697 0.005,0 0.005,0 0.005,0 0.15921,-0.0101 0.15921,-0.0101 0.15921,-0.0101 0.0159,0 0.0371,0 0.0584,0 1.27904,0 2.32456,0.99547 2.32456,2.21328 0,0.0909 -0.005,0.18696 -0.0265,0.29813 -0.0212,0.17686 -0.0212,0.17686 -0.0212,0.17686 0.18575,0.0303 0.18575,0.0303 0.18575,0.0303 0.81732,0.11622 1.43296,0.80345 1.43296,1.59174 0,0.88935 -0.75893,1.617 -1.69301,1.617 -3.02511,0 -3.02511,0 -3.02511,0 0,0.36383 0,0.36383 0,0.36383 3.02511,0 3.02511,0 3.02511,0 1.14636,0 2.07512,-0.88935 2.07512,-1.98083 z"
       fill-rule="evenodd"
       id="path157"
       style="stroke-width:0.264583" />
    <path
       fill="#54b7e3"
       d="m 162.48313,111.08625 c 0,-1.38215 0,-1.38215 0,-1.38215 -0.38199,0 -0.38199,0 -0.38199,0 0,1.38215 0,1.38215 0,1.38215 0,0.43034 0.36607,0.78474 0.82234,0.78474 0.43504,0 0.43504,0 0.43504,0 0,2.33396 0,2.33396 0,2.33396 -5.97389,0 -5.97389,0 -5.97389,0 0,0.36453 0,0.36453 0,0.36453 12.32977,0 12.32977,0 12.32977,0 0,-0.36453 0,-0.36453 0,-0.36453 -5.97389,0 -5.97389,0 -5.97389,0 0,-2.33396 0,-2.33396 0,-2.33396 0.44035,0 0.44035,0 0.44035,0 0.45096,0 0.81703,-0.3544 0.81703,-0.78474 0,-1.38215 0,-1.38215 0,-1.38215 -0.38199,0 -0.38199,0 -0.38199,0 0,1.38215 0,1.38215 0,1.38215 0,0.23289 -0.1963,0.42022 -0.43504,0.42022 -0.44035,0 -0.44035,0 -0.44035,0 0,-2.39979 0,-2.39979 0,-2.39979 -0.38199,0 -0.38199,0 -0.38199,0 0,2.39979 0,2.39979 0,2.39979 -0.43504,0 -0.43504,0 -0.43504,0 -0.24406,0 -0.44035,-0.18733 -0.44035,-0.42022 z"
       fill-rule="evenodd"
       id="path159"
       style="stroke-width:0.264583" />
    <path
       fill="#54b7e3"
       d="m 165.63654,113.66542 v -0.65399 h -1.32723 v 0.36547 h 0.94252 v 0.28852 z"
       fill-rule="evenodd"
       id="path161"
       style="stroke-width:0.264583" />
    <path
       fill="#54b7e3"
       d="m 162.80897,113.01143 h -1.32723 v 0.65399 h 0.3847 v -0.28852 h 0.94253 z"
       fill-rule="evenodd"
       id="path163"
       style="stroke-width:0.264583" />
    <path
       fill="#54b7e3"
       d="m 161.48174,115.10807 v 0.654 h 1.88505 v 0.53859 h -0.63476 v 0.36546 h 1.65423 v -0.36546 h -0.63476 v -0.53859 h 1.88504 v -0.654 h -0.38469 v 0.28852 h -3.3854 v -0.28852 z"
       fill-rule="evenodd"
       id="path165"
       style="stroke-width:0.264583" />
    <path
       fill="#54b7e3"
       d="m 170.98392,115.76206 v -2.75063 h -4.1548 v 0.65399 h 0.3847 v -0.28852 h 3.38541 v 2.01969 h -3.38541 v -0.28853 h -0.3847 v 0.654 h 1.88506 v 0.53859 h -0.63477 v 0.36547 h 1.63499 v -0.36547 h -0.61553 v -0.53859 z"
       fill-rule="evenodd"
       id="path167"
       style="stroke-width:0.264583" />
    <path
       fill="#54b7e3"
       d="m 160.28916,113.66542 v -0.65399 h -4.15481 v 2.75063 h 1.88506 v 0.53859 h -0.63477 v 0.36547 h 1.65423 v -0.36547 h -0.63476 v -0.53859 h 1.88505 v -0.654 h -0.3847 v 0.28853 h -3.3854 v -2.01969 h 3.3854 v 0.28852 z"
       fill-rule="evenodd"
       id="path169"
       style="stroke-width:0.264583" />
    <path
       fill="#54b7e3"
       d="m 163.36679,107.9141 h 0.3853 v 0.36713 h -0.3853 z"
       fill-rule="evenodd"
       id="path171"
       style="stroke-width:0.264583" />
    <path
       fill="#54b7e3"
       d="m 163.36679,106.72152 h 0.3853 v 0.36713 h -0.3853 z"
       fill-rule="evenodd"
       id="path173"
       style="stroke-width:0.264583" />
    <path
       fill="#54b7e3"
       d="m 164.61708,108.51039 h 0.38531 v 0.36713 h -0.38531 z"
       fill-rule="evenodd"
       id="path175"
       style="stroke-width:0.264583" />
    <path
       fill="#54b7e3"
       d="m 162.1165,108.51039 h 0.36713 v 0.36713 h -0.36713 z"
       fill-rule="evenodd"
       id="path177"
       style="stroke-width:0.264583" />
  </g>
</svg>
