<?xml version="1.0" encoding="UTF-8" standalone="no"?>
<!-- Created with Inkscape (http://www.inkscape.org/) -->

<svg
   width="14.84951mm"
   height="11.752728mm"
   viewBox="0 0 14.84951 11.752728"
   version="1.1"
   id="svg292"
   inkscape:version="1.1 (c4e8f9e, 2021-05-24)"
   sodipodi:docname="cloud-check.svg"
   xmlns:inkscape="http://www.inkscape.org/namespaces/inkscape"
   xmlns:sodipodi="http://sodipodi.sourceforge.net/DTD/sodipodi-0.dtd"
   xmlns="http://www.w3.org/2000/svg"
   xmlns:svg="http://www.w3.org/2000/svg">
  <sodipodi:namedview
     id="namedview294"
     pagecolor="#ffffff"
     bordercolor="#666666"
     borderopacity="1.0"
     inkscape:pageshadow="2"
     inkscape:pageopacity="0.0"
     inkscape:pagecheckerboard="0"
     inkscape:document-units="mm"
     showgrid="false"
     inkscape:zoom="0.63250561"
     inkscape:cx="-200.78873"
     inkscape:cy="270.35333"
     inkscape:window-width="953"
     inkscape:window-height="932"
     inkscape:window-x="0"
     inkscape:window-y="28"
     inkscape:window-maximized="0"
     inkscape:current-layer="layer1" />
  <defs
     id="defs289" />
  <g
     inkscape:label="Layer 1"
     inkscape:groupmode="layer"
     id="layer1"
     transform="translate(-158.22599,-76.948988)">
    <path
       fill="#54b7e3"
       d="m 173.0755,84.321513 c 0,-0.434571 -0.14329,-0.848927 -0.41396,-1.192544 -0.27067,-0.338555 -0.64218,-0.581109 -1.07206,-0.702384 -0.0902,-0.02527 -0.0902,-0.02527 -0.0902,-0.02527 0,-0.09096 0,-0.09096 0,-0.09096 0.005,-0.03032 0.005,-0.06064 0.005,-0.0859 0,-0.672066 -0.27067,-1.303708 -0.75893,-1.788808 -0.48826,-0.48005 -1.14105,-0.763024 -1.8416,-0.788289 -0.0849,0 -0.0849,0 -0.0849,0 -0.0265,-0.08085 -0.0265,-0.08085 -0.0265,-0.08085 -0.13268,-0.378984 -0.32374,-0.737759 -0.56788,-1.061156 -0.24412,-0.318347 -0.53603,-0.59627 -0.86506,-0.828718 -0.33436,-0.232441 -0.70056,-0.409299 -1.0933,-0.53563 -0.40335,-0.126328 -0.82262,-0.192016 -1.24719,-0.192016 -1.00307,0 -1.96367,0.363821 -2.70137,1.020728 -0.73772,0.651854 -1.17821,1.531101 -1.25251,2.481091 -0.005,0.09601 -0.005,0.09601 -0.005,0.09601 -0.10614,0.01011 -0.10614,0.01011 -0.10614,0.01011 -0.74301,0.07074 -1.43294,0.399201 -1.93714,0.924724 -0.50948,0.53563 -0.79077,1.222859 -0.79077,1.940401 0,1.586685 1.35335,2.875238 3.01981,2.875238 0.82261,0 0.82261,0 0.82261,0 0,-0.358775 0,-0.358775 0,-0.358775 -0.82261,0 -0.82261,0 -0.82261,0 -1.45419,0 -2.63769,-1.131901 -2.63769,-2.516463 0,-0.616479 0.23882,-1.212752 0.66871,-1.672587 0.42988,-0.459833 1.01898,-0.752914 1.65586,-0.823659 0.12736,-0.01516 0.12736,-0.01516 0.12736,-0.01516 0.0106,0.121274 0.0106,0.121274 0.0106,0.121274 0.0213,0.272868 0.0743,0.545738 0.15923,0.803447 0.36088,-0.116221 0.36088,-0.116221 0.36088,-0.116221 -0.10083,-0.318346 -0.1539,-0.651854 -0.1539,-0.990414 0,-1.884821 1.60809,-3.415922 3.58237,-3.415922 0.7377,0 1.44888,0.212233 2.0539,0.616484 0.59972,0.399196 1.05082,0.95504 1.30026,1.6069 0.0531,0.131378 0.0531,0.131378 0.0531,0.131378 -0.14331,0.02527 -0.14331,0.02527 -0.14331,0.02527 -0.46171,0.0859 -0.89161,0.282977 -1.25249,0.576059 0.26536,0.262763 0.26536,0.262763 0.26536,0.262763 0.16453,-0.131384 0.34497,-0.242552 0.54133,-0.323403 0.23353,-0.10106 0.48296,-0.166754 0.73771,-0.186962 0.005,0 0.005,0 0.005,0 0.15921,-0.01011 0.15921,-0.01011 0.15921,-0.01011 0.0159,0 0.0371,0 0.0584,0 1.27904,0 2.32457,0.990415 2.32457,2.213274 0,0.09096 -0.0106,0.186968 -0.0265,0.298136 -0.0212,0.17686 -0.0212,0.17686 -0.0212,0.17686 0.18045,0.02527 0.18045,0.02527 0.18045,0.02527 0.8226,0.121277 1.43825,0.808501 1.43825,1.596792 0,0.889352 -0.75893,1.617001 -1.69832,1.617001 -1.76198,0 -1.76198,0 -1.76198,0 0,0.358775 0,0.358775 0,0.358775 1.76198,0 1.76198,0 1.76198,0 1.14637,0 2.08043,-0.884301 2.08043,-1.975776 z"
       fill-rule="evenodd"
       id="path79"
       style="stroke-width:0.264583" />
    <path
       fill="#54b7e3"
       d="m 165.64106,83.54667 c -1.48904,0 -2.70253,1.156224 -2.70253,2.574999 0,1.42382 1.21349,2.580047 2.70253,2.580047 1.48906,0 2.70255,-1.156227 2.70255,-2.580047 0,-1.418775 -1.21349,-2.574999 -2.70255,-2.574999 z m 0,4.791514 c -1.28238,0 -2.321,-0.994654 -2.321,-2.216515 0,-1.216814 1.03862,-2.211467 2.321,-2.211467 1.28238,0 2.32102,0.994653 2.32102,2.211467 0,1.221861 -1.03864,2.216515 -2.32102,2.216515 z"
       fill-rule="evenodd"
       id="path81"
       style="stroke-width:0.264583" />
    <path
       fill="#54b7e3"
       d="m 164.53505,86.085722 -0.2693,0.250058 0.9233,0.884822 1.82734,-1.731168 -0.2693,-0.269296 -1.55804,1.481111 z"
       fill-rule="evenodd"
       id="path83"
       style="stroke-width:0.264583" />
  </g>
</svg>
