<?xml version="1.0" encoding="UTF-8" standalone="no"?>
<!-- Created with Inkscape (http://www.inkscape.org/) -->

<svg
   width="210mm"
   height="297mm"
   viewBox="0 0 210 297"
   version="1.1"
   id="svg292"
   inkscape:version="1.1 (c4e8f9e, 2021-05-24)"
   sodipodi:docname="cloud-reload.svg"
   xmlns:inkscape="http://www.inkscape.org/namespaces/inkscape"
   xmlns:sodipodi="http://sodipodi.sourceforge.net/DTD/sodipodi-0.dtd"
   xmlns="http://www.w3.org/2000/svg"
   xmlns:svg="http://www.w3.org/2000/svg">
  <sodipodi:namedview
     id="namedview294"
     pagecolor="#ffffff"
     bordercolor="#666666"
     borderopacity="1.0"
     inkscape:pageshadow="2"
     inkscape:pageopacity="0.0"
     inkscape:pagecheckerboard="0"
     inkscape:document-units="mm"
     showgrid="false"
     inkscape:zoom="0.63250561"
     inkscape:cx="397.62493"
     inkscape:cy="561.25984"
     inkscape:window-width="1536"
     inkscape:window-height="932"
     inkscape:window-x="0"
     inkscape:window-y="28"
     inkscape:window-maximized="0"
     inkscape:current-layer="layer1" />
  <defs
     id="defs289" />
  <g
     inkscape:label="Layer 1"
     inkscape:groupmode="layer"
     id="layer1">
    <path
       fill="#54b7e3"
       d="m 164.16688,131.70837 c 0.0106,-0.10621 0.0106,-0.10621 0.0106,-0.10621 1.38531,0 1.38531,0 1.38531,0 1.14644,0 2.07527,-0.89008 2.07527,-1.98246 0,-0.43493 -0.1433,-0.84963 -0.41399,-1.19352 -0.27069,-0.33884 -0.63691,-0.58159 -1.07214,-0.70296 -0.0902,-0.0253 -0.0902,-0.0253 -0.0902,-0.0253 0.005,-0.091 0.005,-0.091 0.005,-0.091 0,-0.0303 0,-0.0556 0,-0.086 0,-0.66756 -0.27069,-1.30478 -0.75898,-1.79028 -0.48831,-0.48044 -1.14115,-0.7586 -1.84175,-0.78388 -0.0849,-0.005 -0.0849,-0.005 -0.0849,-0.005 -0.0265,-0.0809 -0.0265,-0.0809 -0.0265,-0.0809 -0.1274,-0.3793 -0.31848,-0.73836 -0.56793,-1.06203 -0.24415,-0.31861 -0.53607,-0.59676 -0.86514,-0.8294 -0.33438,-0.23263 -0.7006,-0.40964 -1.09338,-0.53607 -0.40338,-0.12643 -0.81737,-0.18712 -1.24198,-0.18712 -1.00846,0 -1.96914,0.35907 -2.7069,1.01652 -0.73245,0.65239 -1.17829,1.53236 -1.25261,2.48313 -0.005,0.10114 -0.005,0.10114 -0.005,0.10114 -0.10616,0.0101 -0.10616,0.0101 -0.10616,0.0101 -0.74306,0.0657 -1.43306,0.39446 -1.93729,0.92548 -0.50953,0.53101 -0.79084,1.2188 -0.79084,1.93694 0,1.58799 1.35345,2.88266 3.02005,2.88266 0.82269,0 0.82269,0 0.82269,0 0,-0.36413 0,-0.36413 0,-0.36413 -0.82269,0 -0.82269,0 -0.82269,0 -1.45429,0 -2.63789,-1.12777 -2.63789,-2.51853 0,-0.61699 0.23885,-1.21375 0.66876,-1.67396 0.42991,-0.45516 1.01906,-0.74848 1.65599,-0.82434 0.12738,-0.0101 0.12738,-0.0101 0.12738,-0.0101 0.0106,0.12138 0.0106,0.12138 0.0106,0.12138 0.0212,0.27309 0.0743,0.54112 0.15923,0.8041 0.36092,-0.12137 0.36092,-0.12137 0.36092,-0.12137 -0.10084,-0.31861 -0.15392,-0.65239 -0.15392,-0.99123 0,-1.88131 1.60821,-3.41367 3.58797,-3.41367 0.73245,0 1.44366,0.21241 2.04874,0.61193 0.59976,0.39953 1.05091,0.95583 1.30567,1.60822 0.0478,0.13149 0.0478,0.13149 0.0478,0.13149 -0.1433,0.0253 -0.1433,0.0253 -0.1433,0.0253 -0.46177,0.086 -0.89168,0.28321 -1.2473,0.57654 0.26008,0.26803 0.26008,0.26803 0.26008,0.26803 0.16454,-0.13655 0.34499,-0.24275 0.54138,-0.32872 0.23354,-0.10115 0.483,-0.16183 0.73776,-0.18712 0.005,0 0.005,0 0.005,0 0.15923,-0.0101 0.15923,-0.0101 0.15923,-0.0101 0.0159,0 0.0372,0 0.0584,0 1.27913,0 2.32474,0.99629 2.32474,2.21509 0,0.091 -0.005,0.18712 -0.0265,0.29838 -0.0213,0.17701 -0.0213,0.17701 -0.0213,0.17701 0.18578,0.0303 0.18578,0.0303 0.18578,0.0303 0.81737,0.11632 1.43305,0.80411 1.43305,1.59305 0,0.89009 -0.75898,1.61833 -1.69313,1.61833 -7.67486,0 -7.67486,0 -7.67486,0 0.0159,-0.13149 0.0159,-0.13149 0.0159,-0.13149 0.0743,-0.6271 0.35561,-1.19858 0.81738,-1.64867 0.56261,-0.55125 1.31629,-0.85469 2.12306,-0.85469 0.48831,0 0.48831,0 0.48831,0 -0.78553,0.57148 -0.78553,0.57148 -0.78553,0.57148 0.22821,0.29332 0.22821,0.29332 0.22821,0.29332 0.98723,-0.71813 0.98723,-0.71813 0.98723,-0.71813 0.11146,-0.086 0.18047,-0.2023 0.18047,-0.32873 0,-0.12643 -0.069,-0.24275 -0.18047,-0.32872 -0.98723,-0.71814 -0.98723,-0.71814 -0.98723,-0.71814 -0.22821,0.29333 -0.22821,0.29333 -0.22821,0.29333 0.78553,0.57147 0.78553,0.57147 0.78553,0.57147 -0.48831,0 -0.48831,0 -0.48831,0 -0.91292,0 -1.76213,0.3439 -2.39375,0.96088 -0.6316,0.62205 -0.97129,1.44133 -0.94476,2.31119 0.0478,1.65373 1.50207,3.03943 3.24297,3.08494 0.0265,0 0.0584,0 0.0955,0 0.87046,0 1.69844,-0.31861 2.32474,-0.90019 0.28661,-0.26298 0.52016,-0.57148 0.69,-0.91031 0.16985,-0.33884 0.27068,-0.70297 0.30784,-1.07721 z m -0.38747,0.0253 c -0.0372,0.31861 -0.13269,0.63216 -0.28129,0.92042 -0.14862,0.29333 -0.35032,0.55631 -0.59446,0.78389 -0.55731,0.51584 -1.27915,0.79904 -2.04876,0.79904 -0.0318,0 -0.0637,0 -0.0955,-0.005 -0.70591,-0.0152 -1.38528,-0.28321 -1.91073,-0.75353 -0.53077,-0.46527 -0.86516,-1.08226 -0.94478,-1.74477 -0.0159,-0.13149 -0.0159,-0.13149 -0.0159,-0.13149 5.9074,0 5.9074,0 5.9074,0 z"
       fill-rule="evenodd"
       id="path193"
       style="stroke-width:0.264583" />
  </g>
</svg>
