<?xml version="1.0" encoding="UTF-8" standalone="no"?>
<!-- Created with Inkscape (http://www.inkscape.org/) -->

<svg
   width="210mm"
   height="297mm"
   viewBox="0 0 210 297"
   version="1.1"
   id="svg292"
   inkscape:version="1.1 (c4e8f9e, 2021-05-24)"
   sodipodi:docname="cloud-connections.svg"
   xmlns:inkscape="http://www.inkscape.org/namespaces/inkscape"
   xmlns:sodipodi="http://sodipodi.sourceforge.net/DTD/sodipodi-0.dtd"
   xmlns="http://www.w3.org/2000/svg"
   xmlns:svg="http://www.w3.org/2000/svg">
  <sodipodi:namedview
     id="namedview294"
     pagecolor="#ffffff"
     bordercolor="#666666"
     borderopacity="1.0"
     inkscape:pageshadow="2"
     inkscape:pageopacity="0.0"
     inkscape:pagecheckerboard="0"
     inkscape:document-units="mm"
     showgrid="false"
     inkscape:zoom="0.63250561"
     inkscape:cx="397.62493"
     inkscape:cy="561.25984"
     inkscape:window-width="1536"
     inkscape:window-height="932"
     inkscape:window-x="0"
     inkscape:window-y="28"
     inkscape:window-maximized="0"
     inkscape:current-layer="layer1" />
  <defs
     id="defs289" />
  <g
     inkscape:label="Layer 1"
     inkscape:groupmode="layer"
     id="layer1">
    <path
       fill="#54b7e3"
       d="m 48.899383,91.778057 c -0.605277,0.752395 -0.605277,0.752395 -0.605277,0.752395 0,-8.195582 0,-8.195582 0,-8.195582 -0.382275,0 -0.382275,0 -0.382275,0 0,8.195582 0,8.195582 0,8.195582 -0.59998,-0.752395 -0.59998,-0.752395 -0.59998,-0.752395 -0.30263,0.222184 -0.30263,0.222184 -0.30263,0.222184 0.753943,0.939236 0.753943,0.939236 0.753943,0.939236 0.08494,0.106042 0.20706,0.16664 0.339804,0.16664 0.132729,0 0.26016,-0.0606 0.345118,-0.16664 0.753943,-0.939236 0.753943,-0.939236 0.753943,-0.939236 z"
       fill-rule="evenodd"
       id="path129"
       style="stroke-width:0.264583" />
    <path
       fill="#54b7e3"
       d="m 53.085885,89.888061 c -0.985033,-0.718637 -0.985033,-0.718637 -0.985033,-0.718637 -0.23303,0.288467 -0.23303,0.288467 -0.23303,0.288467 0.789099,0.571876 0.789099,0.571876 0.789099,0.571876 -2.65326,0 -2.65326,0 -2.65326,0 -0.243607,0 -0.439558,-0.187248 -0.439558,-0.414988 0,-2.398832 0,-2.398832 0,-2.398832 0,-0.232799 0.195951,-0.42005 0.439558,-0.42005 0.503118,0 0.503118,0 0.503118,0 0,-0.364379 0,-0.364379 0,-0.364379 -0.503118,0 -0.503118,0 -0.503118,0 -0.450152,0 -0.820865,0.349195 -0.820865,0.784429 0,2.398832 0,2.398832 0,2.398832 0,0.43017 0.370713,0.779369 0.820865,0.779369 2.65326,0 2.65326,0 2.65326,0 -0.789099,0.576935 -0.789099,0.576935 -0.789099,0.576935 0.23303,0.288462 0.23303,0.288462 0.23303,0.288462 0.985033,-0.718637 0.985033,-0.718637 0.985033,-0.718637 0.111217,-0.08097 0.174762,-0.202431 0.174762,-0.328952 0,-0.126518 -0.06354,-0.242919 -0.174762,-0.323895 z"
       fill-rule="evenodd"
       id="path131"
       style="stroke-width:0.264583" />
    <path
       fill="#54b7e3"
       d="m 51.375608,86.431516 h 0.385312 v 0.367133 h -0.385312 z"
       fill-rule="evenodd"
       id="path133"
       style="stroke-width:0.264583" />
    <path
       fill="#54b7e3"
       d="m 43.634545,90.394146 c 2.593123,0 2.593123,0 2.593123,0 0.452604,0 0.820007,-0.3492 0.820007,-0.77937 0,-2.398832 0,-2.398832 0,-2.398832 0,-0.435231 -0.367403,-0.784428 -0.820007,-0.784428 -0.511159,0 -0.511159,0 -0.511159,0 0,0.364379 0,0.364379 0,0.364379 0.511159,0 0.511159,0 0.511159,0 0.239617,0 0.436634,0.18725 0.436634,0.420049 0,2.398832 0,2.398832 0,2.398832 0,0.22774 -0.197017,0.414991 -0.436634,0.414991 -2.593123,0 -2.593123,0 -2.593123,0 0.793379,-0.571876 0.793379,-0.571876 0.793379,-0.571876 -0.234288,-0.28847 -0.234288,-0.28847 -0.234288,-0.28847 -0.990396,0.718638 -0.990396,0.718638 -0.990396,0.718638 -0.111813,0.08097 -0.175715,0.197376 -0.175715,0.323895 0,0.126523 0.0639,0.247983 0.175715,0.328954 0.990396,0.718637 0.990396,0.718637 0.990396,0.718637 0.234288,-0.288465 0.234288,-0.288465 0.234288,-0.288465 z"
       fill-rule="evenodd"
       id="path135"
       style="stroke-width:0.264583" />
    <path
       fill="#54b7e3"
       d="m 44.450933,86.431516 h 0.385312 v 0.367133 h -0.385312 z"
       fill-rule="evenodd"
       id="path137"
       style="stroke-width:0.264583" />
    <path
       fill="#54b7e3"
       d="m 55.530442,86.605016 c 0,-0.434567 -0.143307,-0.848926 -0.413962,-1.192538 -0.265356,-0.338561 -0.636879,-0.581109 -1.07206,-0.702389 -0.09022,-0.02527 -0.09022,-0.02527 -0.09022,-0.02527 0.0053,-0.09095 0.0053,-0.09095 0.0053,-0.09095 0,-0.03032 0,-0.06064 0,-0.0859 0,-0.667012 -0.270656,-1.303708 -0.758934,-1.788808 -0.488262,-0.48005 -1.141047,-0.757971 -1.841603,-0.788292 -0.08491,0 -0.08491,0 -0.08491,0 -0.02653,-0.08085 -0.02653,-0.08085 -0.02653,-0.08085 -0.127381,-0.378987 -0.318439,-0.737757 -0.567875,-1.06116 -0.238826,-0.318346 -0.530717,-0.59627 -0.865079,-0.828712 -0.334346,-0.232444 -0.700556,-0.409305 -1.093279,-0.535635 -0.398055,-0.126328 -0.817311,-0.186963 -1.241899,-0.186963 -1.008369,0 -1.968984,0.358773 -2.706682,1.01568 -0.732401,0.651854 -1.178205,1.531101 -1.252508,2.481091 -0.0053,0.10106 -0.0053,0.10106 -0.0053,0.10106 -0.106146,0.0051 -0.106146,0.0051 -0.106146,0.0051 -0.74301,0.07075 -1.427641,0.399198 -1.937138,0.924722 -0.509498,0.535635 -0.790779,1.222862 -0.790779,1.940406 0,1.586685 1.353341,2.880286 3.019808,2.880286 2.08043,0 2.08043,0 2.08043,0 0,-0.363826 0,-0.363826 0,-0.363826 -2.08043,0 -2.08043,0 -2.08043,0 -1.454173,0 -2.637694,-1.131903 -2.637694,-2.51646 0,-0.616484 0.238826,-1.212752 0.674023,-1.672587 0.424585,-0.459835 1.013682,-0.747863 1.650545,-0.823664 0.127381,-0.01516 0.127381,-0.01516 0.127381,-0.01516 0.01061,0.126328 0.01061,0.126328 0.01061,0.126328 0.02125,0.267817 0.0743,0.54069 0.15921,0.798396 0.360894,-0.116223 0.360894,-0.116223 0.360894,-0.116223 -0.100832,-0.318347 -0.153913,-0.651854 -0.153913,-0.99041 0,-1.884822 1.60809,-3.415921 3.587684,-3.415921 0.737714,0 1.443564,0.212233 2.048584,0.616484 0.59972,0.399196 1.05084,0.95504 1.305589,1.606894 0.04775,0.131384 0.04775,0.131384 0.04775,0.131384 -0.14329,0.02527 -0.14329,0.02527 -0.14329,0.02527 -0.461727,0.08591 -0.891612,0.282977 -1.247193,0.576062 0.260045,0.26276 0.260045,0.26276 0.260045,0.26276 0.164524,-0.131382 0.344972,-0.242552 0.541343,-0.3234 0.233511,-0.101063 0.482963,-0.166754 0.737696,-0.186968 0.0053,0 0.0053,0 0.0053,0 0.159213,-0.01011 0.159213,-0.01011 0.159213,-0.01011 0.02125,0 0.03716,0 0.05838,0 1.284354,0 2.324569,0.990415 2.324569,2.213271 0,0.09096 -0.0053,0.186968 -0.02122,0.298138 -0.02655,0.176858 -0.02655,0.176858 -0.02655,0.176858 0.185758,0.02527 0.185758,0.02527 0.185758,0.02527 0.833234,0.126328 1.438254,0.793342 1.438254,1.596789 0,0.889352 -0.76423,1.617004 -1.698315,1.617004 -3.025106,0 -3.025106,0 -3.025106,0 0,0.363826 0,0.363826 0,0.363826 3.025106,0 3.025106,0 3.025106,0 1.146363,0 2.075132,-0.88935 2.075132,-1.98083 z"
       fill-rule="evenodd"
       id="path139"
       style="stroke-width:0.264583" />
  </g>
</svg>
