<?xml version="1.0" encoding="UTF-8" standalone="no"?>
<!-- Created with Inkscape (http://www.inkscape.org/) -->

<svg
   width="12.45586mm"
   height="9.6769924mm"
   viewBox="0 0 12.45586 9.6769924"
   version="1.1"
   id="svg624"
   sodipodi:docname="company.svg"
   inkscape:version="1.1 (c4e8f9e, 2021-05-24)"
   xmlns:inkscape="http://www.inkscape.org/namespaces/inkscape"
   xmlns:sodipodi="http://sodipodi.sourceforge.net/DTD/sodipodi-0.dtd"
   xmlns="http://www.w3.org/2000/svg"
   xmlns:svg="http://www.w3.org/2000/svg">
  <sodipodi:namedview
     id="namedview626"
     pagecolor="#ffffff"
     bordercolor="#666666"
     borderopacity="1.0"
     inkscape:pageshadow="2"
     inkscape:pageopacity="0.0"
     inkscape:pagecheckerboard="0"
     inkscape:document-units="mm"
     showgrid="false"
     inkscape:zoom="0.63250561"
     inkscape:cx="-226.08495"
     inkscape:cy="267.19131"
     inkscape:window-width="953"
     inkscape:window-height="932"
     inkscape:window-x="0"
     inkscape:window-y="28"
     inkscape:window-maximized="0"
     inkscape:current-layer="layer1" />
  <defs
     id="defs621" />
  <g
     inkscape:label="Layer 1"
     inkscape:groupmode="layer"
     id="layer1"
     transform="translate(-164.8608,-77.986856)">
    <path
       fill="#54b7e3"
       d="m 176.24338,79.345518 c -2.85271,0 -2.85271,0 -2.85271,0 0,-0.554554 0,-0.554554 0,-0.554554 0,-0.443642 -0.39543,-0.804108 -0.84734,-0.804108 -2.93744,0 -2.93744,0 -2.93744,0 -0.5084,0 -0.84733,0.360466 -0.84733,0.804108 0,0.554554 0,0.554554 0,0.554554 -2.82445,0 -2.82445,0 -2.82445,0 -0.6214,0 -1.07331,0.471379 -1.07331,1.02593 0,1.74685 0,1.74685 0,1.74685 0,4.519628 0,4.519628 0,4.519628 0,0.58228 0.45191,1.025922 1.07331,1.025922 10.30927,0 10.30927,0 10.30927,0 0.56488,0 1.07328,-0.443642 1.07328,-1.025922 0,-4.519628 0,-4.519628 0,-4.519628 0,-1.74685 0,-1.74685 0,-1.74685 0,-0.554551 -0.5084,-1.02593 -1.07328,-1.02593 z m -7.0894,-0.554554 c 0,-0.221821 0.22596,-0.388186 0.45191,-0.388186 2.93744,0 2.93744,0 2.93744,0 0.22595,0 0.39542,0.166365 0.39542,0.388186 0,0.554554 0,0.554554 0,0.554554 -3.78477,0 -3.78477,0 -3.78477,0 0,-0.554554 0,-0.554554 0,-0.554554 z m 7.71077,7.846962 c 0,0.305004 -0.28244,0.58228 -0.62137,0.58228 -10.30927,0 -10.30927,0 -10.30927,0 -0.33895,0 -0.67789,-0.277276 -0.67789,-0.58228 0,-3.549155 0,-3.549155 0,-3.549155 0.33894,0.277278 0.79086,0.61001 1.5817,0.859557 0.90383,0.277278 2.09011,0.443643 3.33286,0.4991 0,0.720926 0,0.720926 0,0.720926 0,0.08318 0.11298,0.138636 0.22596,0.138636 1.35574,0 1.35574,0 1.35574,0 0.11298,0 0.16947,-0.05545 0.16947,-0.138636 0,-0.720926 0,-0.720926 0,-0.720926 2.11835,-0.05546 4.09547,-0.4991 4.9428,-1.358657 z m -6.24206,-1.691393 c 0,-0.443651 0,-0.443651 0,-0.443651 0,-0.443643 0,-0.443643 0,-0.443643 0,-0.360458 0,-0.360458 0,-0.360458 0.90384,0 0.90384,0 0.90384,0 0,0.360458 0,0.360458 0,0.360458 0,0.443643 0,0.443643 0,0.443643 0,0.443651 0,0.443651 0,0.443651 -0.90384,0 -0.90384,0 -0.90384,0 z m 6.24206,-2.828235 c 0,1.136841 -2.37254,1.774576 -4.9428,1.940941 0,-0.582279 0,-0.582279 0,-0.582279 0,-0.110911 -0.0565,-0.166367 -0.16947,-0.166367 -1.35575,0 -1.35575,0 -1.35575,0 -0.11297,0 -0.22595,0.05546 -0.22595,0.166367 0,0.582279 0,0.582279 0,0.582279 -2.48552,-0.166365 -4.91456,-0.8041 -4.91456,-1.940941 0,-1.74685 0,-1.74685 0,-1.74685 0,-0.332732 0.33894,-0.610016 0.67789,-0.610016 2.82445,0 2.82445,0 2.82445,0 0.39542,0 0.39542,0 0.39542,0 3.78477,0 3.78477,0 3.78477,0 0.45192,0 0.45192,0 0.45192,0 2.85271,0 2.85271,0 2.85271,0 0.33893,0 0.62137,0.277284 0.62137,0.610016 z"
       fill-rule="evenodd"
       id="path169"
       style="stroke-width:0.264583" />
  </g>
</svg>
