<?xml version="1.0" encoding="UTF-8" standalone="no"?>
<!-- Created with Inkscape (http://www.inkscape.org/) -->

<svg
   width="210mm"
   height="297mm"
   viewBox="0 0 210 297"
   version="1.1"
   id="svg624"
   sodipodi:docname="connection-points.svg"
   inkscape:version="1.1 (c4e8f9e, 2021-05-24)"
   xmlns:inkscape="http://www.inkscape.org/namespaces/inkscape"
   xmlns:sodipodi="http://sodipodi.sourceforge.net/DTD/sodipodi-0.dtd"
   xmlns="http://www.w3.org/2000/svg"
   xmlns:svg="http://www.w3.org/2000/svg">
  <sodipodi:namedview
     id="namedview626"
     pagecolor="#ffffff"
     bordercolor="#666666"
     borderopacity="1.0"
     inkscape:pageshadow="2"
     inkscape:pageopacity="0.0"
     inkscape:pagecheckerboard="0"
     inkscape:document-units="mm"
     showgrid="false"
     inkscape:zoom="0.63250561"
     inkscape:cx="397.62493"
     inkscape:cy="561.25984"
     inkscape:window-width="1536"
     inkscape:window-height="932"
     inkscape:window-x="0"
     inkscape:window-y="28"
     inkscape:window-maximized="0"
     inkscape:current-layer="layer1" />
  <defs
     id="defs621" />
  <g
     inkscape:label="Layer 1"
     inkscape:groupmode="layer"
     id="layer1">
    <path
       fill="#54b7e3"
       d="m 151.71369,56.084286 c -0.73488,0 -1.32844,0.499366 -1.4415,1.192934 -5.85076,0 -5.85076,0 -5.85076,0 -0.90447,0 -0.93273,-0.832281 -0.93273,-0.943252 0,-1.192935 0,-1.192935 0,-1.192935 0,-0.887765 0.84794,-0.915509 0.93273,-0.915509 2.20464,0 2.20464,0 2.20464,0 0.11306,0.665824 0.73487,1.192935 1.44149,1.192935 0.73488,0 1.32843,-0.527111 1.46976,-1.192935 2.03504,0 2.03504,0 2.03504,0 1.18711,0 1.49802,-0.943253 1.49802,-1.470358 0,-1.19294 0,-1.19294 0,-1.19294 0,-1.137447 -0.96099,-1.442617 -1.49802,-1.442617 -5.68117,0 -5.68117,0 -5.68117,0 -0.14132,-0.693566 -0.73488,-1.192932 -1.46976,-1.192932 -0.81967,0 -1.46976,0.638077 -1.46976,1.442614 0,0.80454 0.65009,1.470366 1.46976,1.470366 0.73488,0 1.32844,-0.527113 1.46976,-1.192935 5.68117,0 5.68117,0 5.68117,0 0.11306,0 0.961,0.02774 0.961,0.915504 0,1.19294 0,1.19294 0,1.19294 0,0.110969 -0.0283,0.943247 -0.961,0.943247 -2.03504,0 -2.03504,0 -2.03504,0 -0.14133,-0.693565 -0.73488,-1.192934 -1.46976,-1.192934 -0.70662,0 -1.32843,0.499369 -1.44149,1.192934 -2.20464,0 -2.20464,0 -2.20464,0 -0.50876,0 -1.46976,0.305171 -1.46976,1.44262 0,1.192935 0,1.192935 0,1.192935 0,0.499366 0.31092,1.470361 1.46976,1.470361 5.85076,0 5.85076,0 5.85076,0 0.11306,0.665826 0.70662,1.192937 1.4415,1.192937 0.81967,0 1.49802,-0.665827 1.49802,-1.470364 0,-0.804537 -0.67835,-1.442616 -1.49802,-1.442616 z m -7.29226,-4.771742 c -0.50876,0 -0.93273,-0.41614 -0.93273,-0.943253 0,-0.499367 0.42397,-0.915509 0.93273,-0.915509 0.53702,0 0.961,0.416142 0.961,0.915509 0,0.527113 -0.42398,0.943253 -0.961,0.943253 z m 3.64613,1.720045 c 0.53702,0 0.961,0.416142 0.961,0.915509 0,0.527113 -0.42398,0.94325 -0.961,0.94325 -0.50876,0 -0.93274,-0.416137 -0.93274,-0.94325 0,-0.499367 0.42398,-0.915509 0.93274,-0.915509 z m 3.64613,5.437566 c -0.50876,0 -0.93274,-0.416142 -0.93274,-0.943253 0,-0.499369 0.42398,-0.915508 0.93274,-0.915508 0.53702,0 0.96099,0.416139 0.96099,0.915508 0,0.527111 -0.42397,0.943253 -0.96099,0.943253 z"
       fill-rule="evenodd"
       id="path71"
       style="stroke-width:0.264583" />
    <path
       fill="#54b7e3"
       d="m 151.57568,57.694161 -0.29169,-0.253029 -0.19024,0.189775 0.44388,0.480756 0.82435,-0.784397 -0.20291,-0.189772 z"
       fill-rule="evenodd"
       id="path73"
       style="stroke-width:0.264583" />
    <path
       fill="#54b7e3"
       d="m 148.69679,53.721591 -0.20292,-0.189773 -0.59607,0.581973 -0.25364,-0.278334 -0.22829,0.189772 0.48193,0.480759 z"
       fill-rule="evenodd"
       id="path75"
       style="stroke-width:0.264583" />
    <path
       fill="#54b7e3"
       d="m 144.28332,50.508113 -0.279,-0.278334 -0.20292,0.21508 0.45656,0.455453 0.7863,-0.784397 -0.19023,-0.189772 z"
       fill-rule="evenodd"
       id="path77"
       style="stroke-width:0.264583" />
  </g>
</svg>
