<?xml version="1.0" encoding="UTF-8" standalone="no"?>
<!-- Created with Inkscape (http://www.inkscape.org/) -->

<svg
   width="8.6658897mm"
   height="9.5006704mm"
   viewBox="0 0 8.6658897 9.5006704"
   version="1.1"
   id="svg624"
   sodipodi:docname="copy.svg"
   inkscape:version="1.1 (c4e8f9e, 2021-05-24)"
   xmlns:inkscape="http://www.inkscape.org/namespaces/inkscape"
   xmlns:sodipodi="http://sodipodi.sourceforge.net/DTD/sodipodi-0.dtd"
   xmlns="http://www.w3.org/2000/svg"
   xmlns:svg="http://www.w3.org/2000/svg">
  <sodipodi:namedview
     id="namedview626"
     pagecolor="#ffffff"
     bordercolor="#666666"
     borderopacity="1.0"
     inkscape:pageshadow="2"
     inkscape:pageopacity="0.0"
     inkscape:pagecheckerboard="0"
     inkscape:document-units="mm"
     showgrid="false"
     inkscape:zoom="0.63250561"
     inkscape:cx="3.1620273"
     inkscape:cy="63.240546"
     inkscape:window-width="953"
     inkscape:window-height="932"
     inkscape:window-x="0"
     inkscape:window-y="28"
     inkscape:window-maximized="0"
     inkscape:current-layer="layer1" />
  <defs
     id="defs621" />
  <g
     inkscape:label="Layer 1"
     inkscape:groupmode="layer"
     id="layer1"
     transform="translate(-104.00923,-131.61867)">
    <path
       fill="#54b7e3"
       d="m 110.02187,133.07206 c -3.89942,0 -3.89942,0 -3.89942,0 -0.0218,0 -0.0218,0 -0.0436,0.0214 0,0 0,0 0,0 -0.0218,0 -0.0218,0 -0.0436,0 0,0 0,0 0,0 -0.0218,0.0214 -0.0436,0.0214 -0.0436,0.0428 -1.93882,1.88341 -1.93882,1.88341 -1.93882,1.88341 0,0.0214 -0.0218,0.0428 -0.0218,0.0428 0,0 0,0 0,0.0214 -0.0218,0.0214 -0.0218,0.0428 -0.0218,0.0642 0,5.3506 0,5.3506 0,5.3506 0,0.34244 0.30499,0.62067 0.67532,0.62067 5.33719,0 5.33719,0 5.33719,0 0.39212,0 0.6971,-0.27823 0.6971,-0.62067 0,-6.78456 0,-6.78456 0,-6.78456 0,-0.34244 -0.30498,-0.64207 -0.6971,-0.64207 z m -4.09548,0.59926 c 0,1.02732 0,1.02732 0,1.02732 0,0.14982 -0.1307,0.27823 -0.32676,0.27823 -0.9803,0 -0.9803,0 -0.9803,0 z m 4.44403,6.82737 c 0,0.14982 -0.15249,0.27823 -0.34855,0.27823 -5.33719,0 -5.33719,0 -5.33719,0 -0.17427,0 -0.32676,-0.12841 -0.32676,-0.27823 0,-5.17938 0,-5.17938 0,-5.17938 1.24171,0 1.24171,0 1.24171,0 0.39212,0 0.6971,-0.27823 0.6971,-0.62068 0,-1.26273 0,-1.26273 0,-1.26273 3.72514,0 3.72514,0 3.72514,0 0.19606,0 0.34855,0.12841 0.34855,0.27823 z"
       fill-rule="evenodd"
       id="path445"
       style="stroke-width:0.264583" />
    <path
       fill="#54b7e3"
       d="m 109.25369,136.28123 c -3.59322,0 -3.59322,0 -3.59322,0 -0.0871,0 -0.17421,0.0853 -0.17421,0.1707 0,0.10669 0.0871,0.1707 0.17421,0.1707 3.59322,0 3.59322,0 3.59322,0 0.0871,0 0.17422,-0.064 0.17422,-0.1707 0,-0.0854 -0.0871,-0.1707 -0.17422,-0.1707 z"
       fill-rule="evenodd"
       id="path447"
       style="stroke-width:0.264583" />
    <path
       fill="#54b7e3"
       d="m 109.25369,137.22739 c -3.59322,0 -3.59322,0 -3.59322,0 -0.0871,0 -0.17421,0.064 -0.17421,0.1707 0,0.0854 0.0871,0.1707 0.17421,0.1707 3.59322,0 3.59322,0 3.59322,0 0.0871,0 0.17422,-0.0853 0.17422,-0.1707 0,-0.10669 -0.0871,-0.1707 -0.17422,-0.1707 z"
       fill-rule="evenodd"
       id="path449"
       style="stroke-width:0.264583" />
    <path
       fill="#54b7e3"
       d="m 109.25369,138.16381 c -3.59322,0 -3.59322,0 -3.59322,0 -0.0871,0 -0.17421,0.064 -0.17421,0.1707 0,0.0854 0.0871,0.1707 0.17421,0.1707 3.59322,0 3.59322,0 3.59322,0 0.0871,0 0.17422,-0.0854 0.17422,-0.1707 0,-0.1067 -0.0871,-0.1707 -0.17422,-0.1707 z"
       fill-rule="evenodd"
       id="path451"
       style="stroke-width:0.264583" />
    <path
       fill="#54b7e3"
       d="m 111.99962,131.61867 c -5.07719,0 -5.07719,0 -5.07719,0 -0.37044,0 -0.65371,0.27798 -0.65371,0.62011 0,0.29937 0,0.29937 0,0.29937 0,0.0855 0.0654,0.17108 0.17432,0.17108 0.0872,0 0.17432,-0.0855 0.17432,-0.17108 0,-0.29937 0,-0.29937 0,-0.29937 0,-0.14968 0.13075,-0.25659 0.30507,-0.25659 5.07719,0 5.07719,0 5.07719,0 0.17432,0 0.30507,0.10691 0.30507,0.25659 0,6.43641 0,6.43641 0,6.43641 0,0.14968 -0.13075,0.27799 -0.30507,0.27799 -0.78446,0 -0.78446,0 -0.78446,0 -0.0872,0 -0.17432,0.0641 -0.17432,0.17106 0,0.0855 0.0872,0.17107 0.17432,0.17107 0.78446,0 0.78446,0 0.78446,0 0.37044,0 0.6755,-0.27798 0.6755,-0.62012 0,-6.43641 0,-6.43641 0,-6.43641 0,-0.34213 -0.30506,-0.62011 -0.6755,-0.62011 z"
       fill-rule="evenodd"
       id="path453"
       style="stroke-width:0.264583" />
  </g>
</svg>
