<?xml version="1.0" encoding="UTF-8" standalone="no"?>
<!-- Created with Inkscape (http://www.inkscape.org/) -->

<svg
   width="14.391727mm"
   height="10.866041mm"
   viewBox="0 0 14.391727 10.866041"
   version="1.1"
   id="svg926"
   inkscape:version="1.1 (c4e8f9e, 2021-05-24)"
   sodipodi:docname="device.svg"
   xmlns:inkscape="http://www.inkscape.org/namespaces/inkscape"
   xmlns:sodipodi="http://sodipodi.sourceforge.net/DTD/sodipodi-0.dtd"
   xmlns="http://www.w3.org/2000/svg"
   xmlns:svg="http://www.w3.org/2000/svg">
  <sodipodi:namedview
     id="namedview928"
     pagecolor="#ffffff"
     bordercolor="#666666"
     borderopacity="1.0"
     inkscape:pageshadow="2"
     inkscape:pageopacity="0.0"
     inkscape:pagecheckerboard="0"
     inkscape:document-units="mm"
     showgrid="false"
     inkscape:zoom="0.63250561"
     inkscape:cx="273.51536"
     inkscape:cy="303.55462"
     inkscape:window-width="953"
     inkscape:window-height="932"
     inkscape:window-x="0"
     inkscape:window-y="28"
     inkscape:window-maximized="0"
     inkscape:current-layer="layer1" />
  <defs
     id="defs923" />
  <g
     inkscape:label="Layer 1"
     inkscape:groupmode="layer"
     id="layer1"
     transform="translate(-32.543576,-68.189515)">
    <path
       fill="#54b7e3"
       d="m 39.985098,75.905588 c -0.167206,0 -0.303437,0.124537 -0.303437,0.271717 0,0.152842 0.136231,0.277378 0.303437,0.277378 0.16719,0 0.303438,-0.124536 0.303438,-0.277378 0,-0.14718 -0.136248,-0.271717 -0.303438,-0.271717 z m 0,0.345308 c -0.04334,0 -0.0805,-0.02831 -0.0805,-0.07359 0,-0.03962 0.03716,-0.06793 0.0805,-0.06793 0.04334,0 0.0805,0.02831 0.0805,0.06793 0,0.04529 -0.03716,0.07359 -0.0805,0.07359 z"
       fill-rule="evenodd"
       id="path577"
       style="stroke-width:0.264583" />
    <path
       fill="#54b7e3"
       d="m 45.740511,75.327603 c -11.504676,0 -11.504676,0 -11.504676,0 -0.103918,0 -0.189508,0.07959 -0.189508,0.176242 0,0.09664 0.08559,0.170548 0.189508,0.170548 11.504676,0 11.504676,0 11.504676,0 0.103917,0 0.183388,-0.07391 0.183388,-0.170548 0,-0.09665 -0.07947,-0.176242 -0.183388,-0.176242 z"
       fill-rule="evenodd"
       id="path579"
       style="stroke-width:0.264583" />
    <path
       fill="#54b7e3"
       d="m 46.109948,68.189515 c -12.741018,0 -12.741018,0 -12.741018,0 -0.452411,0 -0.825354,0.355021 -0.825354,0.785707 0,7.269247 0,7.269247 0,7.269247 0,0.430684 0.372943,0.779889 0.825354,0.779889 4.456914,0 4.456914,0 4.456914,0 0,0.174601 0,0.459785 -0.06114,0.739145 -0.06726,0.308464 -0.311801,0.587827 -0.672504,0.762429 -0.122278,0.06402 -0.189537,0.186242 -0.15897,0.308461 0.03669,0.128043 0.165076,0.221163 0.32403,0.221163 5.453462,0 5.453462,0 5.453462,0 0.152831,0 0.287335,-0.09312 0.317905,-0.221163 0.03057,-0.122219 -0.03057,-0.244443 -0.158951,-0.308461 -0.36072,-0.174602 -0.605261,-0.453965 -0.672521,-0.762429 -0.05502,-0.27936 -0.06112,-0.564544 -0.05502,-0.739145 3.967813,0 3.967813,0 3.967813,0 0.452411,0 0.825355,-0.349205 0.825355,-0.779889 0,-7.269247 0,-7.269247 0,-7.269247 0,-0.430686 -0.372944,-0.785707 -0.825355,-0.785707 z m -4.279617,9.643827 c 0.06726,0.337566 0.287354,0.640207 0.611381,0.86137 -4.921549,0 -4.921549,0 -4.921549,0 0.324027,-0.221163 0.544121,-0.523804 0.617485,-0.86137 0.06112,-0.308459 0.06724,-0.616923 0.06112,-0.808984 3.564316,0 3.564316,0 3.564316,0 -0.0061,0.192061 0,0.500525 0.06724,0.808984 z m 4.725924,-1.588873 c 0,0.232804 -0.201766,0.424865 -0.446307,0.424865 -12.741018,0 -12.741018,0 -12.741018,0 -0.244544,0 -0.446307,-0.192061 -0.446307,-0.424865 0,-7.269247 0,-7.269247 0,-7.269247 0,-0.232801 0.201763,-0.424865 0.446307,-0.424865 12.741018,0 12.741018,0 12.741018,0 0.244541,0 0.446307,0.192064 0.446307,0.424865 z"
       fill-rule="evenodd"
       id="path581"
       style="stroke-width:0.264583" />
  </g>
</svg>
