<?xml version="1.0" encoding="UTF-8" standalone="no"?>
<!-- Created with Inkscape (http://www.inkscape.org/) -->

<svg
   width="12.1249mm"
   height="12.00846mm"
   viewBox="0 0 12.1249 12.00846"
   version="1.1"
   id="svg624"
   sodipodi:docname="expand.svg"
   inkscape:version="1.1 (c4e8f9e, 2021-05-24)"
   xmlns:inkscape="http://www.inkscape.org/namespaces/inkscape"
   xmlns:sodipodi="http://sodipodi.sourceforge.net/DTD/sodipodi-0.dtd"
   xmlns="http://www.w3.org/2000/svg"
   xmlns:svg="http://www.w3.org/2000/svg">
  <sodipodi:namedview
     id="namedview626"
     pagecolor="#ffffff"
     bordercolor="#666666"
     borderopacity="1.0"
     inkscape:pageshadow="2"
     inkscape:pageopacity="0.0"
     inkscape:pagecheckerboard="0"
     inkscape:document-units="mm"
     showgrid="false"
     inkscape:zoom="0.63250561"
     inkscape:cx="-31.620273"
     inkscape:cy="0"
     inkscape:window-width="953"
     inkscape:window-height="932"
     inkscape:window-x="0"
     inkscape:window-y="28"
     inkscape:window-maximized="0"
     inkscape:current-layer="layer1" />
  <defs
     id="defs621" />
  <g
     inkscape:label="Layer 1"
     inkscape:groupmode="layer"
     id="layer1"
     transform="translate(-113.15586,-148.35211)">
    <path
       fill="#54b7e3"
       d="m 117.97921,149.59952 0.19959,0.14969 0.89813,-0.8815 v 2.46157 h 0.29939 v -2.46157 l 0.88152,0.91477 0.19958,-0.18296 -1.24742,-1.24741 z"
       fill-rule="evenodd"
       id="path279"
       style="stroke-width:0.264583" />
    <path
       fill="#54b7e3"
       d="m 119.07692,153.14219 h 0.29938 v -0.28275 h -0.29938 z"
       fill-rule="evenodd"
       id="path281"
       style="stroke-width:0.264583" />
    <path
       fill="#54b7e3"
       d="m 119.07692,152.52681 h 0.29938 v -0.29938 h -0.29938 z"
       fill-rule="evenodd"
       id="path283"
       style="stroke-width:0.264583" />
    <path
       fill="#54b7e3"
       d="m 119.37631,151.61202 h -0.29938 v 0.29939 h 0.29938 z"
       fill-rule="evenodd"
       id="path285"
       style="stroke-width:0.264583" />
    <path
       fill="#54b7e3"
       d="m 114.5696,153.34178 -0.18295,-0.19959 -1.23079,1.21416 1.23079,1.21414 0.18295,-0.19958 -0.88151,-0.88151 h 2.44495 v -0.26611 h -2.44495 z"
       fill-rule="evenodd"
       id="path287"
       style="stroke-width:0.264583" />
    <path
       fill="#54b7e3"
       d="m 117.97921,154.22328 h -0.2661 v 0.26611 h 0.2661 z"
       fill-rule="evenodd"
       id="path289"
       style="stroke-width:0.264583" />
    <path
       fill="#54b7e3"
       d="m 117.34718,154.22328 h -0.2661 v 0.26611 h 0.2661 z"
       fill-rule="evenodd"
       id="path291"
       style="stroke-width:0.264583" />
    <path
       fill="#54b7e3"
       d="m 116.46569,154.48939 h 0.29937 v -0.26611 h -0.29937 z"
       fill-rule="evenodd"
       id="path293"
       style="stroke-width:0.264583" />
    <path
       fill="#54b7e3"
       d="m 119.37632,159.84497 v -2.46157 h -0.29938 v 2.46157 l -0.89814,-0.91477 -0.19959,0.18296 1.23079,1.24741 1.24742,-1.24741 -0.19958,-0.18296 z"
       fill-rule="evenodd"
       id="path295"
       style="stroke-width:0.264583" />
    <path
       fill="#54b7e3"
       d="m 119.37631,155.5705 h -0.29938 v 0.28275 h 0.29938 z"
       fill-rule="evenodd"
       id="path297"
       style="stroke-width:0.264583" />
    <path
       fill="#54b7e3"
       d="m 119.07692,157.10064 h 0.29938 v -0.29937 h -0.29938 z"
       fill-rule="evenodd"
       id="path299"
       style="stroke-width:0.264583" />
    <path
       fill="#54b7e3"
       d="m 119.37631,156.18588 h -0.29938 v 0.29938 h 0.29938 z"
       fill-rule="evenodd"
       id="path301"
       style="stroke-width:0.264583" />
    <path
       fill="#54b7e3"
       d="m 124.0666,153.14219 -0.19958,0.19959 0.8815,0.88151 h -2.44492 v 0.26611 h 2.44492 l -0.8815,0.88151 0.19958,0.19958 1.21416,-1.21414 z"
       fill-rule="evenodd"
       id="path303"
       style="stroke-width:0.264583" />
    <path
       fill="#54b7e3"
       d="m 121.08943,154.48939 h 0.2661 v -0.26611 h -0.2661 z"
       fill-rule="evenodd"
       id="path305"
       style="stroke-width:0.264583" />
    <path
       fill="#54b7e3"
       d="m 121.98756,154.22328 h -0.2661 v 0.26611 h 0.2661 z"
       fill-rule="evenodd"
       id="path307"
       style="stroke-width:0.264583" />
    <path
       fill="#54b7e3"
       d="m 120.72352,154.22328 h -0.2661 v 0.26611 h 0.2661 z"
       fill-rule="evenodd"
       id="path309"
       style="stroke-width:0.264583" />
    <path
       fill="#54b7e3"
       d="m 118.37838,155.17132 h 1.67986 v -1.62995 h -1.67986 z m 0.26612,-1.36383 h 1.14762 v 1.09772 h -1.14762 z"
       fill-rule="evenodd"
       id="path311"
       style="stroke-width:0.264583" />
  </g>
</svg>
