<?xml version="1.0" encoding="UTF-8" standalone="no"?>
<!-- Created with Inkscape (http://www.inkscape.org/) -->

<svg
   width="210mm"
   height="297mm"
   viewBox="0 0 210 297"
   version="1.1"
   id="svg624"
   sodipodi:docname="file.svg"
   inkscape:version="1.1 (c4e8f9e, 2021-05-24)"
   xmlns:inkscape="http://www.inkscape.org/namespaces/inkscape"
   xmlns:sodipodi="http://sodipodi.sourceforge.net/DTD/sodipodi-0.dtd"
   xmlns="http://www.w3.org/2000/svg"
   xmlns:svg="http://www.w3.org/2000/svg">
  <sodipodi:namedview
     id="namedview626"
     pagecolor="#ffffff"
     bordercolor="#666666"
     borderopacity="1.0"
     inkscape:pageshadow="2"
     inkscape:pageopacity="0.0"
     inkscape:pagecheckerboard="0"
     inkscape:document-units="mm"
     showgrid="false"
     inkscape:zoom="0.63250561"
     inkscape:cx="397.62493"
     inkscape:cy="561.25984"
     inkscape:window-width="1536"
     inkscape:window-height="932"
     inkscape:window-x="0"
     inkscape:window-y="28"
     inkscape:window-maximized="0"
     inkscape:current-layer="layer1" />
  <defs
     id="defs621" />
  <g
     inkscape:label="Layer 1"
     inkscape:groupmode="layer"
     id="layer1">
    <path
       fill="#54b7e3"
       d="m 153.7793,81.593316 c -4.05606,0 -4.05606,0 -4.05606,0 -0.0218,0 -0.0218,0 -0.0218,0 -0.0218,0 -0.0218,0.02138 -0.0436,0.02138 0,0 -0.0218,0 -0.0218,0 -0.0218,0 -0.0218,0.02138 -0.0436,0.04278 0,0 0,0 0,0 -2.00623,1.946426 -2.00623,1.946426 -2.00623,1.946426 0,0.02138 -0.0218,0.04278 -0.0218,0.06417 0,0 -0.0218,0 -0.0218,0 0,0.02138 0,0.04278 0,0.06417 0,0 0,0 0,0 0,5.518428 0,5.518428 0,5.518428 0,0.363616 0.30529,0.663074 0.69781,0.663074 5.53893,0 5.53893,0 5.53893,0 0.37072,0 0.69782,-0.299458 0.69782,-0.663074 0,-6.994293 0,-6.994293 0,-6.994293 0,-0.363616 -0.3271,-0.663064 -0.69782,-0.663064 z m -4.23052,0.598897 c 0,1.069467 0,1.069467 0,1.069467 0,0.171114 -0.17446,0.29945 -0.37071,0.29945 -1.04673,0 -1.04673,0 -1.04673,0 z m 4.57943,7.058459 c 0,0.171114 -0.15265,0.320839 -0.34891,0.320839 -5.53893,0 -5.53893,0 -5.53893,0 -0.19625,0 -0.3489,-0.149725 -0.3489,-0.320839 0,-5.347314 0,-5.347314 0,-5.347314 1.2866,0 1.2866,0 1.2866,0 0.39252,0 0.71962,-0.29945 0.71962,-0.641678 0,-1.326136 0,-1.326136 0,-1.326136 3.88161,0 3.88161,0 3.88161,0 0.19626,0 0.34891,0.149722 0.34891,0.320836 z"
       fill-rule="evenodd"
       id="path509"
       style="stroke-width:0.264583" />
    <path
       fill="#54b7e3"
       d="m 152.97245,84.909778 c -3.72961,0 -3.72961,0 -3.72961,0 -0.0872,0 -0.17448,0.08535 -0.17448,0.170701 0,0.106688 0.0872,0.170701 0.17448,0.170701 3.72961,0 3.72961,0 3.72961,0 0.0872,0 0.17449,-0.06401 0.17449,-0.170701 0,-0.08535 -0.0873,-0.170701 -0.17449,-0.170701 z"
       fill-rule="evenodd"
       id="path511"
       style="stroke-width:0.264583" />
    <path
       fill="#54b7e3"
       d="m 152.97245,85.875457 c -3.72961,0 -3.72961,0 -3.72961,0 -0.0872,0 -0.17448,0.08535 -0.17448,0.170701 0,0.106688 0.0872,0.170701 0.17448,0.170701 3.72961,0 3.72961,0 3.72961,0 0.0872,0 0.17449,-0.06401 0.17449,-0.170701 0,-0.08536 -0.0873,-0.170701 -0.17449,-0.170701 z"
       fill-rule="evenodd"
       id="path513"
       style="stroke-width:0.264583" />
    <path
       fill="#54b7e3"
       d="m 152.97245,86.860635 c -3.72961,0 -3.72961,0 -3.72961,0 -0.0872,0 -0.17448,0.06401 -0.17448,0.170702 0,0.08535 0.0872,0.170701 0.17448,0.170701 3.72961,0 3.72961,0 3.72961,0 0.0872,0 0.17449,-0.08535 0.17449,-0.170701 0,-0.106688 -0.0873,-0.170702 -0.17449,-0.170702 z"
       fill-rule="evenodd"
       id="path515"
       style="stroke-width:0.264583" />
  </g>
</svg>
