<?xml version="1.0" encoding="UTF-8" standalone="no"?>
<!-- Created with Inkscape (http://www.inkscape.org/) -->

<svg
   width="210mm"
   height="297mm"
   viewBox="0 0 210 297"
   version="1.1"
   id="svg1164"
   inkscape:version="1.1 (c4e8f9e, 2021-05-24)"
   sodipodi:docname="gears.svg"
   xmlns:inkscape="http://www.inkscape.org/namespaces/inkscape"
   xmlns:sodipodi="http://sodipodi.sourceforge.net/DTD/sodipodi-0.dtd"
   xmlns="http://www.w3.org/2000/svg"
   xmlns:svg="http://www.w3.org/2000/svg">
  <sodipodi:namedview
     id="namedview1166"
     pagecolor="#ffffff"
     bordercolor="#666666"
     borderopacity="1.0"
     inkscape:pageshadow="2"
     inkscape:pageopacity="0.0"
     inkscape:pagecheckerboard="0"
     inkscape:document-units="mm"
     showgrid="false"
     inkscape:zoom="0.63250561"
     inkscape:cx="397.62493"
     inkscape:cy="561.25984"
     inkscape:window-width="1536"
     inkscape:window-height="932"
     inkscape:window-x="0"
     inkscape:window-y="28"
     inkscape:window-maximized="0"
     inkscape:current-layer="layer1" />
  <defs
     id="defs1161" />
  <g
     inkscape:label="Layer 1"
     inkscape:groupmode="layer"
     id="layer1">
    <path
       fill="#54b7e3"
       d="m 75.17298,101.36695 c -0.07533,0 -0.143799,-0.0133 -0.21227,-0.0533 -0.362905,-0.2065 -0.362905,-0.2065 -0.362905,-0.2065 -0.09586,-0.0533 -0.164338,-0.1399 -0.191728,-0.24648 -0.02739,-0.10658 -0.01371,-0.21317 0.04108,-0.30643 0.130103,-0.21983 0.130103,-0.21983 0.130103,-0.21983 -0.171185,-0.18652 -0.294433,-0.406356 -0.3766,-0.646169 -0.267044,0 -0.267044,0 -0.267044,0 -0.225964,0 -0.417684,-0.179859 -0.417684,-0.406352 0,-0.406348 0,-0.406348 0,-0.406348 0,-0.226496 0.19172,-0.406355 0.417684,-0.406355 0.267044,0 0.267044,0 0.267044,0 0.08217,-0.239818 0.205415,-0.459644 0.3766,-0.646165 -0.130103,-0.219834 -0.130103,-0.219834 -0.130103,-0.219834 -0.05478,-0.09326 -0.06847,-0.199843 -0.04108,-0.306425 0.02739,-0.106582 0.09587,-0.193191 0.191728,-0.24648 0.362905,-0.206505 0.362905,-0.206505 0.362905,-0.206505 0.09586,-0.05329 0.21227,-0.06661 0.321823,-0.03997 0.109556,0.02665 0.198575,0.09326 0.253352,0.19318 0.130095,0.219835 0.130095,0.219835 0.130095,0.219835 0.253352,-0.04663 0.513551,-0.04663 0.760048,0 0.130103,-0.219835 0.130103,-0.219835 0.130103,-0.219835 0.116401,-0.199842 0.3766,-0.266456 0.575167,-0.153212 0.362914,0.206505 0.362914,0.206505 0.362914,0.206505 0.198567,0.10659 0.267038,0.359724 0.150637,0.552905 -0.130095,0.219834 -0.130095,0.219834 -0.130095,0.219834 0.171177,0.186521 0.301273,0.406347 0.383447,0.646165 0.260191,0 0.260191,0 0.260191,0 0.23281,0 0.41769,0.179859 0.41769,0.406355 0,0.406348 0,0.406348 0,0.406348 0,0.226493 -0.18488,0.406352 -0.41769,0.406352 -0.260191,0 -0.260191,0 -0.260191,0 -0.08217,0.239813 -0.21227,0.459651 -0.383447,0.646171 0.130095,0.21983 0.130095,0.21983 0.130095,0.21983 0.116401,0.19318 0.04793,0.44632 -0.150637,0.55291 -0.362914,0.2065 -0.362914,0.2065 -0.362914,0.2065 -0.198567,0.11324 -0.458766,0.0466 -0.575167,-0.15321 -0.130103,-0.21984 -0.130103,-0.21984 -0.130103,-0.21984 -0.246497,0.0533 -0.506696,0.0533 -0.760048,0 -0.130095,0.21984 -0.130095,0.21984 -0.130095,0.21984 -0.07533,0.13323 -0.219115,0.2065 -0.362905,0.2065 z m -1.239362,-2.591329 c -0.05478,0 -0.102708,0.03997 -0.102708,0.09993 0,0.406348 0,0.406348 0,0.406348 0,0.05995 0.04793,0.09992 0.102708,0.09992 0.499849,0 0.499849,0 0.499849,0 0.03424,0.113253 0.03424,0.113253 0.03424,0.113253 0.07532,0.266456 0.219109,0.512938 0.417684,0.706118 0.08216,0.0866 0.08216,0.0866 0.08216,0.0866 -0.246504,0.41301 -0.246504,0.41301 -0.246504,0.41301 -0.01371,0.0267 -0.02053,0.0533 -0.01371,0.0799 0.0069,0.0267 0.02739,0.0533 0.04793,0.0666 0.362905,0.19985 0.362905,0.19985 0.362905,0.19985 0.05478,0.0266 0.116409,0.0133 0.143799,-0.04 0.253352,-0.41301 0.253352,-0.41301 0.253352,-0.41301 0.1164,0.0266 0.1164,0.0266 0.1164,0.0266 0.273892,0.0666 0.561481,0.0666 0.835364,0 0.116411,-0.0266 0.116411,-0.0266 0.116411,-0.0266 0.246505,0.41301 0.246505,0.41301 0.246505,0.41301 0.02739,0.0533 0.09586,0.0666 0.14379,0.04 0.362905,-0.19985 0.362905,-0.19985 0.362905,-0.19985 0.04793,-0.0333 0.06847,-0.0933 0.04108,-0.14655 -0.253352,-0.41301 -0.253352,-0.41301 -0.253352,-0.41301 0.08902,-0.0866 0.08902,-0.0866 0.08902,-0.0866 0.198567,-0.19318 0.342363,-0.439662 0.417682,-0.706118 0.02739,-0.113253 0.02739,-0.113253 0.02739,-0.113253 0.499848,0 0.499848,0 0.499848,0 0.06163,0 0.109561,-0.03997 0.109561,-0.09992 0,-0.406348 0,-0.406348 0,-0.406348 0,-0.05996 -0.04793,-0.09993 -0.109561,-0.09993 -0.499848,0 -0.499848,0 -0.499848,0 -0.02739,-0.113244 -0.02739,-0.113244 -0.02739,-0.113244 -0.07532,-0.266457 -0.219115,-0.512935 -0.417682,-0.706118 -0.08902,-0.0866 -0.08902,-0.0866 -0.08902,-0.0866 0.253352,-0.413014 0.253352,-0.413014 0.253352,-0.413014 0.02739,-0.05329 0.0069,-0.113245 -0.04108,-0.146553 -0.362905,-0.19985 -0.362905,-0.19985 -0.362905,-0.19985 -0.04793,-0.02665 -0.116403,-0.01331 -0.14379,0.03998 -0.246505,0.41301 -0.246505,0.41301 -0.246505,0.41301 -0.116411,-0.02665 -0.116411,-0.02665 -0.116411,-0.02665 -0.273883,-0.06661 -0.561472,-0.06661 -0.835364,0 -0.1164,0.02665 -0.1164,0.02665 -0.1164,0.02665 -0.253352,-0.41301 -0.253352,-0.41301 -0.253352,-0.41301 -0.01371,-0.02665 -0.03424,-0.04664 -0.06162,-0.0533 -0.02739,-0.0067 -0.05478,0 -0.08218,0.01331 -0.362905,0.199851 -0.362905,0.199851 -0.362905,0.199851 -0.02053,0.01333 -0.04108,0.03997 -0.04793,0.06661 -0.0069,0.02665 0,0.05329 0.01371,0.07328 0.246504,0.419677 0.246504,0.419677 0.246504,0.419677 -0.08216,0.0866 -0.08216,0.0866 -0.08216,0.0866 -0.198575,0.193183 -0.342365,0.439661 -0.417684,0.706117 -0.03424,0.113245 -0.03424,0.113245 -0.03424,0.113245 z"
       fill-rule="evenodd"
       id="path503"
       style="stroke-width:0.264583" />
    <path
       fill="#54b7e3"
       d="m 79.27726,98.377148 c -0.08241,0 -0.171688,-0.01995 -0.254095,-0.0665 -0.480719,-0.26602 -0.480719,-0.26602 -0.480719,-0.26602 -0.11675,-0.06651 -0.199157,-0.172916 -0.233498,-0.299281 -0.0412,-0.126357 -0.02058,-0.259366 0.04807,-0.379079 0.192286,-0.319223 0.192286,-0.319223 0.192286,-0.319223 -0.240361,-0.259368 -0.418909,-0.565293 -0.535659,-0.897821 -0.384578,0 -0.384578,0 -0.384578,0 -0.281564,0 -0.50819,-0.219464 -0.50819,-0.492138 0,-0.538695 0,-0.538695 0,-0.538695 0,-0.272666 0.226626,-0.492138 0.50819,-0.492138 0.384578,0 0.384578,0 0.384578,0 0.11675,-0.33252 0.295298,-0.638445 0.535659,-0.897821 -0.192286,-0.319222 -0.192286,-0.319222 -0.192286,-0.319222 -0.06867,-0.11306 -0.08928,-0.246068 -0.04807,-0.372425 0.03434,-0.133012 0.116748,-0.23277 0.233498,-0.299281 0.480719,-0.272664 0.480719,-0.272664 0.480719,-0.272664 0.247224,-0.133011 0.556265,-0.0532 0.700481,0.17956 0.192286,0.325876 0.192286,0.325876 0.192286,0.325876 0.350237,-0.07315 0.714216,-0.07315 1.064453,0 0.192294,-0.325876 0.192294,-0.325876 0.192294,-0.325876 0.06867,-0.113059 0.178549,-0.192868 0.309034,-0.226118 0.130481,-0.03325 0.267829,-0.01995 0.384577,0.04656 0.480719,0.272664 0.480719,0.272664 0.480719,0.272664 0.123613,0.06651 0.20602,0.166269 0.24036,0.299281 0.03434,0.126357 0.02061,0.259365 -0.04807,0.372425 -0.192285,0.319222 -0.192285,0.319222 -0.192285,0.319222 0.24036,0.259376 0.418912,0.565301 0.528796,0.897821 0.384577,0 0.384577,0 0.384577,0 0.281564,0 0.50819,0.219472 0.50819,0.492138 0,0.538695 0,0.538695 0,0.538695 0,0.272674 -0.226626,0.492138 -0.50819,0.492138 -0.384577,0 -0.384577,0 -0.384577,0 -0.109884,0.332528 -0.288436,0.638453 -0.528796,0.897821 0.192285,0.319223 0.192285,0.319223 0.192285,0.319223 0.06867,0.119713 0.08242,0.252722 0.04807,0.379079 -0.03434,0.126365 -0.116747,0.23277 -0.24036,0.299281 -0.480719,0.26602 -0.480719,0.26602 -0.480719,0.26602 -0.240361,0.139655 -0.556266,0.05985 -0.693611,-0.179568 -0.192294,-0.325877 -0.192294,-0.325877 -0.192294,-0.325877 -0.350237,0.07316 -0.714216,0.07316 -1.064453,0 -0.192286,0.325877 -0.192286,0.325877 -0.192286,0.325877 -0.09615,0.159615 -0.267835,0.246068 -0.446386,0.246068 z m -1.648188,-3.44497 c -0.103013,0 -0.192294,0.08646 -0.192294,0.186213 0,0.538695 0,0.538695 0,0.538695 0,0.106413 0.08928,0.186213 0.192294,0.186213 0.624938,0 0.624938,0 0.624938,0 0.03434,0.11306 0.03434,0.11306 0.03434,0.11306 0.09614,0.365778 0.295298,0.698309 0.569991,0.957675 0.08242,0.08646 0.08242,0.08646 0.08242,0.08646 -0.309041,0.518734 -0.309041,0.518734 -0.309041,0.518734 -0.02747,0.04656 -0.03433,0.09976 -0.02061,0.146317 0.01373,0.04655 0.04807,0.08645 0.08928,0.113057 0.480722,0.272666 0.480722,0.272666 0.480722,0.272666 0.09614,0.04656 0.212889,0.01995 0.26783,-0.07315 0.30903,-0.525389 0.30903,-0.525389 0.30903,-0.525389 0.11675,0.03325 0.11675,0.03325 0.11675,0.03325 0.377706,0.0931 0.769155,0.0931 1.139997,0 0.116742,-0.03325 0.116742,-0.03325 0.116742,-0.03325 0.315905,0.525389 0.315905,0.525389 0.315905,0.525389 0.05494,0.09311 0.171686,0.119713 0.260964,0.07315 0.487593,-0.272666 0.487593,-0.272666 0.487593,-0.272666 0.0412,-0.0266 0.07554,-0.06651 0.08927,-0.113057 0.01373,-0.04656 0.0069,-0.09976 -0.02061,-0.146317 -0.309041,-0.518734 -0.309041,-0.518734 -0.309041,-0.518734 0.08241,-0.08646 0.08241,-0.08646 0.08241,-0.08646 0.267829,-0.259366 0.466987,-0.591897 0.569992,-0.957675 0.02748,-0.11306 0.02748,-0.11306 0.02748,-0.11306 0.624937,0 0.624937,0 0.624937,0 0.109877,0 0.199158,-0.0798 0.199158,-0.186213 0,-0.538695 0,-0.538695 0,-0.538695 0,-0.09975 -0.08928,-0.186213 -0.199158,-0.186213 -0.624937,0 -0.624937,0 -0.624937,0 -0.02748,-0.113057 -0.02748,-0.113057 -0.02748,-0.113057 -0.103005,-0.359127 -0.302163,-0.691658 -0.569992,-0.957678 -0.08241,-0.0798 -0.08241,-0.0798 -0.08241,-0.0798 0.309041,-0.525393 0.309041,-0.525393 0.309041,-0.525393 0.02747,-0.04655 0.03433,-0.09311 0.02061,-0.139658 -0.01373,-0.05321 -0.04807,-0.09311 -0.08927,-0.119711 -0.487593,-0.26602 -0.487593,-0.26602 -0.487593,-0.26602 -0.0412,-0.02661 -0.09614,-0.03325 -0.144217,-0.01995 -0.04807,0.01331 -0.08928,0.04655 -0.116747,0.08645 -0.315905,0.525397 -0.315905,0.525397 -0.315905,0.525397 -0.116742,-0.03326 -0.116742,-0.03326 -0.116742,-0.03326 -0.370842,-0.09311 -0.762291,-0.09311 -1.139997,0 -0.11675,0.03326 -0.11675,0.03326 -0.11675,0.03326 -0.30903,-0.525397 -0.30903,-0.525397 -0.30903,-0.525397 -0.05494,-0.08645 -0.171688,-0.119703 -0.26783,-0.0665 -0.480722,0.26602 -0.480722,0.26602 -0.480722,0.26602 -0.04121,0.0266 -0.07554,0.0665 -0.08928,0.119711 -0.01373,0.04655 -0.0069,0.09311 0.02061,0.139657 0.309041,0.525394 0.309041,0.525394 0.309041,0.525394 -0.08242,0.0798 -0.08242,0.0798 -0.08242,0.0798 -0.274693,0.26602 -0.466987,0.598551 -0.569991,0.957678 -0.03434,0.113056 -0.03434,0.113056 -0.03434,0.113056 z"
       fill-rule="evenodd"
       id="path505"
       style="stroke-width:0.264583" />
    <path
       fill="#54b7e3"
       d="m 75.353145,94.078039 c -0.06193,0.0067 -0.123862,-0.0067 -0.178906,-0.0333 -0.378449,-0.179842 -0.378449,-0.179842 -0.378449,-0.179842 -0.103214,-0.04663 -0.178904,-0.126561 -0.21331,-0.233135 -0.04129,-0.09991 -0.03441,-0.213148 0.01376,-0.313052 0.110096,-0.226473 0.110096,-0.226473 0.110096,-0.226473 -0.178906,-0.173181 -0.330285,-0.379669 -0.433501,-0.612794 -0.254596,0.01998 -0.254596,0.01998 -0.254596,0.01998 -0.116974,0.01331 -0.227068,-0.01998 -0.309639,-0.09325 -0.08946,-0.07327 -0.13762,-0.17318 -0.151378,-0.279755 -0.02752,-0.406307 -0.02752,-0.406307 -0.02752,-0.406307 -0.01376,-0.106574 0.02752,-0.213148 0.09633,-0.293076 0.07569,-0.08659 0.178906,-0.139875 0.289001,-0.146535 0.261475,-0.01998 0.261475,-0.01998 0.261475,-0.01998 0.06881,-0.239794 0.178903,-0.466256 0.330285,-0.666083 -0.151382,-0.206489 -0.151382,-0.206489 -0.151382,-0.206489 -0.06193,-0.09325 -0.08258,-0.199826 -0.06193,-0.306392 0.02064,-0.106575 0.08257,-0.206486 0.172027,-0.266441 0.344046,-0.226462 0.344046,-0.226462 0.344046,-0.226462 0.09633,-0.06661 0.20643,-0.08659 0.316523,-0.06661 0.116975,0.01998 0.213305,0.07993 0.275236,0.17318 0.144499,0.206486 0.144499,0.206486 0.144499,0.206486 0.247716,-0.06661 0.509191,-0.0866 0.763786,-0.05995 0.116975,-0.226465 0.116975,-0.226465 0.116975,-0.226465 0.09633,-0.206486 0.350922,-0.293076 0.557353,-0.193164 0.378449,0.17318 0.378449,0.17318 0.378449,0.17318 0.103217,0.04662 0.178906,0.133213 0.220192,0.233127 0.0344,0.106575 0.02752,0.213149 -0.02064,0.313061 -0.110093,0.226464 -0.110093,0.226464 -0.110093,0.226464 0.185785,0.179851 0.330285,0.386329 0.433502,0.612802 0.261474,-0.01998 0.261474,-0.01998 0.261474,-0.01998 0.227068,-0.01998 0.433499,0.153196 0.454139,0.373007 0.0344,0.406315 0.0344,0.406315 0.0344,0.406315 0.0069,0.106566 -0.02752,0.213141 -0.103214,0.299731 -0.07569,0.07994 -0.172019,0.13322 -0.289002,0.139882 -0.261475,0.01998 -0.261475,0.01998 -0.261475,0.01998 -0.06192,0.239787 -0.172018,0.466257 -0.330284,0.666076 0.151378,0.213151 0.151378,0.213151 0.151378,0.213151 0.06193,0.08659 0.08946,0.199823 0.06881,0.3064 -0.02064,0.106574 -0.08257,0.199824 -0.178906,0.259771 -0.344043,0.233132 -0.344043,0.233132 -0.344043,0.233132 -0.09634,0.05994 -0.206431,0.07993 -0.316527,0.05994 -0.110095,-0.01998 -0.206422,-0.07993 -0.268353,-0.166518 -0.151379,-0.213148 -0.151379,-0.213148 -0.151379,-0.213148 -0.247716,0.07326 -0.509191,0.08659 -0.763786,0.05994 -0.110096,0.233132 -0.110096,0.233132 -0.110096,0.233132 -0.07569,0.146537 -0.22707,0.226465 -0.385328,0.226465 z M 74.486143,92.15972 c 0.04129,0.113236 0.04129,0.113236 0.04129,0.113236 0.09634,0.253111 0.261475,0.486244 0.474784,0.666086 0.09634,0.07993 0.09634,0.07993 0.09634,0.07993 -0.220189,0.432954 -0.220189,0.432954 -0.220189,0.432954 -0.0069,0.02664 -0.01376,0.05329 0,0.07993 0.0069,0.02665 0.02752,0.04663 0.05504,0.05995 0.378457,0.17318 0.378457,0.17318 0.378457,0.17318 0.04816,0.02664 0.116975,0 0.137613,-0.04663 0.220191,-0.439613 0.220191,-0.439613 0.220191,-0.439613 0.116983,0.01998 0.116983,0.01998 0.116983,0.01998 0.282112,0.05328 0.571114,0.02664 0.839468,-0.05996 0.110095,-0.03996 0.110095,-0.03996 0.110095,-0.03996 0.28212,0.399653 0.28212,0.399653 0.28212,0.399653 0.02064,0.01998 0.04129,0.03996 0.06881,0.03996 0.02752,0.0067 0.06193,0 0.08257,-0.01331 0.344054,-0.233127 0.344054,-0.233127 0.344054,-0.233127 0.02752,-0.01331 0.04128,-0.03997 0.04816,-0.06661 0,-0.02664 0,-0.05328 -0.02064,-0.07327 -0.282112,-0.399645 -0.282112,-0.399645 -0.282112,-0.399645 0.07569,-0.09325 0.07569,-0.09325 0.07569,-0.09325 0.185785,-0.206486 0.309639,-0.459597 0.364691,-0.732689 0.02064,-0.113236 0.02064,-0.113236 0.02064,-0.113236 0.502312,-0.03997 0.502312,-0.03997 0.502312,-0.03997 0.02752,0 0.05504,-0.01331 0.06881,-0.0333 0.02064,-0.01998 0.02752,-0.04663 0.02752,-0.07328 -0.0344,-0.406305 -0.0344,-0.406305 -0.0344,-0.406305 -0.0069,-0.05995 -0.05504,-0.09991 -0.116975,-0.09325 -0.495425,0.0333 -0.495425,0.0333 -0.495425,0.0333 -0.04128,-0.106569 -0.04128,-0.106569 -0.04128,-0.106569 -0.09634,-0.259778 -0.261478,-0.492903 -0.474787,-0.672745 -0.08946,-0.07327 -0.08946,-0.07327 -0.08946,-0.07327 0.21331,-0.439621 0.21331,-0.439621 0.21331,-0.439621 0.01376,-0.01998 0.01376,-0.05328 0.0069,-0.07993 -0.01376,-0.01998 -0.0344,-0.04662 -0.05504,-0.05328 -0.378449,-0.179843 -0.378449,-0.179843 -0.378449,-0.179843 -0.05505,-0.01998 -0.116981,0 -0.1445,0.05328 -0.21331,0.432953 -0.21331,0.432953 -0.21331,0.432953 -0.123862,-0.01998 -0.123862,-0.01998 -0.123862,-0.01998 -0.275233,-0.04663 -0.564234,-0.02665 -0.832588,0.0666 -0.116975,0.03331 -0.116975,0.03331 -0.116975,0.03331 -0.28212,-0.392991 -0.28212,-0.392991 -0.28212,-0.392991 -0.01376,-0.02665 -0.04129,-0.03997 -0.06881,-0.04663 -0.02753,-0.0067 -0.05504,0 -0.08257,0.01998 -0.344051,0.226473 -0.344051,0.226473 -0.344051,0.226473 -0.02064,0.01331 -0.03441,0.03996 -0.04129,0.06661 -0.0069,0.02665 0,0.05328 0.01376,0.07993 0.282114,0.399653 0.282114,0.399653 0.282114,0.399653 -0.07569,0.08659 -0.07569,0.08659 -0.07569,0.08659 -0.185785,0.206489 -0.309639,0.46626 -0.357804,0.732693 -0.02752,0.113233 -0.02752,0.113233 -0.02752,0.113233 -0.495432,0.03996 -0.495432,0.03996 -0.495432,0.03996 -0.02752,0 -0.05504,0.01333 -0.07569,0.03331 -0.02064,0.02665 -0.02753,0.05328 -0.02753,0.07993 0.03441,0.399653 0.03441,0.399653 0.03441,0.399653 0.0069,0.0333 0.02064,0.05328 0.04129,0.07327 0.02064,0.01998 0.04816,0.02665 0.07569,0.02665 z"
       fill-rule="evenodd"
       id="path507"
       style="stroke-width:0.264583" />
    <path
       fill="#54b7e3"
       d="m 76.082522,92.563355 c -0.468149,0 -0.846799,-0.371231 -0.846799,-0.823447 0,-0.458975 0.37865,-0.830199 0.846799,-0.830199 0.461269,0 0.83992,0.371224 0.83992,0.830199 0,0.452216 -0.378651,0.823447 -0.83992,0.823447 z m 0,-1.343168 c -0.289155,0 -0.530111,0.236234 -0.530111,0.519721 0,0.283478 0.240956,0.512969 0.530111,0.512969 0.289155,0 0.523232,-0.229491 0.523232,-0.512969 0,-0.283487 -0.23408,-0.519721 -0.523232,-0.519721 z"
       fill-rule="evenodd"
       id="path509"
       style="stroke-width:0.264583" />
    <path
       fill="#54b7e3"
       d="m 76.049449,99.872475 c -0.468148,0 -0.846799,-0.363802 -0.846799,-0.806984 0,-0.449795 0.378651,-0.813597 0.846799,-0.813597 0.461269,0 0.83992,0.363802 0.83992,0.813597 0,0.443182 -0.378651,0.806984 -0.83992,0.806984 z m 0,-1.316313 c -0.289155,0 -0.530111,0.224899 -0.530111,0.509329 0,0.277817 0.240956,0.502716 0.530111,0.502716 0.289155,0 0.523232,-0.224899 0.523232,-0.502716 0,-0.28443 -0.234079,-0.509329 -0.523232,-0.509329 z"
       fill-rule="evenodd"
       id="path511"
       style="stroke-width:0.264583" />
    <path
       fill="#54b7e3"
       d="m 80.441294,96.13523 c -0.191204,0 -0.389244,-0.07399 -0.539477,-0.221975 -0.300466,-0.295976 -0.300466,-0.773573 0,-1.069549 0.300474,-0.295976 0.78532,-0.295976 1.085786,0 0,0 0,0 0,0 0.300474,0.295976 0.300474,0.773573 0,1.069549 -0.150233,0.14799 -0.348268,0.221975 -0.546309,0.221975 z m 0,-1.204076 c -0.116086,0 -0.23218,0.04708 -0.32095,0.134535 -0.177549,0.174892 -0.177549,0.457417 0,0.632309 0.177549,0.174892 0.46436,0.174892 0.641908,0 0.177549,-0.174892 0.177549,-0.457417 0,-0.632309 -0.08878,-0.08745 -0.204864,-0.134535 -0.320958,-0.134535 z"
       fill-rule="evenodd"
       id="path513"
       style="stroke-width:0.264583" />
  </g>
</svg>
