<?xml version="1.0" encoding="UTF-8" standalone="no"?>
<!-- Created with Inkscape (http://www.inkscape.org/) -->

<svg
   width="210mm"
   height="297mm"
   viewBox="0 0 210 297"
   version="1.1"
   id="svg624"
   sodipodi:docname="health-check.svg"
   inkscape:version="1.1 (c4e8f9e, 2021-05-24)"
   xmlns:inkscape="http://www.inkscape.org/namespaces/inkscape"
   xmlns:sodipodi="http://sodipodi.sourceforge.net/DTD/sodipodi-0.dtd"
   xmlns="http://www.w3.org/2000/svg"
   xmlns:svg="http://www.w3.org/2000/svg">
  <sodipodi:namedview
     id="namedview626"
     pagecolor="#ffffff"
     bordercolor="#666666"
     borderopacity="1.0"
     inkscape:pageshadow="2"
     inkscape:pageopacity="0.0"
     inkscape:pagecheckerboard="0"
     inkscape:document-units="mm"
     showgrid="false"
     inkscape:zoom="0.63250561"
     inkscape:cx="397.62493"
     inkscape:cy="561.25984"
     inkscape:window-width="1536"
     inkscape:window-height="932"
     inkscape:window-x="0"
     inkscape:window-y="28"
     inkscape:window-maximized="0"
     inkscape:current-layer="layer1" />
  <defs
     id="defs621" />
  <g
     inkscape:label="Layer 1"
     inkscape:groupmode="layer"
     id="layer1">
    <path
       fill="#54b7e3"
       d="m 72.280697,106.08977 v 0 c 0,-0.19939 0.17866,-0.36102 0.399047,-0.36102 v 0 c 0.220385,0 0.399042,0.16163 0.399042,0.36102 v 0 c 0,0.19938 -0.178657,0.36101 -0.399042,0.36101 v 0 c -0.220387,0 -0.399047,-0.16163 -0.399047,-0.36101 z"
       fill-rule="evenodd"
       id="path317"
       style="stroke-width:0.264583" />
    <path
       fill="#54b7e3"
       d="m 72.685123,104.45262 c -0.988793,0 -1.751576,0.72134 -1.751576,1.63689 0,0.83232 0.649777,1.52592 1.525564,1.60915 -0.113001,1.33172 -1.299557,2.38599 -2.740372,2.38599 -1.525566,0 -2.768621,-1.13751 -2.768621,-2.55245 0,0 0,0 0,0 0,-1.19299 0,-1.19299 0,-1.19299 2.118842,-0.11098 3.785669,-1.72013 3.785669,-3.71769 0,-1.99757 0,-1.99757 0,-1.99757 0,-0.749089 -0.62153,-1.359456 -1.412563,-1.442692 -0.08475,-0.277436 -0.367265,-0.499393 -0.678031,-0.499393 -0.42377,0 -0.734531,0.305187 -0.734531,0.693605 0,0.360667 0.310761,0.66585 0.734531,0.66585 0.310766,0 0.593277,-0.194203 0.678031,-0.471645 0.565026,0.08323 0.988793,0.527135 0.988793,1.054275 0,1.99757 0,1.99757 0,1.99757 0,1.8311 -1.610323,3.32927 -3.559659,3.32927 -1.977588,0 -3.587911,-1.49817 -3.587911,-3.32927 0,-1.99757 0,-1.99757 0,-1.99757 0,-0.52714 0.452019,-0.971043 0.988793,-1.054275 0.113006,0.277442 0.367265,0.471645 0.706284,0.471645 0.395517,0 0.734531,-0.305183 0.734531,-0.66585 0,-0.388418 -0.339014,-0.693605 -0.734531,-0.693605 -0.339019,0 -0.62153,0.221957 -0.706284,0.499393 -0.791033,0.08324 -1.384311,0.693603 -1.384311,1.442692 0,1.99757 0,1.99757 0,1.99757 0,1.99756 1.666822,3.60671 3.757417,3.71769 0,1.16524 0,1.16524 0,1.16524 0,0.0277 0,0.0277 0,0.0277 0,1.60915 1.440815,2.94086 3.192393,2.94086 1.666828,0 3.051138,-1.22073 3.164145,-2.7744 0.875789,-0.0832 1.553821,-0.77683 1.553821,-1.60915 0,-0.91555 -0.791038,-1.63689 -1.751582,-1.63689 z m -4.03993,-4.799713 c -0.169506,0 -0.310764,-0.138718 -0.310764,-0.277437 0,-0.166467 0.141258,-0.305186 0.310764,-0.305186 0.169508,0 0.310766,0.138719 0.310766,0.305186 0,0.138719 -0.141258,0.277437 -0.310766,0.277437 z m -3.785669,-0.582623 c 0.169505,0 0.310763,0.138719 0.310763,0.305186 0,0.138719 -0.141258,0.277437 -0.310763,0.277437 -0.169508,0 -0.310767,-0.138718 -0.310767,-0.277437 0,-0.166467 0.141259,-0.305186 0.310767,-0.305186 z m 7.825599,8.267706 c 0,0 0,0 0,0 0,0 0,0 0,0 -0.734531,0 -1.327808,-0.55488 -1.327808,-1.24848 0,-0.69359 0.593277,-1.24848 1.327808,-1.24848 0.734531,0 1.327809,0.55489 1.327809,1.24848 0,0.6936 -0.593278,1.24848 -1.327809,1.24848 z"
       fill-rule="evenodd"
       id="path319"
       style="stroke-width:0.264583" />
  </g>
</svg>
