<?xml version="1.0" encoding="UTF-8" standalone="no"?>
<!-- Created with Inkscape (http://www.inkscape.org/) -->

<svg
   width="12.7mm"
   height="10.517163mm"
   viewBox="0 0 12.7 10.517163"
   version="1.1"
   id="svg1164"
   inkscape:version="1.1 (c4e8f9e, 2021-05-24)"
   sodipodi:docname="identification.svg"
   xmlns:inkscape="http://www.inkscape.org/namespaces/inkscape"
   xmlns:sodipodi="http://sodipodi.sourceforge.net/DTD/sodipodi-0.dtd"
   xmlns="http://www.w3.org/2000/svg"
   xmlns:svg="http://www.w3.org/2000/svg">
  <sodipodi:namedview
     id="namedview1166"
     pagecolor="#ffffff"
     bordercolor="#666666"
     borderopacity="1.0"
     inkscape:pageshadow="2"
     inkscape:pageopacity="0.0"
     inkscape:pagecheckerboard="0"
     inkscape:document-units="mm"
     showgrid="false"
     inkscape:zoom="0.63250561"
     inkscape:cx="-271.14384"
     inkscape:cy="257.70522"
     inkscape:window-width="950"
     inkscape:window-height="932"
     inkscape:window-x="0"
     inkscape:window-y="28"
     inkscape:window-maximized="0"
     inkscape:current-layer="layer1" />
  <defs
     id="defs1161" />
  <g
     inkscape:label="Layer 1"
     inkscape:groupmode="layer"
     id="layer1"
     transform="translate(-176.86972,-80.49494)">
    <path
       fill="#54b7e3"
       d="m 181.45079,84.496768 c 0.14366,0 0.14366,0 0.14366,0 0.25995,0 0.47886,-0.192778 0.51307,-0.438738 0.007,-0.04653 0.007,-0.04653 0.007,-0.04653 0.0752,-0.531807 0.54042,-0.930661 1.09454,-0.930661 0.55412,0 1.02614,0.398854 1.09455,0.930661 0.007,0.04653 0.007,0.04653 0.007,0.04653 0.0342,0.24596 0.25312,0.438738 0.51308,0.438738 0.28047,0 0.51307,-0.226015 0.51307,-0.505214 0,-2.047444 0,-2.047444 0,-2.047444 0,-0.232667 -0.19154,-0.418798 -0.43098,-0.418798 -0.54727,0 -0.54727,0 -0.54727,0 -0.0479,-0.578335 -0.54729,-1.030372 -1.14929,-1.030372 -0.602,0 -1.10138,0.452037 -1.14927,1.030372 -0.69094,0 -0.69094,0 -0.69094,0 -0.23943,0 -0.43098,0.186131 -0.43098,0.418798 0,2.047444 0,2.047444 0,2.047444 0,0.279199 0.23259,0.505214 0.51308,0.505214 z m 1.75811,-3.696039 c 0.43098,0 0.78671,0.31908 0.83459,0.724583 -1.66918,0 -1.66918,0 -1.66918,0 0.0479,-0.405503 0.40361,-0.724583 0.83459,-0.724583 z m -1.9565,1.143381 c 0,-0.05983 0.0547,-0.113011 0.11629,-0.113011 3.53677,0 3.53677,0 3.53677,0 0.0684,0 0.1163,0.05318 0.1163,0.113011 0,2.047444 0,2.047444 0,2.047444 0,0.10636 -0.0889,0.199427 -0.19839,0.199427 -0.10262,0 -0.19156,-0.07312 -0.20524,-0.172837 -0.007,-0.04654 -0.007,-0.04654 -0.007,-0.04654 -0.0889,-0.684696 -0.69095,-1.196559 -1.4024,-1.196559 -0.71146,0 -1.31346,0.511863 -1.40239,1.196559 -0.007,0.04654 -0.007,0.04654 -0.007,0.04654 -0.0137,0.09971 -0.10261,0.172837 -0.20522,0.172837 -0.14366,0 -0.14366,0 -0.14366,0 -0.10946,0 -0.19839,-0.09307 -0.19839,-0.199427 z"
       fill-rule="evenodd"
       id="path333"
       style="stroke-width:0.264583" />
    <path
       fill="#54b7e3"
       d="m 189.07651,82.347023 c -3.11676,0 -3.11676,0 -3.11676,0 0,0.30567 0,0.30567 0,0.30567 3.11676,0 3.11676,0 3.11676,0 0.0959,0 0.17811,0.07309 0.17811,0.166124 0,7.721492 0,7.721492 0,7.721492 0,0.09303 -0.0822,0.166124 -0.17811,0.166124 -11.71359,0 -11.71359,0 -11.71359,0 -0.0959,0 -0.17809,-0.07309 -0.17809,-0.166124 0,-7.721492 0,-7.721492 0,-7.721492 0,-0.09303 0.0822,-0.166124 0.17809,-0.166124 2.97293,0 2.97293,0 2.97293,0 0,-0.30567 0,-0.30567 0,-0.30567 -2.97293,0 -2.97293,0 -2.97293,0 -0.274,0 -0.4932,0.21264 -0.4932,0.471794 0,7.721492 0,7.721492 0,7.721492 0,0.259154 0.2192,0.471794 0.4932,0.471794 11.71359,0 11.71359,0 11.71359,0 0.274,0 0.49321,-0.21264 0.49321,-0.471794 0,-7.721492 0,-7.721492 0,-7.721492 0,-0.259154 -0.21921,-0.471794 -0.49321,-0.471794 z"
       fill-rule="evenodd"
       id="path335"
       style="stroke-width:0.264583" />
    <path
       fill="#54b7e3"
       d="m 180.45478,87.804062 c 0.37778,0 0.68137,-0.318984 0.68137,-0.711073 0,-0.392086 -0.30359,-0.71107 -0.68137,-0.71107 -0.37106,0 -0.67464,0.318984 -0.67464,0.71107 0,0.392089 0.30358,0.711073 0.67464,0.711073 z m 0,-1.116449 c 0.20912,0 0.37103,0.17943 0.37103,0.405376 0,0.225949 -0.16191,0.405379 -0.37103,0.405379 -0.2024,0 -0.36431,-0.17943 -0.36431,-0.405379 0,-0.225946 0.16191,-0.405376 0.36431,-0.405376 z"
       fill-rule="evenodd"
       id="path337"
       style="stroke-width:0.264583" />
    <path
       fill="#54b7e3"
       d="m 183.88118,85.621255 h 4.00002 v 0.299998 h -4.00002 z"
       fill-rule="evenodd"
       id="path339"
       style="stroke-width:0.264583" />
    <path
       fill="#54b7e3"
       d="m 183.88118,87.241814 h 4.00002 v 0.331251 h -4.00002 z"
       fill-rule="evenodd"
       id="path341"
       style="stroke-width:0.264583" />
    <path
       fill="#54b7e3"
       d="m 183.88118,88.89546 h 4.00002 v 0.331251 h -4.00002 z"
       fill-rule="evenodd"
       id="path343"
       style="stroke-width:0.264583" />
    <path
       fill="#54b7e3"
       d="m 178.58952,89.226203 c 0.48178,0 0.48178,0 0.48178,0 2.7737,0 2.7737,0 2.7737,0 0.48177,0 0.48177,0 0.48177,0 0,-3.604948 0,-3.604948 0,-3.604948 -3.73725,0 -3.73725,0 -3.73725,0 z m 0.83967,-0.305957 c 0.0688,-0.512143 0.0688,-0.512143 0.0688,-0.512143 0.0138,-0.0532 0.0413,-0.07981 0.0688,-0.08646 0.37166,-0.07981 0.37166,-0.07981 0.37166,-0.07981 0.0895,0.03325 0.28219,0.106416 0.49555,0.133022 0.0207,0.0066 0.0207,0.0066 0.0207,0.0066 0.0275,-0.0066 0.0275,-0.0066 0.0275,-0.0066 0.21336,-0.02661 0.40606,-0.09977 0.49554,-0.133022 0.37165,0.07981 0.37165,0.07981 0.37165,0.07981 0.0275,0.0066 0.0551,0.03326 0.0688,0.08646 0.0688,0.512143 0.0688,0.512143 0.0688,0.512143 z m -0.52308,-2.999687 c 3.10406,0 3.10406,0 3.10406,0 0,2.999687 0,2.999687 0,2.999687 -0.20648,0 -0.20648,0 -0.20648,0 -0.0757,-0.558699 -0.0757,-0.558699 -0.0757,-0.558699 0,-0.01331 0,-0.01331 0,-0.01331 -0.0344,-0.16628 -0.15829,-0.292653 -0.30972,-0.325908 -0.47489,-0.09977 -0.47489,-0.09977 -0.47489,-0.09977 -0.0482,0.01995 -0.0482,0.01995 -0.0482,0.01995 0,0 -0.19959,0.09312 -0.44048,0.126376 -0.22713,-0.03326 -0.43361,-0.126376 -0.43361,-0.126376 -0.0482,-0.01995 -0.0482,-0.01995 -0.0482,-0.01995 -0.47491,0.09977 -0.47491,0.09977 -0.47491,0.09977 -0.15141,0.03325 -0.27529,0.159628 -0.3097,0.325908 -0.0757,0.572003 -0.0757,0.572003 -0.0757,0.572003 -0.20648,0 -0.20648,0 -0.20648,0 z"
       fill-rule="evenodd"
       id="path345"
       style="stroke-width:0.264583" />
  </g>
</svg>
