<?xml version="1.0" encoding="UTF-8" standalone="no"?>
<!-- Created with Inkscape (http://www.inkscape.org/) -->

<svg
   width="11.85874mm"
   height="11.675809mm"
   viewBox="0 0 11.85874 11.675809"
   version="1.1"
   id="svg624"
   sodipodi:docname="network.svg"
   inkscape:version="1.1 (c4e8f9e, 2021-05-24)"
   xmlns:inkscape="http://www.inkscape.org/namespaces/inkscape"
   xmlns:sodipodi="http://sodipodi.sourceforge.net/DTD/sodipodi-0.dtd"
   xmlns="http://www.w3.org/2000/svg"
   xmlns:svg="http://www.w3.org/2000/svg">
  <sodipodi:namedview
     id="namedview626"
     pagecolor="#ffffff"
     bordercolor="#666666"
     borderopacity="1.0"
     inkscape:pageshadow="2"
     inkscape:pageopacity="0.0"
     inkscape:pagecheckerboard="0"
     inkscape:document-units="mm"
     showgrid="false"
     inkscape:zoom="0.63250561"
     inkscape:cx="-128.85261"
     inkscape:cy="273.51536"
     inkscape:window-width="950"
     inkscape:window-height="932"
     inkscape:window-x="0"
     inkscape:window-y="28"
     inkscape:window-maximized="0"
     inkscape:current-layer="layer1" />
  <defs
     id="defs621" />
  <g
     inkscape:label="Layer 1"
     inkscape:groupmode="layer"
     id="layer1"
     transform="translate(-139.22415,-76.150828)">
    <path
       fill="#54b7e3"
       d="m 145.17001,80.691417 c -0.98928,0 -1.91261,-0.196612 -2.73701,-0.524291 -0.0659,-0.03277 -0.0989,-0.06553 -0.0989,-0.131071 -0.033,-0.03277 0,-0.09831 0.033,-0.131072 0.29678,-0.425985 0.72547,-0.786427 1.18713,-1.015807 0.49464,-0.262144 1.02226,-0.393216 1.61583,-0.393216 0.56059,0 1.08821,0.131072 1.58284,0.393216 0.46167,0.22938 0.89036,0.589822 1.18714,1.015807 0.033,0.03277 0.066,0.09831 0.033,0.131072 0,0.06554 -0.033,0.0983 -0.0989,0.131071 -0.8244,0.327679 -1.74773,0.524291 -2.70403,0.524291 z m -2.37427,-0.753668 c 0.72547,0.262143 1.51689,0.393215 2.37427,0.393215 0.8244,0 1.61582,-0.131072 2.34129,-0.393215 -0.59357,-0.688121 -1.45094,-1.081339 -2.34129,-1.081339 -0.92333,0 -1.78071,0.393218 -2.37427,1.081339 z"
       fill-rule="evenodd"
       id="path235"
       style="stroke-width:0.264583" />
    <path
       fill="#54b7e3"
       d="m 145.17001,85.414975 c -0.59357,0 -1.12119,-0.130079 -1.61583,-0.390236 -0.46166,-0.227645 -0.89035,-0.585359 -1.18713,-1.008121 -0.033,-0.03251 -0.066,-0.09755 -0.033,-0.162594 0,-0.03252 0.033,-0.09756 0.0989,-0.09756 0.8244,-0.357714 1.74773,-0.520316 2.73701,-0.520316 0.9563,0 1.87963,0.162602 2.70403,0.520316 0.0659,0 0.0989,0.06504 0.0989,0.09756 0.033,0.06504 0,0.130079 -0.033,0.162594 -0.29678,0.422762 -0.72547,0.780476 -1.18714,1.008121 -0.49463,0.260157 -1.02225,0.390236 -1.58284,0.390236 z m -2.37427,-1.430872 c 0.59356,0.682914 1.45094,1.07315 2.37427,1.07315 0.89035,0 1.74772,-0.390236 2.34129,-1.07315 -0.69249,-0.260159 -1.51689,-0.422761 -2.34129,-0.422761 -0.85738,0 -1.6488,0.162602 -2.37427,0.422761 z"
       fill-rule="evenodd"
       id="path237"
       style="stroke-width:0.264583" />
    <path
       fill="#54b7e3"
       d="m 145.17009,85.41496 c -1.02647,0 -1.82116,-1.533936 -1.82116,-3.459504 0,-1.958205 0.79469,-3.459493 1.82116,-3.459493 0.99335,0 1.78804,1.501288 1.78804,3.459493 0,1.925568 -0.79469,3.459504 -1.78804,3.459504 z m 0,-6.559992 c -0.79469,0 -1.49004,1.403379 -1.49004,3.100488 0,1.664483 0.69535,3.100498 1.49004,3.100498 0.76157,0 1.45692,-1.436015 1.45692,-3.100498 0,-1.697109 -0.69535,-3.100488 -1.45692,-3.100488 z"
       fill-rule="evenodd"
       id="path239"
       style="stroke-width:0.264583" />
    <path
       fill="#54b7e3"
       d="m 145.1694,85.41496 c -0.0953,0 -0.19052,-0.09791 -0.19052,-0.195821 0,-6.559992 0,-6.559992 0,-6.559992 0,-0.09791 0.0953,-0.163184 0.19052,-0.163184 0.0635,0 0.15876,0.06527 0.15876,0.163184 0,6.559992 0,6.559992 0,6.559992 0,0.09791 -0.0953,0.195821 -0.15876,0.195821 z"
       fill-rule="evenodd"
       id="path241"
       style="stroke-width:0.264583" />
    <path
       fill="#54b7e3"
       d="m 148.47283,82.121781 c -6.6386,0 -6.6386,0 -6.6386,0 -0.0991,0 -0.16515,-0.06652 -0.16515,-0.166317 0,-0.09979 0.0661,-0.199583 0.16515,-0.199583 6.6386,0 6.6386,0 6.6386,0 0.0991,0 0.16514,0.09979 0.16514,0.199583 0,0.09979 -0.066,0.166317 -0.16514,0.166317 z"
       fill-rule="evenodd"
       id="path243"
       style="stroke-width:0.264583" />
    <path
       fill="#54b7e3"
       d="m 145.17004,85.41496 c -1.94864,0 -3.50096,-1.566572 -3.50096,-3.459504 0,-1.925569 1.55232,-3.459493 3.50096,-3.459493 1.91562,0 3.46793,1.533924 3.46793,3.459493 0,1.892932 -1.55231,3.459504 -3.46793,3.459504 z m 0,-6.559992 c -1.75048,0 -3.13765,1.370743 -3.13765,3.100488 0,1.697119 1.38717,3.100498 3.13765,3.100498 1.71745,0 3.10463,-1.403379 3.10463,-3.100498 0,-1.729745 -1.38718,-3.100488 -3.10463,-3.100488 z"
       fill-rule="evenodd"
       id="path245"
       style="stroke-width:0.264583" />
    <path
       fill="#54b7e3"
       d="m 145.1694,78.861871 c -0.0953,0 -0.19052,-0.09788 -0.19052,-0.19575 0,-1.337603 0,-1.337603 0,-1.337603 0,-0.09787 0.0953,-0.163121 0.19052,-0.163121 0.0635,0 0.15876,0.06525 0.15876,0.163121 0,1.337603 0,1.337603 0,1.337603 0,0.09787 -0.0953,0.19575 -0.15876,0.19575 z"
       fill-rule="evenodd"
       id="path247"
       style="stroke-width:0.264583" />
    <path
       fill="#54b7e3"
       d="m 145.16996,77.514673 c -0.39431,0 -0.69004,-0.292253 -0.69004,-0.681918 0,-0.357198 0.29573,-0.681927 0.69004,-0.681927 0.36145,0 0.65718,0.324729 0.65718,0.681927 0,0.389665 -0.29573,0.681918 -0.65718,0.681918 z m 0,-1.006649 c -0.19715,0 -0.36145,0.129894 -0.36145,0.324731 0,0.194836 0.1643,0.32472 0.36145,0.32472 0.16429,0 0.32859,-0.129884 0.32859,-0.32472 0,-0.194837 -0.1643,-0.324731 -0.32859,-0.324731 z"
       fill-rule="evenodd"
       id="path249"
       style="stroke-width:0.264583" />
    <path
       fill="#54b7e3"
       d="m 145.1694,86.861947 c -0.0953,0 -0.19052,-0.09787 -0.19052,-0.195749 0,-1.337604 0,-1.337604 0,-1.337604 0,-0.09787 0.0953,-0.163121 0.19052,-0.163121 0.0635,0 0.15876,0.06525 0.15876,0.163121 0,1.337604 0,1.337604 0,1.337604 0,0.09788 -0.0953,0.195749 -0.15876,0.195749 z"
       fill-rule="evenodd"
       id="path251"
       style="stroke-width:0.264583" />
    <path
       fill="#54b7e3"
       d="m 145.16996,87.826637 c -0.39431,0 -0.69004,-0.292077 -0.69004,-0.649066 0,-0.389429 0.29573,-0.681505 0.69004,-0.681505 0.36145,0 0.65718,0.292076 0.65718,0.681505 0,0.356989 -0.29573,0.649066 -0.65718,0.649066 z m 0,-0.973593 c -0.19715,0 -0.36145,0.129813 -0.36145,0.324527 0,0.162267 0.1643,0.32453 0.36145,0.32453 0.16429,0 0.32859,-0.162263 0.32859,-0.32453 0,-0.194714 -0.1643,-0.324527 -0.32859,-0.324527 z"
       fill-rule="evenodd"
       id="path253"
       style="stroke-width:0.264583" />
    <path
       fill="#54b7e3"
       d="m 147.55438,79.843179 c -0.0657,0 -0.0986,-0.03286 -0.13139,-0.06572 -0.0657,-0.06572 -0.0657,-0.164298 0,-0.262871 0.9526,-0.952915 0.9526,-0.952915 0.9526,-0.952915 0.0657,-0.06572 0.16425,-0.06572 0.22994,0 0.0657,0.09858 0.0657,0.197154 0,0.262871 -0.95261,0.952915 -0.95261,0.952915 -0.95261,0.952915 -0.0328,0.03285 -0.0657,0.06572 -0.0985,0.06572 z"
       fill-rule="evenodd"
       id="path255"
       style="stroke-width:0.264583" />
    <path
       fill="#54b7e3"
       d="m 148.83756,79.028209 c -0.16632,0 -0.33265,-0.06572 -0.4657,-0.197154 -0.13306,-0.131435 -0.19959,-0.295725 -0.19959,-0.492879 0,-0.164299 0.0665,-0.328589 0.19959,-0.460026 0.13305,-0.131434 0.29938,-0.197154 0.4657,-0.197154 0.19958,0 0.36591,0.06572 0.49897,0.197154 0.13305,0.131437 0.19958,0.295727 0.19958,0.460026 0,0.197154 -0.0665,0.361444 -0.19958,0.492879 -0.13306,0.131437 -0.29939,0.197154 -0.49897,0.197154 z m 0,-1.018622 c -0.0665,0 -0.16632,0.03285 -0.23285,0.09857 -0.0665,0.06572 -0.0998,0.1643 -0.0998,0.230018 0,0.09857 0.0333,0.197154 0.0998,0.230007 0.0665,0.06572 0.16632,0.09858 0.23285,0.09858 0.0998,0 0.19958,-0.03286 0.26611,-0.09858 0.0333,-0.03285 0.0665,-0.131434 0.0665,-0.230007 0,-0.06572 -0.0333,-0.164299 -0.0665,-0.230018 -0.0665,-0.06572 -0.16632,-0.09857 -0.26611,-0.09857 z"
       fill-rule="evenodd"
       id="path257"
       style="stroke-width:0.264583" />
    <path
       fill="#54b7e3"
       d="m 141.80006,85.481476 c -0.0328,0 -0.0657,-0.03245 -0.0985,-0.0649 -0.0657,-0.06491 -0.0657,-0.162264 0,-0.227174 0.95261,-0.941134 0.95261,-0.941134 0.95261,-0.941134 0.0657,-0.09735 0.16424,-0.09735 0.22994,0 0.0657,0.06491 0.0657,0.162264 0,0.227174 -0.95261,0.941134 -0.95261,0.941134 -0.95261,0.941134 -0.0329,0.03245 -0.0657,0.0649 -0.13139,0.0649 z"
       fill-rule="evenodd"
       id="path259"
       style="stroke-width:0.264583" />
    <path
       fill="#54b7e3"
       d="m 141.4695,86.329738 c -0.19959,0 -0.36591,-0.06494 -0.49896,-0.194837 -0.13306,-0.129884 -0.19959,-0.292245 -0.19959,-0.487082 0,-0.162361 0.0665,-0.357198 0.19959,-0.454615 0.13305,-0.129894 0.29937,-0.227303 0.49896,-0.227303 0.16632,0 0.33265,0.09741 0.4657,0.227303 0.13306,0.09742 0.19959,0.292254 0.19959,0.454615 0,0.194837 -0.0665,0.357198 -0.19959,0.487082 -0.13305,0.129895 -0.29938,0.194837 -0.4657,0.194837 z m 0,-1.006642 c -0.0998,0 -0.19959,0.03247 -0.26611,0.09741 -0.0998,0.129892 -0.0998,0.324728 0,0.454615 0.0665,0.06495 0.16632,0.09742 0.26611,0.09742 0.0665,0 0.16632,-0.03247 0.23285,-0.09742 0.13306,-0.129887 0.13306,-0.324723 0,-0.454615 -0.0665,-0.06494 -0.16632,-0.09741 -0.23285,-0.09741 z"
       fill-rule="evenodd"
       id="path261"
       style="stroke-width:0.264583" />
    <path
       fill="#54b7e3"
       d="m 149.86876,82.188308 c -1.36384,0 -1.36384,0 -1.36384,0 -0.0998,0 -0.16632,-0.09979 -0.16632,-0.199584 0,-0.09979 0.0665,-0.166317 0.16632,-0.166317 1.36384,0 1.36384,0 1.36384,0 0.0998,0 0.19958,0.06652 0.19958,0.166317 0,0.09979 -0.0998,0.199584 -0.19958,0.199584 z"
       fill-rule="evenodd"
       id="path263"
       style="stroke-width:0.264583" />
    <path
       fill="#54b7e3"
       d="m 150.39265,82.670667 c -0.39442,0 -0.69023,-0.292254 -0.69023,-0.681927 0,-0.357198 0.29581,-0.681918 0.69023,-0.681918 0.36155,0 0.69024,0.32472 0.69024,0.681918 0,0.389673 -0.32869,0.681927 -0.69024,0.681927 z m 0,-1.00665 c -0.19721,0 -0.32868,0.162362 -0.32868,0.324723 0,0.194837 0.13147,0.324729 0.32868,0.324729 0.16434,0 0.32869,-0.129892 0.32869,-0.324729 0,-0.162361 -0.16435,-0.324723 -0.32869,-0.324723 z"
       fill-rule="evenodd"
       id="path265"
       style="stroke-width:0.264583" />
    <path
       fill="#54b7e3"
       d="m 141.80214,82.188308 c -1.36384,0 -1.36384,0 -1.36384,0 -0.0998,0 -0.19958,-0.09979 -0.19958,-0.199584 0,-0.09979 0.0998,-0.166317 0.19958,-0.166317 1.36384,0 1.36384,0 1.36384,0 0.0998,0 0.16632,0.06652 0.16632,0.166317 0,0.09979 -0.0665,0.199584 -0.16632,0.199584 z"
       fill-rule="evenodd"
       id="path267"
       style="stroke-width:0.264583" />
    <path
       fill="#54b7e3"
       d="m 139.91439,82.670667 c -0.36155,0 -0.69024,-0.292254 -0.69024,-0.681927 0,-0.357198 0.32869,-0.681918 0.69024,-0.681918 0.39442,0 0.69023,0.32472 0.69023,0.681918 0,0.389673 -0.29581,0.681927 -0.69023,0.681927 z m 0,-1.00665 c -0.16434,0 -0.32869,0.162362 -0.32869,0.324723 0,0.194837 0.16435,0.324729 0.32869,0.324729 0.19721,0 0.32868,-0.129892 0.32868,-0.324729 0,-0.162361 -0.13147,-0.324723 -0.32868,-0.324723 z"
       fill-rule="evenodd"
       id="path269"
       style="stroke-width:0.264583" />
    <path
       fill="#54b7e3"
       d="m 142.75266,79.843179 c -0.0328,0 -0.0657,-0.03286 -0.0985,-0.06572 -0.95261,-0.952915 -0.95261,-0.952915 -0.95261,-0.952915 -0.0657,-0.06572 -0.0657,-0.16429 0,-0.262871 0.0657,-0.06572 0.16424,-0.06572 0.22994,0 0.95261,0.952915 0.95261,0.952915 0.95261,0.952915 0.0657,0.09857 0.0657,0.197152 0,0.262871 -0.0328,0.03285 -0.0657,0.06572 -0.1314,0.06572 z"
       fill-rule="evenodd"
       id="path271"
       style="stroke-width:0.264583" />
    <path
       fill="#54b7e3"
       d="m 141.4695,79.028209 c -0.19959,0 -0.36591,-0.06572 -0.49896,-0.197154 -0.13306,-0.131435 -0.19959,-0.295725 -0.19959,-0.492879 0,-0.164299 0.0665,-0.328589 0.19959,-0.460026 0.13305,-0.131434 0.29937,-0.197154 0.49896,-0.197154 0.16632,0 0.33265,0.06572 0.4657,0.197154 0.13306,0.131437 0.19959,0.295727 0.19959,0.460026 0,0.197154 -0.0665,0.361444 -0.19959,0.492879 -0.13305,0.131437 -0.29938,0.197154 -0.4657,0.197154 z m 0,-1.018622 c -0.0998,0 -0.19959,0.03285 -0.26611,0.09857 -0.0333,0.06572 -0.0665,0.1643 -0.0665,0.230018 0,0.09857 0.0333,0.197154 0.0665,0.230007 0.0665,0.06572 0.16632,0.09858 0.26611,0.09858 0.0665,0 0.16632,-0.03286 0.23285,-0.09858 0.0665,-0.03285 0.0998,-0.131434 0.0998,-0.230007 0,-0.06572 -0.0333,-0.164299 -0.0998,-0.230018 -0.0665,-0.06572 -0.16632,-0.09857 -0.23285,-0.09857 z"
       fill-rule="evenodd"
       id="path273"
       style="stroke-width:0.264583" />
    <path
       fill="#54b7e3"
       d="m 148.50699,85.481476 c -0.0657,0 -0.0985,-0.03245 -0.1314,-0.0649 -0.9526,-0.941134 -0.9526,-0.941134 -0.9526,-0.941134 -0.0657,-0.06491 -0.0657,-0.162264 0,-0.227174 0.0657,-0.09735 0.16424,-0.09735 0.22993,0 0.95261,0.941134 0.95261,0.941134 0.95261,0.941134 0.0657,0.06491 0.0657,0.162263 0,0.227174 -0.0328,0.03245 -0.0657,0.0649 -0.0985,0.0649 z"
       fill-rule="evenodd"
       id="path275"
       style="stroke-width:0.264583" />
    <path
       fill="#54b7e3"
       d="m 148.83756,86.329738 c -0.16632,0 -0.33265,-0.06494 -0.4657,-0.194837 -0.13306,-0.129884 -0.19959,-0.292245 -0.19959,-0.487082 0,-0.162361 0.0665,-0.357198 0.19959,-0.454615 0.13305,-0.129894 0.29938,-0.227303 0.4657,-0.227303 0.19958,0 0.36591,0.09741 0.49897,0.227303 0.13305,0.09742 0.19958,0.292254 0.19958,0.454615 0,0.194837 -0.0665,0.357198 -0.19958,0.487082 -0.13306,0.129895 -0.29939,0.194837 -0.49897,0.194837 z m 0,-1.006642 c -0.0665,0 -0.16632,0.03247 -0.23285,0.09741 -0.13306,0.129892 -0.13306,0.324728 0,0.454615 0.0665,0.06495 0.16632,0.09742 0.23285,0.09742 0.0998,0 0.19958,-0.03247 0.26611,-0.09742 0.0333,-0.06494 0.0665,-0.129887 0.0665,-0.227304 0,-0.06494 -0.0333,-0.162361 -0.0665,-0.227311 -0.0665,-0.06494 -0.16632,-0.09741 -0.26611,-0.09741 z"
       fill-rule="evenodd"
       id="path277"
       style="stroke-width:0.264583" />
  </g>
</svg>
