<?xml version="1.0" encoding="UTF-8" standalone="no"?>
<!-- Created with Inkscape (http://www.inkscape.org/) -->

<svg
   width="11.595154mm"
   height="11.38156mm"
   viewBox="0 0 11.595154 11.38156"
   version="1.1"
   id="svg624"
   sodipodi:docname="play.svg"
   inkscape:version="1.1 (c4e8f9e, 2021-05-24)"
   xmlns:inkscape="http://www.inkscape.org/namespaces/inkscape"
   xmlns:sodipodi="http://sodipodi.sourceforge.net/DTD/sodipodi-0.dtd"
   xmlns="http://www.w3.org/2000/svg"
   xmlns:svg="http://www.w3.org/2000/svg">
  <sodipodi:namedview
     id="namedview626"
     pagecolor="#ffffff"
     bordercolor="#666666"
     borderopacity="1.0"
     inkscape:pageshadow="2"
     inkscape:pageopacity="0.0"
     inkscape:pagecheckerboard="0"
     inkscape:document-units="mm"
     showgrid="false"
     inkscape:zoom="0.63250561"
     inkscape:cx="35.572807"
     inkscape:cy="124.90008"
     inkscape:window-width="950"
     inkscape:window-height="932"
     inkscape:window-x="0"
     inkscape:window-y="28"
     inkscape:window-maximized="0"
     inkscape:current-layer="layer1" />
  <defs
     id="defs621" />
  <g
     inkscape:label="Layer 1"
     inkscape:groupmode="layer"
     id="layer1"
     transform="translate(-95.851716,-115.61908)">
    <path
       fill="#54b7e3"
       d="m 101.6493,115.61908 c -3.206035,0 -5.797584,2.5438 -5.797584,5.69078 0,3.14697 2.591549,5.69078 5.797584,5.69078 3.20603,0 5.79757,-2.54381 5.79757,-5.69078 0,-3.14698 -2.59154,-5.69078 -5.79757,-5.69078 z m 0,10.96196 c -2.965587,0 -5.370107,-2.36023 -5.370107,-5.27118 0,-2.91095 2.40452,-5.27119 5.370107,-5.27119 2.96558,0 5.3701,2.36024 5.3701,5.27119 0,2.91095 -2.40452,5.27118 -5.3701,5.27118 z"
       fill-rule="evenodd"
       id="path37"
       style="stroke-width:0.264583" />
    <path
       fill="#54b7e3"
       d="m 100.68903,123.90092 3.07283,-2.59705 -3.07283,-2.56115 z m 0.43212,-4.24863 2.00454,1.65158 -2.00454,1.68749 z"
       fill-rule="evenodd"
       id="path39"
       style="stroke-width:0.264583" />
  </g>
</svg>
