<?xml version="1.0" encoding="UTF-8" standalone="no"?>
<!-- Created with Inkscape (http://www.inkscape.org/) -->

<svg
   width="210mm"
   height="297mm"
   viewBox="0 0 210 297"
   version="1.1"
   id="svg1715"
   inkscape:version="1.1 (c4e8f9e, 2021-05-24)"
   sodipodi:docname="protected.svg"
   xmlns:inkscape="http://www.inkscape.org/namespaces/inkscape"
   xmlns:sodipodi="http://sodipodi.sourceforge.net/DTD/sodipodi-0.dtd"
   xmlns="http://www.w3.org/2000/svg"
   xmlns:svg="http://www.w3.org/2000/svg">
  <sodipodi:namedview
     id="namedview1717"
     pagecolor="#ffffff"
     bordercolor="#666666"
     borderopacity="1.0"
     inkscape:pageshadow="2"
     inkscape:pageopacity="0.0"
     inkscape:pagecheckerboard="0"
     inkscape:document-units="mm"
     showgrid="false"
     inkscape:zoom="0.63250561"
     inkscape:cx="397.62493"
     inkscape:cy="561.25984"
     inkscape:window-width="1536"
     inkscape:window-height="932"
     inkscape:window-x="0"
     inkscape:window-y="28"
     inkscape:window-maximized="0"
     inkscape:current-layer="layer1" />
  <defs
     id="defs1712" />
  <g
     inkscape:label="Layer 1"
     inkscape:groupmode="layer"
     id="layer1">
    <path
       fill="#54b7e3"
       d="m 129.25774,142.72715 c -0.0346,0 -0.0691,-0.0342 -0.0691,-0.0342 -0.20739,-0.0683 -4.8045,-2.15217 -4.8045,-4.81677 0,-5.60248 0,-5.60248 0,-5.60248 0,-0.0683 0,-0.10249 0.0346,-0.13665 0.0691,-0.0342 0.1037,-0.0683 0.17283,-0.0342 1.62455,0.30745 3.11083,-0.10249 4.52798,-1.22981 0.0691,-0.0342 0.17283,-0.0342 0.24196,0 1.41716,1.12732 2.90344,1.53726 4.56255,1.22981 0.0346,-0.0342 0.1037,0 0.13826,0.0342 0.0346,0.0342 0.0691,0.0683 0.0691,0.13665 0,5.60248 0,5.60248 0,5.60248 0,2.6646 -4.59712,4.74844 -4.8045,4.81677 -0.0346,0 -0.0346,0.0342 -0.0691,0.0342 z m -4.52798,-10.24844 c 0,5.39751 0,5.39751 0,5.39751 0,2.25466 3.94038,4.1677 4.52798,4.47515 0.58761,-0.30745 4.49343,-2.22049 4.49343,-4.47515 0,-5.39751 0,-5.39751 0,-5.39751 -1.58999,0.27329 -3.07627,-0.13665 -4.49343,-1.22982 -1.41715,1.09317 -2.90344,1.50311 -4.52798,1.22982 z"
       fill-rule="evenodd"
       id="path1700"
       style="stroke-width:0.264583" />
    <path
       fill="#54b7e3"
       d="m 128.56798,138.34087 c 0,0 0,0 0,0 -0.0691,0 -0.13812,-0.0341 -0.20719,-0.0681 -1.03592,-1.02189 -1.03592,-1.02189 -1.03592,-1.02189 -0.1036,-0.10219 -0.1036,-0.27251 0,-0.3747 0.10359,-0.10219 0.27624,-0.10219 0.37983,0 0.86328,0.85158 0.86328,0.85158 0.86328,0.85158 2.45171,-2.45254 2.45171,-2.45254 2.45171,-2.45254 0.10358,-0.10219 0.27624,-0.10219 0.37983,0 0.1036,0.10219 0.1036,0.2725 0,0.37469 -2.65889,2.62286 -2.65889,2.62286 -2.65889,2.62286 -0.0345,0.0341 -0.10358,0.0681 -0.17265,0.0681 z"
       fill-rule="evenodd"
       id="path1702"
       style="stroke-width:0.264583" />
  </g>
</svg>
