<?xml version="1.0" encoding="UTF-8" standalone="no"?>
<!-- Created with Inkscape (http://www.inkscape.org/) -->

<svg
   width="210mm"
   height="297mm"
   viewBox="0 0 210 297"
   version="1.1"
   id="svg624"
   sodipodi:docname="question.svg"
   inkscape:version="1.1 (c4e8f9e, 2021-05-24)"
   xmlns:inkscape="http://www.inkscape.org/namespaces/inkscape"
   xmlns:sodipodi="http://sodipodi.sourceforge.net/DTD/sodipodi-0.dtd"
   xmlns="http://www.w3.org/2000/svg"
   xmlns:svg="http://www.w3.org/2000/svg">
  <sodipodi:namedview
     id="namedview626"
     pagecolor="#ffffff"
     bordercolor="#666666"
     borderopacity="1.0"
     inkscape:pageshadow="2"
     inkscape:pageopacity="0.0"
     inkscape:pagecheckerboard="0"
     inkscape:document-units="mm"
     showgrid="false"
     inkscape:zoom="0.63250561"
     inkscape:cx="397.62493"
     inkscape:cy="561.25984"
     inkscape:window-width="1536"
     inkscape:window-height="932"
     inkscape:window-x="0"
     inkscape:window-y="28"
     inkscape:window-maximized="0"
     inkscape:current-layer="layer1" />
  <defs
     id="defs621" />
  <g
     inkscape:label="Layer 1"
     inkscape:groupmode="layer"
     id="layer1">
    <path
       fill="#54b7e3"
       d="m 113.79441,152.99865 c -3.72915,0 -6.72377,-2.94131 -6.72377,-6.57633 0,-3.66276 2.99462,-6.60407 6.72377,-6.60407 3.7009,0 6.69552,2.94131 6.69552,6.60407 0,3.63502 -2.99462,6.57633 -6.69552,6.57633 z m 0,-12.76418 c -3.47489,0 -6.3,2.77482 -6.3,6.18785 0,3.38528 2.82511,6.16011 6.3,6.16011 3.44663,0 6.27175,-2.77483 6.27175,-6.16011 0,-3.41303 -2.82512,-6.18785 -6.27175,-6.18785 z"
       fill-rule="evenodd"
       id="path197"
       style="stroke-width:0.264583" />
    <path
       fill="#54b7e3"
       d="m 113.79444,151.07599 c -0.48073,0 -0.87663,-0.35853 -0.87663,-0.82738 0,-0.46885 0.3959,-0.85495 0.87663,-0.85495 0.48073,0 0.84835,0.3861 0.84835,0.85495 0,0.46885 -0.36762,0.82738 -0.84835,0.82738 z m 0,-1.26864 c -0.2545,0 -0.45246,0.19305 -0.45246,0.44126 0,0.22064 0.19796,0.41369 0.45246,0.41369 0.22622,0 0.42418,-0.19305 0.42418,-0.41369 0,-0.24821 -0.19796,-0.44126 -0.42418,-0.44126 z"
       fill-rule="evenodd"
       id="path199"
       style="stroke-width:0.264583" />
    <path
       fill="#54b7e3"
       d="m 113.99929,147.8884 c -0.42433,0 -0.42433,0 -0.42433,0 0,-1.69034 0,-1.69034 0,-1.69034 0.22631,0 0.22631,0 0.22631,0 1.07496,0 1.9519,-0.85902 1.9519,-1.91202 0,-1.05299 -0.87694,-1.91202 -1.9519,-1.91202 -0.79208,0 -1.49928,0.47108 -1.81046,1.13613 -0.0849,0.22168 -0.0849,0.22168 -0.0849,0.22168 -0.39604,-0.19397 -0.39604,-0.19397 -0.39604,-0.19397 0.0849,-0.19397 0.0849,-0.19397 0.0849,-0.19397 0.36774,-0.83132 1.24468,-1.41324 2.20649,-1.41324 1.30127,0 2.37623,1.053 2.37623,2.35539 0,1.21927 -0.96181,2.21684 -2.17821,2.32768 z"
       fill-rule="evenodd"
       id="path201"
       style="stroke-width:0.264583" />
  </g>
</svg>
