<?xml version="1.0" encoding="UTF-8" standalone="no"?>
<!-- Created with Inkscape (http://www.inkscape.org/) -->

<svg
   width="11.897276mm"
   height="13.181546mm"
   viewBox="0 0 11.897276 13.181546"
   version="1.1"
   id="svg1715"
   inkscape:version="1.1 (c4e8f9e, 2021-05-24)"
   sodipodi:docname="secure-handshake.svg"
   xmlns:inkscape="http://www.inkscape.org/namespaces/inkscape"
   xmlns:sodipodi="http://sodipodi.sourceforge.net/DTD/sodipodi-0.dtd"
   xmlns="http://www.w3.org/2000/svg"
   xmlns:svg="http://www.w3.org/2000/svg">
  <sodipodi:namedview
     id="namedview1717"
     pagecolor="#ffffff"
     bordercolor="#666666"
     borderopacity="1.0"
     inkscape:pageshadow="2"
     inkscape:pageopacity="0.0"
     inkscape:pagecheckerboard="0"
     inkscape:document-units="mm"
     showgrid="false"
     inkscape:zoom="0.63250561"
     inkscape:cx="-260.07674"
     inkscape:cy="404.73949"
     inkscape:window-width="950"
     inkscape:window-height="932"
     inkscape:window-x="0"
     inkscape:window-y="28"
     inkscape:window-maximized="0"
     inkscape:current-layer="layer1" />
  <defs
     id="defs1712" />
  <g
     inkscape:label="Layer 1"
     inkscape:groupmode="layer"
     id="layer1"
     transform="translate(-173.92461,-41.514631)">
    <path
       fill="#54b7e3"
       d="m 180.92538,43.9318 c -0.30181,0 -0.30181,0 -0.30181,0 0,-0.230436 0,-0.230436 0,-0.230436 0,-0.388861 -0.33198,-0.705715 -0.73944,-0.705715 -0.40743,0 -0.73942,0.316854 -0.73942,0.705715 0,0.230436 0,0.230436 0,0.230436 -0.29677,0 -0.29677,0 -0.29677,0 0,1.809895 0,1.809895 0,1.809895 2.07744,0 2.07744,0 2.07744,0 z m -1.4688,-0.230436 c 0,-0.225637 0.19115,-0.408067 0.42755,-0.408067 0.23642,0 0.42758,0.18243 0.42758,0.408067 0,0.230436 0,0.230436 0,0.230436 -0.85513,0 -0.85513,0 -0.85513,0 z m 1.15693,1.742683 c -1.45874,0 -1.45874,0 -1.45874,0 0,-1.214599 0,-1.214599 0,-1.214599 1.45874,0 1.45874,0 1.45874,0 z"
       fill-rule="evenodd"
       id="path1636"
       style="stroke-width:0.264583" />
    <path
       fill="#54b7e3"
       d="m 174.78856,47.139711 c 0,0.0048 0,0.0097 0.005,0.01447 0,0 0,0.0048 0,0.0048 0.0202,0.06271 0.081,0.110947 0.15182,0.110947 0.0557,0 0.10122,-0.02894 0.13158,-0.06753 0,0 0,0 0,0 0.005,-0.0097 0.0101,-0.01929 0.0101,-0.02413 0,0 0,0 0,-0.0048 0.0101,-0.01929 0.25811,-0.588505 1.08808,-0.588505 0.82999,0 1.07796,0.564383 1.08808,0.588505 0,0.0048 0,0.0048 0,0.0048 0.0101,0.0097 0.0152,0.02413 0.0253,0.03377 0,0 0,0.0048 0.005,0.0048 0.005,0.0097 0.0152,0.01929 0.0253,0.02413 0.005,0 0.005,0.0048 0.005,0.0048 0.0101,0.0048 0.0202,0.0097 0.0304,0.01447 0,0 0.005,0 0.005,0 0.005,0 0.005,0.0048 0.0101,0.0048 0.0101,0 0.0253,0.0048 0.0354,0.0048 0,0 0.005,0 0.005,0 0,0 0,0 0,0 0.005,0 0.0101,0 0.0152,0 0.005,0 0.0101,0 0.0152,-0.0048 0.005,0 0.0101,0 0.0152,0 0.005,-0.0048 0.005,-0.0048 0.0101,-0.0048 0,0 0.005,0 0.005,0 0.005,-0.0048 0.0101,-0.0048 0.0152,-0.0097 0.005,0 0.005,-0.0048 0.0101,-0.0048 0.005,-0.0048 0.0101,-0.0097 0.0152,-0.0097 0,-0.0048 0.005,-0.0048 0.0101,-0.0097 0,-0.0048 0.005,-0.0097 0.0101,-0.0097 0,-0.0048 0.005,-0.0097 0.0101,-0.01447 0,0 0,-0.0048 0.005,-0.0097 0,-0.0048 0.005,-0.0097 0.005,-0.01447 0,0 0.005,0 0.005,-0.0048 0,-0.0048 0.24799,-0.588505 1.08808,-0.588505 0.82492,0 1.0729,0.564383 1.08301,0.588505 0.005,0.0048 0.005,0.0048 0.005,0.0048 0.005,0.0097 0.0101,0.02413 0.0202,0.03377 0,0 0.005,0.0048 0.005,0.0097 0.0101,0.0048 0.0152,0.0097 0.0253,0.01929 0.005,0 0.005,0.0048 0.0101,0.0048 0.0101,0.0048 0.0152,0.0097 0.0253,0.01447 0,0 0,0 0.005,0 0.005,0 0.0101,0.0048 0.0152,0.0048 0.0101,0 0.0152,0.0048 0.0253,0.0048 0.005,0 0.005,0 0.0101,0 0.0202,0 0.0405,-0.0048 0.0557,-0.0097 0.0304,-0.01447 0.0557,-0.03376 0.0759,-0.05788 0,0 0,-0.0048 0.005,-0.0048 0,-0.0048 0.005,-0.01447 0.0101,-0.01929 0,0 0,0 0,-0.0048 0.0101,-0.01929 0.2581,-0.588505 1.08808,-0.588505 0.82491,0 1.07289,0.564383 1.08808,0.588505 0,0.0048 0,0.0048 0,0.0048 0.005,0.0097 0.0101,0.02413 0.0202,0.03377 0,0 0.005,0.0048 0.0101,0.0097 0.005,0.0048 0.0101,0.0097 0.0202,0.01929 0.005,0 0.0101,0.0048 0.0101,0.0048 0.0101,0.0048 0.0152,0.0097 0.0253,0.01447 0,0 0.005,0 0.005,0 0.005,0 0.0101,0.0048 0.0152,0.0048 0.0101,0 0.0202,0.0048 0.0253,0.0048 0.005,0 0.0101,0 0.0101,0 0.0152,0 0.0253,0 0.0354,-0.0048 0,0 0,0 0,0 0.0101,0 0.0152,-0.0048 0.0202,-0.0048 0.005,0 0.005,0 0.005,-0.0048 0.005,0 0.005,0 0.005,0 0.0101,-0.0048 0.0152,-0.0097 0.0253,-0.0097 0,-0.0048 0,-0.0048 0,-0.0048 0.0101,-0.0048 0.0152,-0.0097 0.0202,-0.01447 0,0 0,-0.0048 0.005,-0.0048 0.005,-0.0048 0.0101,-0.0097 0.0152,-0.01929 0,0 0,-0.0048 0.005,-0.0048 0,-0.0048 0.005,-0.01447 0.0101,-0.01929 0,0 0,0 0,-0.0048 0.0101,-0.01929 0.25811,-0.588504 1.08808,-0.588504 0.82999,0 1.07797,0.564382 1.08808,0.588504 0,0.0048 0,0.0048 0,0.0048 0.005,0.0097 0.0101,0.02413 0.0202,0.03377 0.005,0 0.005,0.0048 0.005,0.0048 0.0101,0.0097 0.0202,0.01929 0.0304,0.02894 0,0 0,0 0,0 0.0152,0.0048 0.0253,0.0097 0.0405,0.01447 0,0 0.005,0.0048 0.005,0.0048 0.0152,0 0.0304,0.0048 0.0456,0.0048 0.005,0 0.0152,0 0.0253,-0.0048 0.005,0 0.0101,0 0.0152,0 0.005,-0.0048 0.0101,-0.0048 0.0152,-0.0048 0,0 0,0 0,0 0.005,-0.0048 0.0101,-0.0048 0.0152,-0.0097 0.005,0 0.0101,-0.0048 0.0101,-0.0048 0.005,-0.0048 0.0101,-0.0048 0.0152,-0.0097 0.005,-0.0048 0.0101,-0.0048 0.0101,-0.0097 0.005,-0.0048 0.005,-0.0048 0.0101,-0.0097 0.005,-0.0048 0.005,-0.0097 0.0101,-0.0097 0.005,-0.0048 0.005,-0.0097 0.0101,-0.01447 0,-0.0048 0,-0.0097 0.005,-0.01447 0,-0.0048 0,-0.0097 0.005,-0.0097 0,-0.0048 0,-0.0097 0.005,-0.01447 0,-0.0048 0,-0.0097 0,-0.01447 0,-0.0048 0,-0.0097 0,-0.01447 0,-0.0048 0,-0.0048 0,-0.0048 0,-2.624137 -2.19641,-4.765899 -4.92925,-4.843078 0,-0.612625 0,-0.612625 0,-0.612625 0,-0.082 -0.0709,-0.149534 -0.15689,-0.149534 -0.086,0 -0.15689,0.06753 -0.15689,0.149534 0,0.612625 0,0.612625 0,0.612625 -2.73286,0.07718 -4.92926,2.218941 -4.92926,4.843078 0,0 0,0 0,0.0048 0,0.0048 0,0.0097 0,0.01447 z m 5.08616,-4.568129 c 2.46463,0 4.49908,1.784805 4.74706,4.071276 -0.21255,-0.1833 -0.54656,-0.352134 -1.04759,-0.352134 -0.68321,0 -1.05265,0.313548 -1.23484,0.540266 -0.17714,-0.226718 -0.55163,-0.540266 -1.22979,-0.540266 -0.68321,0 -1.05265,0.313548 -1.23484,0.540266 -0.18219,-0.226718 -0.55163,-0.540266 -1.22979,-0.540266 -0.68321,0 -1.05266,0.313548 -1.23485,0.540266 -0.18218,-0.226718 -0.55163,-0.540266 -1.23484,-0.540266 -0.50102,0 -0.83505,0.168834 -1.0476,0.352134 0.24798,-2.286471 2.28244,-4.071276 4.74708,-4.071276 z"
       fill-rule="evenodd"
       id="path1638"
       style="stroke-width:0.264583" />
    <path
       fill="#54b7e3"
       d="m 179.88665,47.508721 c -0.0851,0 -0.15521,0.06732 -0.15521,0.149061 0,1.803198 0,1.803198 0,1.803198 0,0.08175 0.0701,0.149061 0.15521,0.149061 0.0851,0 0.1552,-0.06732 0.1552,-0.149061 0,-1.803198 0,-1.803198 0,-1.803198 0,-0.08174 -0.0701,-0.149061 -0.1552,-0.149061 z"
       fill-rule="evenodd"
       id="path1640"
       style="stroke-width:0.264583" />
    <path
       fill="#54b7e3"
       d="m 185.60689,53.014451 c -0.77304,0.289121 -0.77304,0.289121 -0.77304,0.289121 -1.52589,-3.551389 -1.52589,-3.551389 -1.52589,-3.551389 2.41514,-0.934831 2.41514,-0.934831 2.41514,-0.934831 0.0808,-0.02891 0.12126,-0.115646 0.0859,-0.192749 -0.0303,-0.0771 -0.12126,-0.110831 -0.20211,-0.08192 -2.70314,1.04566 -2.70314,1.04566 -2.70314,1.04566 0.13137,0.313217 0.13137,0.313217 0.13137,0.313217 -0.98021,0.390313 -0.98021,0.390313 -0.98021,0.390313 -1.52083,-0.34213 -1.52083,-0.34213 -1.52083,-0.34213 -0.25769,-0.04818 -0.50527,-0.08192 -0.77305,0.02891 -0.39915,0.168656 -0.39915,0.168656 -0.39915,0.168656 -0.68717,-0.139745 -1.47536,-0.101193 -1.65726,-0.09156 -0.99537,-0.395134 -0.99537,-0.395134 -0.99537,-0.395134 0.13137,-0.313216 0.13137,-0.313216 0.13137,-0.313216 -2.70315,-1.04566 -2.70315,-1.04566 -2.70315,-1.04566 -0.0808,-0.02891 -0.17179,0.0048 -0.2021,0.08192 -0.0303,0.0771 0.005,0.163835 0.0859,0.192748 2.41515,0.934829 2.41515,0.934829 2.41515,0.934829 -1.52589,3.551388 -1.52589,3.551388 -1.52589,3.551388 -0.77305,-0.293936 -0.77305,-0.293936 -0.77305,-0.293936 -0.0808,-0.02892 -0.17179,0.0096 -0.2021,0.08674 -0.0303,0.0771 0.005,0.163832 0.0859,0.192749 1.06105,0.399949 1.06105,0.399949 1.06105,0.399949 0.50021,-1.161309 0.50021,-1.161309 0.50021,-1.161309 1.14189,0.42405 1.14189,0.42405 1.14189,0.42405 0.16168,-0.366225 0.16168,-0.366225 0.16168,-0.366225 0.12126,0.08192 0.29811,0.207205 0.52042,0.375861 -0.0758,0.284306 -0.0758,0.284306 -0.0758,0.284306 -0.0556,0.216839 0.0152,0.448138 0.19201,0.597516 1.0863,0.925193 1.0863,0.925193 1.0863,0.925193 0.12126,0.101195 0.27284,0.154199 0.42443,0.154199 0.0909,0 0.18188,-0.01929 0.26273,-0.053 0.23243,-0.101195 0.23243,-0.101195 0.23243,-0.101195 0.0404,0.03373 0.0404,0.03373 0.0404,0.03373 0.096,0.08674 0.2223,0.134925 0.34862,0.134925 0.0556,0 0.11115,-0.0096 0.16674,-0.0241 0.1162,-0.03855 0.20715,-0.115652 0.26778,-0.212024 0.0556,0.0241 0.11622,0.03373 0.1819,0.03855 0.0101,0 0.0202,0 0.0354,0 0.1819,0 0.42948,-0.07228 0.63159,-0.375862 0.0101,0 0.0202,0 0.0303,0 0.0505,0 0.1061,-0.0048 0.15663,-0.01926 0.22737,-0.04819 0.4042,-0.197569 0.48504,-0.40477 0.0253,0 0.0505,-0.0048 0.0758,-0.0096 0.17685,-0.03373 0.32338,-0.154202 0.38401,-0.318034 0.0505,-0.144561 0.0253,-0.308401 -0.0808,-0.428866 -0.0253,-0.03373 -0.0253,-0.03373 -0.0253,-0.03373 0.68209,-0.202385 0.68209,-0.202385 0.68209,-0.202385 0.11621,0.245753 0.11621,0.245753 0.11621,0.245753 1.14189,-0.424045 1.14189,-0.424045 1.14189,-0.424045 0.49515,1.161309 0.49515,1.161309 0.49515,1.161309 1.06105,-0.399955 1.06105,-0.399955 1.06105,-0.399955 0.0808,-0.02891 0.12126,-0.115646 0.0859,-0.192748 -0.0303,-0.0771 -0.12126,-0.115647 -0.20211,-0.08191 z m -5.71954,-2.765941 c 0.16673,-0.06746 0.32842,-0.05783 0.57599,-0.0096 1.49557,0.33731 1.49557,0.33731 1.49557,0.33731 0.51032,1.146852 0.51032,1.146852 0.51032,1.146852 -0.40926,0.226478 -0.78316,0.216839 -1.09641,0.110831 -0.13137,-0.04819 -0.13137,-0.04819 -0.13137,-0.04819 -0.45979,-0.212024 -0.75285,-0.611974 -0.77811,-0.64089 -0.16673,-0.22166 -0.34358,-0.332489 -0.53557,-0.332489 -0.0101,0 -0.0253,0.0048 -0.0354,0.0048 -0.30822,0.0241 -0.48001,0.332494 -0.50021,0.366225 -0.005,0.0096 -0.005,0.0096 -0.005,0.0096 -0.0859,0.207203 -0.19705,0.33731 -0.31326,0.375857 -0.0859,0.03373 -0.1819,0.0241 -0.288,-0.02891 -0.0404,-0.01447 -0.0556,-0.05783 -0.0455,-0.101195 0.16169,-0.520419 0.16169,-0.520419 0.16169,-0.520419 0.0556,-0.187931 0.19705,-0.337312 0.384,-0.414409 z m -4.18862,1.763649 c 0.89431,-2.076865 0.89431,-2.076865 0.89431,-2.076865 0.87916,0.351763 0.87916,0.351763 0.87916,0.351763 -0.79326,1.76847 -0.79326,1.76847 -0.79326,1.76847 0,0 0,0.0048 0,0.0048 -0.12632,0.269846 -0.12632,0.269846 -0.12632,0.269846 z m 3.47114,2.346711 c -0.11621,0.04819 -0.25767,0.02891 -0.35368,-0.053 -1.0863,-0.925195 -1.0863,-0.925195 -1.0863,-0.925195 -0.091,-0.0771 -0.12632,-0.192749 -0.096,-0.303577 0.0404,-0.154199 0.0404,-0.154199 0.0404,-0.154199 0.42443,0.332488 0.9499,0.766175 1.49557,1.27214 0.11622,0.110831 0.11622,0.110831 0.11622,0.110831 z m 2.83957,-1.23359 c 0.0354,0.04337 0.0455,0.09637 0.0253,0.149381 -0.0202,0.06264 -0.0758,0.110831 -0.15158,0.125285 -0.0707,0.01445 -0.14146,-0.0048 -0.19199,-0.05782 -1.22273,-1.238409 -1.22273,-1.238409 -1.22273,-1.238409 -0.0556,-0.05783 -0.15664,-0.05783 -0.21727,-0.0048 -0.0657,0.05783 -0.0657,0.149381 -0.005,0.212021 1.21767,1.233594 1.21767,1.233594 1.21767,1.233594 0.0354,0.03373 0.0657,0.06264 0.10612,0.08192 -0.0505,0.09638 -0.13643,0.163837 -0.25263,0.187928 -0.13138,0.02892 -0.2678,-0.0096 -0.35874,-0.101193 -1.03073,-1.026382 -1.03073,-1.026382 -1.03073,-1.026382 -0.0556,-0.05783 -0.15663,-0.06264 -0.21727,-0.0048 -0.0657,0.05782 -0.0657,0.149381 -0.005,0.212023 1.02568,1.026385 1.02568,1.026385 1.02568,1.026385 0.0455,0.04337 0.096,0.08192 0.15159,0.110832 -0.096,0.120467 -0.20716,0.173474 -0.33348,0.168653 -0.0909,-0.0048 -0.18695,-0.04819 -0.25768,-0.125286 -0.85389,-0.901096 -0.85389,-0.901096 -0.85389,-0.901096 -0.0556,-0.06265 -0.15663,-0.06746 -0.21727,-0.01445 -0.0657,0.05782 -0.0707,0.149381 -0.0101,0.212023 0.84885,0.9011 0.84885,0.9011 0.84885,0.9011 0.0101,0.0096 0.0202,0.01926 0.0303,0.02891 -0.0303,0.05782 -0.0808,0.0771 -0.10612,0.08673 -0.0707,0.0241 -0.14652,0.0096 -0.2021,-0.04337 -0.3941,-0.361405 -0.3941,-0.361405 -0.3941,-0.361405 -0.63662,-0.592701 -1.25304,-1.089028 -1.70777,-1.435976 -0.005,0 -0.005,-0.0048 -0.0101,-0.0048 -0.29811,-0.22648 -0.53053,-0.390318 -0.65684,-0.477054 0.76799,-1.71546 0.76799,-1.71546 0.76799,-1.71546 0.19705,-0.0096 0.66189,-0.0241 1.13179,0.02891 -0.14653,0.12047 -0.25768,0.274669 -0.30821,0.457779 -0.16169,0.52042 -0.16169,0.52042 -0.16169,0.52042 -0.0556,0.178292 0.0303,0.371041 0.20211,0.452958 0.18695,0.08674 0.37389,0.101196 0.53558,0.03855 0.20715,-0.07228 0.36884,-0.250569 0.49515,-0.534874 0.0253,-0.04819 0.12632,-0.192749 0.24253,-0.202385 0.0859,-0.0048 0.18695,0.06746 0.29305,0.202385 0.005,0.0096 0.34862,0.48187 0.89936,0.737261 0.005,0.0048 0.005,0.0096 0.0101,0.0096 0.72252,0.862547 0.72252,0.862547 0.72252,0.862547 0.0606,0.08674 0.0606,0.08674 0.0606,0.08674 0.0101,-0.0048 0.0101,-0.0048 0.0101,-0.0048 z m 0.0152,-0.467416 c -0.33853,-0.452956 -0.33853,-0.452956 -0.33853,-0.452956 0.25769,0.0241 0.5962,0.0048 0.91453,-0.187934 0.0455,0.101193 0.0455,0.101193 0.0455,0.101193 0.14148,0.313219 0.14148,0.313219 0.14148,0.313219 z m 1.16715,-0.08674 c -0.32842,-0.732446 -0.32842,-0.732446 -0.32842,-0.732446 0,0 0,0 0,0 -0.59115,-1.310687 -0.59115,-1.310687 -0.59115,-1.310687 0.8842,-0.351766 0.8842,-0.351766 0.8842,-0.351766 0.88925,2.076862 0.88925,2.076862 0.88925,2.076862 z"
       fill-rule="evenodd"
       id="path1642"
       style="stroke-width:0.264583" />
  </g>
</svg>
