<?xml version="1.0" encoding="UTF-8" standalone="no"?>
<!-- Created with Inkscape (http://www.inkscape.org/) -->

<svg
   width="210mm"
   height="297mm"
   viewBox="0 0 210 297"
   version="1.1"
   id="svg1164"
   inkscape:version="1.1 (c4e8f9e, 2021-05-24)"
   sodipodi:docname="settings.svg"
   xmlns:inkscape="http://www.inkscape.org/namespaces/inkscape"
   xmlns:sodipodi="http://sodipodi.sourceforge.net/DTD/sodipodi-0.dtd"
   xmlns="http://www.w3.org/2000/svg"
   xmlns:svg="http://www.w3.org/2000/svg">
  <sodipodi:namedview
     id="namedview1166"
     pagecolor="#ffffff"
     bordercolor="#666666"
     borderopacity="1.0"
     inkscape:pageshadow="2"
     inkscape:pageopacity="0.0"
     inkscape:pagecheckerboard="0"
     inkscape:document-units="mm"
     showgrid="false"
     inkscape:zoom="0.63250561"
     inkscape:cx="397.62493"
     inkscape:cy="561.25984"
     inkscape:window-width="1536"
     inkscape:window-height="932"
     inkscape:window-x="0"
     inkscape:window-y="28"
     inkscape:window-maximized="0"
     inkscape:current-layer="layer1" />
  <defs
     id="defs1161" />
  <g
     inkscape:label="Layer 1"
     inkscape:groupmode="layer"
     id="layer1">
    <path
       fill="#54b7e3"
       d="m 75.295796,96.491177 c -1.809912,0 -3.290748,-1.429547 -3.290748,-3.191553 0,-1.755351 1.480836,-3.191544 3.290748,-3.191544 1.816769,0 3.29075,1.436193 3.29075,3.191544 0,1.762004 -1.473981,3.191553 -3.29075,3.191553 z m 0,-6.077247 c -1.63852,0 -2.975383,1.296573 -2.975383,2.885694 0,1.595777 1.336863,2.885692 2.975383,2.885692 1.645377,0 2.982243,-1.289915 2.982243,-2.885692 0,-1.589121 -1.336866,-2.885694 -2.982243,-2.885694 z"
       fill-rule="evenodd"
       id="path597"
       style="stroke-width:0.264583" />
    <path
       fill="#54b7e3"
       d="m 75.666151,99.13701 c -0.740756,0 -0.740756,0 -0.740756,0 -0.41153,0 -0.754478,-0.325956 -0.754478,-0.731737 0,-0.186261 -0.123457,-0.352573 -0.308644,-0.405783 -0.342945,-0.09313 -0.672169,-0.232826 -0.987679,-0.399135 -0.171469,-0.08648 -0.377233,-0.05322 -0.514411,0.07982 0,0 -0.0069,0 -0.0069,0 -0.294931,0.279392 -0.768194,0.279392 -1.063125,0 -0.521271,-0.51222 -0.521271,-0.51222 -0.521271,-0.51222 -0.294931,-0.286036 -0.294931,-0.745046 0,-1.031082 0.137178,-0.133051 0.16461,-0.339264 0.07545,-0.498919 -0.171474,-0.305999 -0.308649,-0.631955 -0.411533,-0.964565 -0.05487,-0.172955 -0.226343,-0.299352 -0.418391,-0.299352 -0.41153,0 -0.754472,-0.325956 -0.754472,-0.73174 0,-0.718431 0,-0.718431 0,-0.718431 0,-0.399134 0.342942,-0.731745 0.754472,-0.731745 0.192048,0 0.363519,-0.119737 0.418391,-0.299344 0.102884,-0.33261 0.240059,-0.651915 0.411533,-0.957919 0.08916,-0.166301 0.06173,-0.365871 -0.07545,-0.498911 0,-0.0066 -0.0069,-0.0066 -0.0069,-0.0066 -0.288073,-0.279392 -0.288073,-0.745046 0.0069,-1.031092 0.521271,-0.505563 0.521271,-0.505563 0.521271,-0.505563 0.294931,-0.286047 0.768194,-0.286047 1.063125,0 0,0 0.0069,0 0.0069,0 0.137178,0.133043 0.349803,0.159655 0.514411,0.07318 0.31551,-0.166309 0.644734,-0.299352 0.987679,-0.399137 0.185187,-0.05322 0.308644,-0.21952 0.308644,-0.405781 0,-0.399134 0.342948,-0.731737 0.754478,-0.731737 0.740756,0 0.740756,0 0.740756,0 0.418389,0 0.754473,0.332603 0.754473,0.731737 0,0.186261 0.130318,0.352563 0.30865,0.405781 0.342939,0.09978 0.679024,0.232828 0.994531,0.399137 0.164614,0.08648 0.377238,0.05987 0.514417,-0.07318 0,0 0,0 0,0 0.294931,-0.286047 0.775049,-0.286047 1.063119,0 0.528135,0.505563 0.528135,0.505563 0.528135,0.505563 0.294931,0.286046 0.294931,0.7517 0,1.037746 -0.137178,0.13304 -0.171474,0.33261 -0.08231,0.498912 0.171472,0.306003 0.315508,0.625308 0.411531,0.957918 0.05487,0.179607 0.22634,0.299344 0.418388,0.299344 0.418394,0 0.754475,0.332611 0.754475,0.731745 0,0.718431 0,0.718431 0,0.718431 0,0.405784 -0.336081,0.73174 -0.754475,0.73174 -0.192048,0 -0.363519,0.126397 -0.418388,0.299352 -0.09602,0.332611 -0.240059,0.658567 -0.411531,0.964565 -0.08917,0.159655 -0.05487,0.365869 0.08231,0.49892 0,0 0,0.0066 0.0069,0.0066 0.130318,0.133048 0.212624,0.312658 0.212624,0.512217 0,0.192913 -0.08231,0.379175 -0.219482,0.512218 -0.528135,0.51222 -0.528135,0.51222 -0.528135,0.51222 -0.28807,0.279392 -0.768189,0.279392 -1.06312,0 0,0 0,0 0,0 -0.137178,-0.133043 -0.349803,-0.166301 -0.514416,-0.07982 -0.315508,0.166309 -0.651592,0.306004 -0.994532,0.399134 -0.178331,0.05321 -0.308649,0.219523 -0.308649,0.405781 0,0.405784 -0.336085,0.73174 -0.754473,0.73174 z M 72.66883,97.247792 c 0.123462,0 0.24692,0.02661 0.356661,0.08648 0.294931,0.159649 0.603581,0.279392 0.925944,0.372523 0.315507,0.09313 0.534992,0.379177 0.534992,0.698478 0,0.239483 0.198906,0.425744 0.438968,0.425744 0.740756,0 0.740756,0 0.740756,0 0.246918,0 0.438963,-0.186261 0.438963,-0.425744 0,-0.319301 0.219485,-0.605348 0.534993,-0.698478 0.322368,-0.09313 0.637873,-0.212874 0.932804,-0.372523 0.28807,-0.153001 0.651592,-0.09978 0.884793,0.126389 0,0 0,0 0,0 0.08231,0.07982 0.198906,0.126391 0.315505,0.126391 0.116602,0 0.226343,-0.04657 0.30865,-0.126391 0.521274,-0.505564 0.521274,-0.505564 0.521274,-0.505564 0.08231,-0.07982 0.130318,-0.186261 0.130318,-0.299352 0,-0.113083 -0.04801,-0.226174 -0.130318,-0.305998 0,0 0,0 0,0 -0.233204,-0.226171 -0.288073,-0.578742 -0.130318,-0.858134 0.164611,-0.286038 0.288073,-0.592042 0.384093,-0.904692 0.09602,-0.306007 0.390956,-0.518872 0.72018,-0.518872 0.24692,0 0.438968,-0.192916 0.438968,-0.425741 0,-0.718434 0,-0.718434 0,-0.718434 0,-0.232825 -0.192048,-0.425741 -0.438968,-0.425741 -0.329224,0 -0.624155,-0.212873 -0.72018,-0.518872 -0.09602,-0.31265 -0.219482,-0.612002 -0.384093,-0.898046 -0.157755,-0.279392 -0.102886,-0.631954 0.130318,-0.864782 0,0 0,0 0,0 0.171471,-0.16631 0.171471,-0.432393 0,-0.598694 -0.521274,-0.51222 -0.521274,-0.51222 -0.521274,-0.51222 -0.171469,-0.16631 -0.452686,-0.16631 -0.624155,0 0,0 0,0.0066 0,0.0066 -0.233201,0.226181 -0.59672,0.272745 -0.884793,0.119745 -0.294931,-0.153003 -0.610436,-0.279392 -0.932804,-0.372523 -0.315508,-0.08648 -0.534993,-0.372523 -0.534993,-0.698481 0,-0.232826 -0.192045,-0.425741 -0.438963,-0.425741 -0.740756,0 -0.740756,0 -0.740756,0 -0.240062,0 -0.438968,0.192915 -0.438968,0.425741 0,0.325958 -0.219485,0.612002 -0.534992,0.698481 -0.322363,0.09313 -0.631013,0.21952 -0.925944,0.372523 -0.288073,0.153 -0.651592,0.106436 -0.891649,-0.119745 0,0 0,-0.0066 0,-0.0066 -0.171473,-0.16631 -0.445828,-0.16631 -0.617299,0 -0.52813,0.51222 -0.52813,0.51222 -0.52813,0.51222 -0.171473,0.166301 -0.171473,0.432384 0,0.598694 0,0 0.0069,0 0.0069,0 0.233201,0.232828 0.281215,0.58539 0.123463,0.864782 -0.157755,0.286044 -0.288073,0.585396 -0.384099,0.898046 -0.08917,0.305999 -0.384098,0.518872 -0.72018,0.518872 -0.240061,0 -0.438967,0.192916 -0.438967,0.425741 0,0.718434 0,0.718434 0,0.718434 0,0.232825 0.198906,0.425741 0.438967,0.425741 0.336082,0 0.631013,0.212865 0.72018,0.518872 0.09603,0.31265 0.226344,0.618654 0.384099,0.904692 0.157752,0.279392 0.109738,0.631963 -0.123463,0.858134 0,0 -0.0069,0 -0.0069,0 -0.171473,0.166301 -0.171473,0.439049 0,0.60535 0.52813,0.505564 0.52813,0.505564 0.52813,0.505564 0.171471,0.166311 0.445826,0.166311 0.617299,0 0,0 0,0 0.0069,0 0.144037,-0.139695 0.336082,-0.212866 0.52813,-0.212866 z"
       fill-rule="evenodd"
       id="path599"
       style="stroke-width:0.264583" />
  </g>
</svg>
