<?xml version="1.0" encoding="UTF-8" standalone="no"?>
<!-- Created with Inkscape (http://www.inkscape.org/) -->

<svg
   width="9.5844421mm"
   height="12.133368mm"
   viewBox="0 0 9.5844421 12.133368"
   version="1.1"
   id="svg926"
   inkscape:version="1.1 (c4e8f9e, 2021-05-24)"
   sodipodi:docname="settings-sliders.svg"
   xmlns:inkscape="http://www.inkscape.org/namespaces/inkscape"
   xmlns:sodipodi="http://sodipodi.sourceforge.net/DTD/sodipodi-0.dtd"
   xmlns="http://www.w3.org/2000/svg"
   xmlns:svg="http://www.w3.org/2000/svg">
  <sodipodi:namedview
     id="namedview928"
     pagecolor="#ffffff"
     bordercolor="#666666"
     borderopacity="1.0"
     inkscape:pageshadow="2"
     inkscape:pageopacity="0.0"
     inkscape:pagecheckerboard="0"
     inkscape:document-units="mm"
     showgrid="false"
     inkscape:zoom="0.63250561"
     inkscape:cx="103.55639"
     inkscape:cy="278.2584"
     inkscape:window-width="950"
     inkscape:window-height="932"
     inkscape:window-x="0"
     inkscape:window-y="28"
     inkscape:window-maximized="0"
     inkscape:current-layer="layer1" />
  <defs
     id="defs923" />
  <g
     inkscape:label="Layer 1"
     inkscape:groupmode="layer"
     id="layer1"
     transform="translate(-77.614821,-75.085429)">
    <path
       fill="#54b7e3"
       d="m 79.220101,76.752616 c 0,-1.667187 0,-1.667187 0,-1.667187 -0.440671,0 -0.440671,0 -0.440671,0 0,1.667187 0,1.667187 0,1.667187 -0.66099,0.123491 -1.164609,0.679222 -1.164609,1.327568 0,0.679222 0.503619,1.234945 1.164609,1.327568 0,7.811045 0,7.811045 0,7.811045 0.440671,0 0.440671,0 0.440671,0 0,-7.811045 0,-7.811045 0,-7.811045 0.629516,-0.09262 1.133137,-0.648346 1.133137,-1.327568 0,-0.648346 -0.503621,-1.204077 -1.133137,-1.327568 z m -0.220334,2.253779 c -0.535093,0 -0.94429,-0.432234 -0.94429,-0.926211 0,-0.49398 0.409197,-0.895342 0.94429,-0.895342 0.503619,0 0.912799,0.401362 0.912799,0.895342 0,0.493977 -0.40918,0.926211 -0.912799,0.926211 z"
       fill-rule="evenodd"
       id="path737"
       style="stroke-width:0.264583" />
    <path
       fill="#54b7e3"
       d="m 82.650176,80.117848 c 0,-5.032419 0,-5.032419 0,-5.032419 -0.440672,0 -0.440672,0 -0.440672,0 0,5.032419 0,5.032419 0,5.032419 -0.66099,0.09262 -1.164608,0.648346 -1.164608,1.327569 0,0.648345 0.503618,1.204076 1.164608,1.296699 0,4.476681 0,4.476681 0,4.476681 0.440672,0 0.440672,0 0.440672,0 0,-4.476681 0,-4.476681 0,-4.476681 0.629515,-0.09262 1.133136,-0.648354 1.133136,-1.296699 0,-0.679223 -0.503621,-1.234946 -1.133136,-1.327569 z m -0.220335,2.222903 c -0.535093,0 -0.944274,-0.401357 -0.944274,-0.895334 0,-0.524857 0.409181,-0.926211 0.944274,-0.926211 0.503619,0 0.912815,0.401354 0.912815,0.926211 0,0.493977 -0.409196,0.895334 -0.912815,0.895334 z"
       fill-rule="evenodd"
       id="path739"
       style="stroke-width:0.264583" />
    <path
       fill="#54b7e3"
       d="m 87.199263,84.841529 c 0,-0.648354 -0.501021,-1.204077 -1.127305,-1.296699 0,-8.459399 0,-8.459399 0,-8.459399 -0.438394,0 -0.438394,0 -0.438394,0 0,8.459399 0,8.459399 0,8.459399 -0.657582,0.09262 -1.158602,0.648345 -1.158602,1.296699 0,0.679222 0.50102,1.234945 1.158602,1.327568 0,1.0497 0,1.0497 0,1.0497 0.438394,0 0.438394,0 0.438394,0 0,-1.0497 0,-1.0497 0,-1.0497 0.626284,-0.09262 1.127305,-0.648346 1.127305,-1.327568 z m -1.346494,0.926211 c -0.532331,0 -0.939414,-0.401365 -0.939414,-0.926211 0,-0.493985 0.407083,-0.895342 0.939414,-0.895342 0.501018,0 0.9081,0.401357 0.9081,0.895342 0,0.524846 -0.407082,0.926211 -0.9081,0.926211 z"
       fill-rule="evenodd"
       id="path741"
       style="stroke-width:0.264583" />
  </g>
</svg>
