<?xml version="1.0" encoding="UTF-8" standalone="no"?>
<!-- Created with Inkscape (http://www.inkscape.org/) -->

<svg
   width="11.135119mm"
   height="8.9066582mm"
   viewBox="0 0 11.135119 8.9066582"
   version="1.1"
   id="svg624"
   sodipodi:docname="users.svg"
   inkscape:version="1.1 (c4e8f9e, 2021-05-24)"
   xmlns:inkscape="http://www.inkscape.org/namespaces/inkscape"
   xmlns:sodipodi="http://sodipodi.sourceforge.net/DTD/sodipodi-0.dtd"
   xmlns="http://www.w3.org/2000/svg"
   xmlns:svg="http://www.w3.org/2000/svg">
  <sodipodi:namedview
     id="namedview626"
     pagecolor="#ffffff"
     bordercolor="#666666"
     borderopacity="1.0"
     inkscape:pageshadow="2"
     inkscape:pageopacity="0.0"
     inkscape:pagecheckerboard="0"
     inkscape:document-units="mm"
     showgrid="false"
     inkscape:zoom="0.63250561"
     inkscape:cx="78.260175"
     inkscape:cy="249.80016"
     inkscape:window-width="950"
     inkscape:window-height="932"
     inkscape:window-x="0"
     inkscape:window-y="28"
     inkscape:window-maximized="0"
     inkscape:current-layer="layer1" />
  <defs
     id="defs621" />
  <g
     inkscape:label="Layer 1"
     inkscape:groupmode="layer"
     id="layer1"
     transform="translate(-84.36906,-82.555122)">
    <path
       fill="#54b7e3"
       d="m 86.808971,86.742767 c -0.791077,0 -1.41264,-0.609026 -1.41264,-1.384149 0,-0.775126 0.621563,-1.411833 1.41264,-1.411833 0.791079,0 1.440894,0.636707 1.440894,1.411833 0,0.775123 -0.649815,1.384149 -1.440894,1.384149 z m 0,-2.353053 c -0.536803,0 -0.988849,0.442925 -0.988849,0.968904 0,0.525978 0.452046,0.968904 0.988849,0.968904 0.565058,0 0.988851,-0.442926 0.988851,-0.968904 0,-0.525979 -0.423793,-0.968904 -0.988851,-0.968904 z"
       fill-rule="evenodd"
       id="path367"
       style="stroke-width:0.264583" />
    <path
       fill="#54b7e3"
       d="m 92.962805,86.742767 c -0.791079,0 -1.440894,-0.609026 -1.440894,-1.384149 0,-0.775126 0.649815,-1.411833 1.440894,-1.411833 0.791079,0 1.412642,0.636707 1.412642,1.411833 0,0.775123 -0.621563,1.384149 -1.412642,1.384149 z m 0,-2.353053 c -0.565055,0 -0.988849,0.442925 -0.988849,0.968904 0,0.525978 0.423794,0.968904 0.988849,0.968904 0.536805,0 0.988849,-0.442926 0.988849,-0.968904 0,-0.525979 -0.452044,-0.968904 -0.988849,-0.968904 z"
       fill-rule="evenodd"
       id="path369"
       style="stroke-width:0.264583" />
    <path
       fill="#54b7e3"
       d="m 86.517091,89.994208 c -0.706591,-0.05557 -1.413179,-0.22229 -2.006713,-0.472364 -0.141318,-0.05557 -0.141318,-0.05557 -0.141318,-0.05557 0,-0.1945 0,-0.1945 0,-0.1945 0,-0.944727 0.565271,-1.806091 1.44144,-2.195097 0.141319,-0.05557 0.141319,-0.05557 0.141319,-0.05557 0.113054,0.111146 0.113054,0.111146 0.113054,0.111146 0.197844,0.222287 0.452218,0.333433 0.734851,0.333433 0.310901,0 0.565272,-0.138933 0.734853,-0.333433 0.113055,-0.111146 0.113055,-0.111146 0.113055,-0.111146 0.141319,0.05557 0.141319,0.05557 0.141319,0.05557 0.197844,0.08336 0.367425,0.222289 0.537006,0.333433 -0.282635,0.33343 -0.282635,0.33343 -0.282635,0.33343 -0.08479,-0.05557 -0.197844,-0.13893 -0.282636,-0.1945 -0.254371,0.22229 -0.593534,0.33343 -0.960962,0.33343 -0.339161,0 -0.678324,-0.11114 -0.932697,-0.33343 -0.621796,0.305644 -1.017486,0.944726 -1.04575,1.639374 0.508743,0.194501 1.102278,0.333433 1.724076,0.361217 z"
       fill-rule="evenodd"
       id="path371"
       style="stroke-width:0.264583" />
    <path
       fill="#54b7e3"
       d="m 93.157674,89.994208 c -0.02827,-0.44458 -0.02827,-0.44458 -0.02827,-0.44458 0.735049,-0.02778 1.385283,-0.138927 1.922436,-0.361217 -0.02827,-0.694648 -0.424069,-1.33373 -1.046032,-1.639374 -0.25444,0.22229 -0.593694,0.33343 -0.961218,0.33343 -0.339254,0 -0.678508,-0.11114 -0.932947,-0.33343 -0.169626,0.05557 -0.282711,0.138927 -0.367525,0.250073 -0.310983,-0.305646 -0.310983,-0.305646 -0.310983,-0.305646 0.141357,-0.166717 0.367527,-0.305647 0.621966,-0.41679 0.141355,-0.05557 0.141355,-0.05557 0.141355,-0.05557 0.113085,0.111146 0.113085,0.111146 0.113085,0.111146 0.197897,0.222289 0.452339,0.333433 0.735049,0.333433 0.28271,0 0.565423,-0.138933 0.735049,-0.333433 0.113084,-0.111146 0.113084,-0.111146 0.113084,-0.111146 0.141355,0.05557 0.141355,0.05557 0.141355,0.05557 0.876405,0.389006 1.470101,1.25037 1.470101,2.195097 0,0.166714 0,0.166714 0,0.166714 -0.141359,0.08336 -0.141359,0.08336 -0.141359,0.08336 -0.621964,0.277858 -1.357012,0.444574 -2.205146,0.472363 z"
       fill-rule="evenodd"
       id="path373"
       style="stroke-width:0.264583" />
    <path
       fill="#54b7e3"
       d="m 89.79853,86.52769 c -1.128109,0 -2.030597,-0.888963 -2.030597,-1.972392 0,-1.111211 0.902488,-2.000176 2.030597,-2.000176 1.099906,0 2.002393,0.888965 2.002393,2.000176 0,1.083429 -0.902487,1.972392 -2.002393,1.972392 z m 0,-3.528084 c -0.874285,0 -1.579353,0.694505 -1.579353,1.555692 0,0.861184 0.705068,1.555689 1.579353,1.555689 0.846082,0 1.579353,-0.694505 1.579353,-1.555689 0,-0.861187 -0.733271,-1.555692 -1.579353,-1.555692 z"
       fill-rule="evenodd"
       id="path375"
       style="stroke-width:0.264583" />
    <path
       fill="#54b7e3"
       d="m 89.798577,91.46178 c -1.273289,0 -2.461691,-0.221861 -3.423733,-0.693317 -0.141476,-0.05547 -0.141476,-0.05547 -0.141476,-0.05547 0,-0.221861 0,-0.221861 0,-0.221861 0,-1.358906 0.84886,-2.606882 2.122149,-3.161536 0.141476,-0.05547 0.141476,-0.05547 0.141476,-0.05547 0.11318,0.110929 0.11318,0.110929 0.11318,0.110929 0.282955,0.332799 0.707383,0.526929 1.188404,0.526929 0.424429,0 0.848858,-0.19413 1.160108,-0.526929 0.113181,-0.110929 0.113181,-0.110929 0.113181,-0.110929 0.141477,0.05547 0.141477,0.05547 0.141477,0.05547 1.301584,0.554654 2.122147,1.80263 2.122147,3.161536 0,0.221861 0,0.221861 0,0.221861 -0.141476,0.05547 -0.141476,0.05547 -0.141476,0.05547 -1.018632,0.471456 -2.178739,0.693317 -3.395437,0.693317 z m -3.112483,-1.026113 c 0.877153,0.388261 1.952376,0.610122 3.112483,0.610122 1.103516,0 2.150442,-0.221861 3.084187,-0.610122 -0.02829,-1.137044 -0.679087,-2.135422 -1.697718,-2.662345 -0.396134,0.360529 -0.877153,0.58239 -1.386469,0.58239 -0.53761,0 -1.046926,-0.221861 -1.414765,-0.554654 -1.018631,0.499187 -1.669423,1.525299 -1.697718,2.634609 z"
       fill-rule="evenodd"
       id="path377"
       style="stroke-width:0.264583" />
  </g>
</svg>
