<?xml version="1.0" encoding="UTF-8" standalone="no"?>
<!-- Created with Inkscape (http://www.inkscape.org/) -->

<svg
   width="12.17224mm"
   height="11.198046mm"
   viewBox="0 0 12.17224 11.198046"
   version="1.1"
   id="svg1164"
   inkscape:version="1.1 (c4e8f9e, 2021-05-24)"
   sodipodi:docname="user-group.svg"
   xmlns:inkscape="http://www.inkscape.org/namespaces/inkscape"
   xmlns:sodipodi="http://sodipodi.sourceforge.net/DTD/sodipodi-0.dtd"
   xmlns="http://www.w3.org/2000/svg"
   xmlns:svg="http://www.w3.org/2000/svg">
  <sodipodi:namedview
     id="namedview1166"
     pagecolor="#ffffff"
     bordercolor="#666666"
     borderopacity="1.0"
     inkscape:pageshadow="2"
     inkscape:pageopacity="0.0"
     inkscape:pagecheckerboard="0"
     inkscape:document-units="mm"
     showgrid="false"
     inkscape:zoom="0.63250561"
     inkscape:cx="-70.355107"
     inkscape:cy="398.41544"
     inkscape:window-width="950"
     inkscape:window-height="932"
     inkscape:window-x="0"
     inkscape:window-y="28"
     inkscape:window-maximized="0"
     inkscape:current-layer="layer1" />
  <defs
     id="defs1161" />
  <g
     inkscape:label="Layer 1"
     inkscape:groupmode="layer"
     id="layer1"
     transform="translate(-124.00825,-42.924921)">
    <path
       fill="#54b7e3"
       d="m 126.29125,47.495915 c 0.30439,0 0.60879,0.02988 0.85232,0.08963 0.45659,0.05975 0.85231,0.119501 1.12627,-0.119505 0.18265,-0.119501 0.27397,-0.358513 0.27397,-0.717018 0,-0.776769 -0.42617,-1.374285 -1.27849,-1.73279 0.18264,-0.239012 0.3044,-0.507892 0.3044,-0.83652 0,-0.687144 -0.57835,-1.254784 -1.27847,-1.254784 -0.73056,0 -1.30893,0.56764 -1.30893,1.254784 0,0.328628 0.12176,0.597508 0.3044,0.83652 -0.82188,0.358505 -1.27847,0.956021 -1.27847,1.73279 0,0.358505 0.0913,0.567643 0.27395,0.717018 0.3044,0.26888 0.9132,0.149379 1.12628,0.119505 0.27397,-0.05975 0.54792,-0.08963 0.88277,-0.08963 z m 0,-4.18261 c 0.48703,0 0.88276,0.418264 0.88276,0.896279 0,0.478007 -0.39573,0.89627 -0.88276,0.89627 -0.51749,0 -0.91321,-0.418263 -0.91321,-0.89627 0,-0.478015 0.39572,-0.896279 0.91321,-0.896279 z m -1.76553,3.883856 c -0.0609,-0.05976 -0.12176,-0.209137 -0.12176,-0.418264 0,-0.717018 0.42617,-1.195033 1.24805,-1.463913 0.18263,0.08963 0.39571,0.149378 0.63924,0.149378 0.21307,0 0.42615,-0.05975 0.60879,-0.149378 0.82189,0.26888 1.24804,0.746895 1.24804,1.463913 0,0.209127 -0.0304,0.358505 -0.12176,0.418264 -0.15219,0.119502 -0.4566,0.05975 -0.82189,0 -0.27394,-0.05976 -0.57835,-0.08964 -0.91318,-0.08964 -0.33485,0 -0.66968,0.02988 -0.94365,0.08964 -0.36528,0.05975 -0.66968,0.119502 -0.82188,0 z"
       fill-rule="evenodd"
       id="path725"
       style="stroke-width:0.264583" />
    <path
       fill="#54b7e3"
       d="m 134.90112,45.046101 c 0.21322,-0.239011 0.3046,-0.537766 0.3046,-0.83652 0,-0.687144 -0.57876,-1.28466 -1.27936,-1.28466 -0.7006,0 -1.30982,0.597516 -1.30982,1.28466 0,0.298754 0.12184,0.597509 0.33507,0.83652 -0.85292,0.328631 -1.27936,0.926147 -1.27936,1.732791 0,0.328631 0.0609,0.567642 0.24369,0.717018 0.3046,0.239006 0.91383,0.149378 1.15752,0.08963 0.24368,-0.02988 0.54828,-0.05975 0.8529,-0.05975 0.30461,0 0.60922,0.02987 0.8529,0.05975 0.48739,0.08963 0.88338,0.149379 1.15752,-0.08963 0.15232,-0.119502 0.24371,-0.388387 0.24371,-0.717018 0,-0.806644 -0.42647,-1.40416 -1.27937,-1.732791 z m -0.97476,-1.732799 c 0.48737,0 0.91383,0.418264 0.91383,0.896279 0,0.478007 -0.42646,0.896271 -0.91383,0.896271 -0.48737,0 -0.91383,-0.418264 -0.91383,-0.896271 0,-0.478015 0.42646,-0.896279 0.91383,-0.896279 z m 1.73628,3.883854 c -0.12185,0.119501 -0.45692,0.05975 -0.82245,0 -0.27414,-0.05976 -0.57876,-0.08963 -0.91383,-0.08963 -0.33507,0 -0.63968,0.02987 -0.91383,0.08963 -0.39599,0.05975 -0.70061,0.08963 -0.82245,0 -0.0914,-0.05976 -0.12184,-0.209135 -0.12184,-0.418264 0,-0.717019 0.396,-1.195033 1.21844,-1.463914 0.18276,0.08963 0.39599,0.149379 0.63968,0.149379 0.24369,0 0.45692,-0.05975 0.63969,-0.149379 0.82244,0.268881 1.21843,0.746895 1.21843,1.463914 0,0.209129 -0.0305,0.358505 -0.12184,0.418264 z"
       fill-rule="evenodd"
       id="path727"
       style="stroke-width:0.264583" />
    <path
       fill="#54b7e3"
       d="m 131.06617,51.474965 c 0.21259,-0.209129 0.33406,-0.507883 0.33406,-0.806646 0,-0.687141 -0.60738,-1.28465 -1.30587,-1.28465 -0.69847,0 -1.27548,0.597509 -1.27548,1.28465 0,0.298763 0.12147,0.597517 0.30369,0.806646 -0.85033,0.358513 -1.27549,0.95603 -1.27549,1.732799 0,0.358505 0.0911,0.597508 0.27332,0.746895 0.27332,0.239003 0.91106,0.149378 1.12364,0.08963 0.24295,-0.02988 0.57701,-0.05975 0.85032,-0.05975 0.33406,0 0.60738,0.02987 0.8807,0.05975 0.45553,0.08962 0.85034,0.149376 1.12366,-0.08963 0.1822,-0.149387 0.24294,-0.38839 0.24294,-0.746895 0,-0.776769 -0.42517,-1.374286 -1.27549,-1.732799 z m -0.97181,-1.702916 c 0.48591,0 0.91108,0.418264 0.91108,0.89627 0,0.478015 -0.42517,0.866397 -0.91108,0.866397 -0.48588,0 -0.88069,-0.388382 -0.88069,-0.866397 0,-0.478006 0.39481,-0.89627 0.88069,-0.89627 z m 1.76139,3.883848 c -0.15184,0.119501 -0.45552,0.05975 -0.81996,0 -0.27332,-0.02988 -0.60737,-0.08963 -0.94143,-0.08963 -0.33405,0 -0.63773,0.02988 -0.91105,0.08963 -0.36443,0.05975 -0.69849,0.119501 -0.81996,0 -0.0911,-0.05975 -0.12147,-0.20913 -0.12147,-0.418256 0,-0.717019 0.42516,-1.165159 1.24511,-1.434037 0.15185,0.08962 0.39481,0.149376 0.60737,0.149376 0.24296,0 0.45555,-0.05975 0.63776,-0.149376 0.81996,0.268878 1.21475,0.746892 1.21475,1.434037 0,0.209126 -0.0304,0.358505 -0.0911,0.418256 z"
       fill-rule="evenodd"
       id="path729"
       style="stroke-width:0.264583" />
    <path
       fill="#54b7e3"
       d="m 132.16405,51.480286 c 0.18279,0.328824 0.18279,0.328824 0.18279,0.328824 1.46223,-0.747323 2.37611,-2.241965 2.46751,-3.826285 -0.39603,-0.02989 -0.39603,-0.02989 -0.39603,-0.02989 -0.0609,1.464747 -0.91388,2.809923 -2.25427,3.527354 z"
       fill-rule="evenodd"
       id="path731"
       style="stroke-width:0.264583" />
    <path
       fill="#54b7e3"
       d="m 130.09282,43.532642 c 0.72935,0 1.42831,0.149886 2.06649,0.509611 0.18234,-0.359725 0.18234,-0.359725 0.18234,-0.359725 -0.66856,-0.359732 -1.4283,-0.539591 -2.21843,-0.539591 -0.79012,0 -1.58026,0.179859 -2.24882,0.539591 0.18234,0.359725 0.18234,0.359725 0.18234,0.359725 0.60778,-0.359725 1.30673,-0.509611 2.03608,-0.509611 z"
       fill-rule="evenodd"
       id="path733"
       style="stroke-width:0.264583" />
    <path
       fill="#54b7e3"
       d="m 128.20227,51.560352 c -1.43073,-0.655895 -2.34396,-2.057125 -2.43528,-3.60742 -0.36529,0.02981 -0.36529,0.02981 -0.36529,0.02981 0.0609,1.669553 1.09588,3.190036 2.64836,3.93537 z"
       fill-rule="evenodd"
       id="path735"
       style="stroke-width:0.264583" />
  </g>
</svg>
