<?xml version="1.0" encoding="UTF-8" standalone="no"?>
<!-- Created with Inkscape (http://www.inkscape.org/) -->

<svg
   width="210mm"
   height="297mm"
   viewBox="0 0 210 297"
   version="1.1"
   id="svg341"
   inkscape:version="1.1 (c4e8f9e, 2021-05-24)"
   sodipodi:docname="web-secure.svg"
   xmlns:inkscape="http://www.inkscape.org/namespaces/inkscape"
   xmlns:sodipodi="http://sodipodi.sourceforge.net/DTD/sodipodi-0.dtd"
   xmlns="http://www.w3.org/2000/svg"
   xmlns:svg="http://www.w3.org/2000/svg">
  <sodipodi:namedview
     id="namedview343"
     pagecolor="#ffffff"
     bordercolor="#666666"
     borderopacity="1.0"
     inkscape:pageshadow="2"
     inkscape:pageopacity="0.0"
     inkscape:pagecheckerboard="0"
     inkscape:document-units="mm"
     showgrid="false"
     inkscape:zoom="0.63250561"
     inkscape:cx="397.62493"
     inkscape:cy="561.25984"
     inkscape:window-width="1536"
     inkscape:window-height="932"
     inkscape:window-x="0"
     inkscape:window-y="28"
     inkscape:window-maximized="0"
     inkscape:current-layer="layer1" />
  <defs
     id="defs338">
    <clipPath
       id="gbd17390634_2_2807.9">
      <path
         d="M 0,0 H 272 V 220 H 0 Z"
         clip-rule="evenodd"
         id="path98" />
    </clipPath>
  </defs>
  <g
     inkscape:label="Layer 1"
     inkscape:groupmode="layer"
     id="layer1">
    <path
       fill="#54b7e3"
       d="m 38.790781,77.532336 v 0 c -1.088742,0 -1.971342,0.882597 -1.971342,1.971333 0,1.088719 0.8826,1.971316 1.971342,1.971316 v 0 c 1.08871,0 1.97131,-0.882597 1.97131,-1.971316 0,-1.088736 -0.8826,-1.971333 -1.97131,-1.971333 z m 1.500618,1.969619 c -0.0016,0.828135 -0.672504,1.499063 -1.500618,1.500648 v 0 c -0.829585,0 -1.502106,-0.672494 -1.502106,-1.502082 0,-0.829567 0.672521,-1.502079 1.502106,-1.502079 h 0.03806 c 0.814469,0.0199 1.464331,0.685932 1.464188,1.500648 z"
       fill-rule="evenodd"
       id="path240"
       style="stroke-width:0.264583" />
    <path
       fill="#54b7e3"
       d="m 39.687798,78.786821 -0.0038,0.0047 c -0.05094,0.007 -0.09801,0.03097 -0.133602,0.06805 l -1.039196,1.038318 -0.603096,-0.6022 c -0.103595,-0.07766 -0.2505,-0.05668 -0.328227,0.04686 -0.0638,0.08639 -0.06167,0.204862 0.0052,0.288896 l 0.762519,0.76218 c 0.04373,0.0446 0.103611,0.06965 0.166073,0.06948 v 0 c 0.05318,2.1e-5 0.104775,-0.01802 0.146341,-0.05118 l 1.224847,-1.222534 c 0.09331,-0.08982 0.09615,-0.238244 0.0063,-0.331555 -0.04626,-0.04803 -0.110781,-0.07412 -0.177427,-0.0717 z"
       fill-rule="evenodd"
       id="path242"
       style="stroke-width:0.264583" />
    <path
       fill="#54b7e3"
       d="m 36.459537,79.96193 h -0.03391 c -0.456416,0 -0.915707,-0.397679 -1.26348,-1.090377 -0.187934,-0.388138 -0.328388,-0.797525 -0.418338,-1.219292 h 2.799836 c 0.06198,-0.0034 0.1201,-0.03122 0.161587,-0.07738 0.04199,-0.04607 0.06361,-0.107103 0.05998,-0.169307 -0.0062,-0.121205 -0.103901,-0.217604 -0.225163,-0.222279 h -2.878481 c -0.112607,-0.765783 -0.112607,-1.54391 0,-2.309691 h 3.530428 c 0.05686,0.383032 0.08507,0.769758 0.08438,1.156992 2.65e-4,0.346728 -0.02212,0.693099 -0.06715,1.036883 -0.01839,0.128199 0.07062,0.24701 0.198808,0.265409 2.65e-4,4e-5 7.94e-4,9.5e-5 0.0011,1.32e-4 0.06214,0.0087 0.125121,-0.0082 0.174519,-0.04686 0.05097,-0.03713 0.08483,-0.09325 0.09391,-0.155662 0.04787,-0.364789 0.07186,-0.732325 0.07183,-1.100257 2.57e-4,-0.387048 -0.02638,-0.773644 -0.07973,-1.156994 h 1.519852 c 0.237662,0.767099 0.23327,1.588791 -0.01257,2.353308 l -0.09389,0.260696 c -0.05646,0.114967 -0.01217,0.253984 0.100348,0.315116 0.11493,0.05971 0.256493,0.01498 0.316212,-0.09992 7.93e-4,-0.0013 0.0013,-0.0028 0.0021,-0.0042 0.92102,-2.2512 -0.157321,-4.822772 -2.408523,-5.743763 -0.528489,-0.216231 -1.093991,-0.327618 -1.665015,-0.327956 h -0.04686 c -2.431513,-0.01294 -4.413142,1.947717 -4.426093,4.379235 -0.01294,2.431518 1.947717,4.413141 4.37923,4.426074 h 0.124248 c 0.129498,0 0.234482,-0.104976 0.234482,-0.234479 0,-0.129498 -0.104984,-0.234492 -0.234482,-0.234492 z M 37.6713,72.297107 c 1.04086,0.344446 1.889244,1.110174 2.338231,2.110391 h -1.421458 c -0.09657,-0.493834 -0.25591,-0.973283 -0.474197,-1.426681 -0.118337,-0.24571 -0.267102,-0.475607 -0.442738,-0.684236 z m -2.485459,0 c -0.174424,0.207389 -0.322379,0.435663 -0.440436,0.67958 -0.218485,0.453305 -0.377868,0.932775 -0.474171,1.426681 h -1.425606 c 0.450141,-0.998426 1.298128,-1.76253 2.337874,-2.106618 z m 2.921577,2.110391 h -3.357507 c 0.09023,-0.42164 0.230872,-0.830889 0.418885,-1.218935 0.34616,-0.692682 0.805257,-1.09038 1.259687,-1.09183 0.454446,-0.0013 0.915673,0.3986 1.261131,1.090753 0.186793,0.38803 0.326287,0.797092 0.415462,1.218388 z m -3.836353,3.247099 c 0.09626,0.49402 0.255643,0.97364 0.47417,1.427022 0.11755,0.243994 0.265221,0.472305 0.439526,0.679596 -1.03914,-0.344556 -1.886505,-1.108567 -2.336437,-2.106618 z m -0.08062,-0.468987 h -1.519142 c -0.234886,-0.751964 -0.234886,-1.557689 0,-2.309675 h 1.519505 c -0.106826,0.765463 -0.107786,1.541989 -0.0029,2.307714 z"
       fill-rule="evenodd"
       id="path244"
       style="stroke-width:0.264583" />
  </g>
</svg>
