<?xml version="1.0" encoding="UTF-8" standalone="no"?>
<!-- Created with Inkscape (http://www.inkscape.org/) -->

<svg
   width="14.651308mm"
   height="12.03853mm"
   viewBox="0 0 14.651308 12.03853"
   version="1.1"
   id="svg926"
   inkscape:version="1.1 (c4e8f9e, 2021-05-24)"
   sodipodi:docname="website.svg"
   xmlns:inkscape="http://www.inkscape.org/namespaces/inkscape"
   xmlns:sodipodi="http://sodipodi.sourceforge.net/DTD/sodipodi-0.dtd"
   xmlns="http://www.w3.org/2000/svg"
   xmlns:svg="http://www.w3.org/2000/svg">
  <sodipodi:namedview
     id="namedview928"
     pagecolor="#ffffff"
     bordercolor="#666666"
     borderopacity="1.0"
     inkscape:pageshadow="2"
     inkscape:pageopacity="0.0"
     inkscape:pagecheckerboard="0"
     inkscape:document-units="mm"
     showgrid="false"
     inkscape:zoom="0.63250561"
     inkscape:cx="51.382943"
     inkscape:cy="102.76589"
     inkscape:window-width="950"
     inkscape:window-height="932"
     inkscape:window-x="0"
     inkscape:window-y="28"
     inkscape:window-maximized="0"
     inkscape:current-layer="layer1" />
  <defs
     id="defs923" />
  <g
     inkscape:label="Layer 1"
     inkscape:groupmode="layer"
     id="layer1"
     transform="translate(-91.813782,-121.14693)">
    <path
       fill="#54b7e3"
       d="m 104.38869,128.86462 c 0,-7.34543 0,-7.34543 0,-7.34543 0,-0.20607 -0.17132,-0.37226 -0.38375,-0.37226 -11.800548,0 -11.800548,0 -11.800548,0 -0.212439,0 -0.39061,0.16619 -0.39061,0.37226 0,9.27984 0,9.27984 0,9.27984 0,0.20607 0.178171,0.37225 0.39061,0.37225 9.806378,0 9.806378,0 9.806378,0 0.0822,1.12342 1.04163,2.01418 2.22031,2.01418 1.23351,0 2.23401,-0.97053 2.23401,-2.16707 0,-1.14336 -0.91827,-2.074 -2.0764,-2.15377 z m -12.184298,-7.41191 c 11.800548,0 11.800548,0 11.800548,0 0.0411,0 0.0685,0.0266 0.0685,0.0665 0,2.22025 0,2.22025 0,2.22025 -11.944463,0 -11.944463,0 -11.944463,0 0,-2.22025 0,-2.22025 0,-2.22025 0,-0.0399 0.03427,-0.0665 0.07538,-0.0665 z m -0.07538,9.34632 c 0,-6.75381 0,-6.75381 0,-6.75381 11.944468,0 11.944468,0 11.944468,0 0,4.8194 0,4.8194 0,4.8194 -1.10331,0.0731 -1.98732,0.93064 -2.06271,2.00088 -9.806373,0 -9.806373,0 -9.806373,0 -0.04112,0 -0.07538,-0.0266 -0.07538,-0.0665 z m 12.102078,2.08065 c -1.05534,0 -1.91879,-0.83758 -1.91879,-1.86129 0,-1.02371 0.86345,-1.86128 1.91879,-1.86128 1.05533,0 1.91878,0.83757 1.91878,1.86128 0,1.02371 -0.86345,1.86129 -1.91878,1.86129 z"
       fill-rule="evenodd"
       id="path33"
       style="stroke-width:0.264583" />
    <path
       fill="#54b7e3"
       d="m 105.07088,130.28223 c -1.04602,1.23967 -1.04602,1.23967 -1.04602,1.23967 -0.58494,-0.50653 -0.58494,-0.50653 -0.58494,-0.50653 -0.0688,-0.06 -0.16516,-0.0533 -0.22709,0.0133 -0.0551,0.06 -0.0482,0.15996 0.0138,0.21328 0.83268,0.71981 0.83268,0.71981 0.83268,0.71981 1.25935,-1.48629 1.25935,-1.48629 1.25935,-1.48629 0.055,-0.0666 0.0482,-0.15995 -0.0206,-0.21327 -0.0688,-0.0533 -0.17204,-0.0467 -0.22709,0.02 z"
       fill-rule="evenodd"
       id="path35"
       style="stroke-width:0.264583" />
    <path
       fill="#54b7e3"
       d="m 96.192395,122.86675 c 0.176515,0 0.317731,-0.12779 0.317731,-0.28113 0,-0.15334 -0.141216,-0.28112 -0.317731,-0.28112 -0.169449,0 -0.310663,0.12778 -0.310663,0.28112 0,0.15334 0.141214,0.28113 0.310663,0.28113 z m 0,-0.29391 c 0.0071,0 0.01413,0.006 0.01413,0.0128 0,0.0128 -0.02119,0.0128 -0.02119,0 0,-0.006 0,-0.0128 0.0071,-0.0128 z"
       fill-rule="evenodd"
       id="path37"
       style="stroke-width:0.264583" />
    <path
       fill="#54b7e3"
       d="m 94.856469,122.89981 c 0.162354,0 0.297656,-0.1353 0.297656,-0.29766 0,-0.16912 -0.135302,-0.29765 -0.297656,-0.29765 -0.162361,0 -0.297656,0.12853 -0.297656,0.29765 0,0.16236 0.135295,0.29766 0.297656,0.29766 z m 0,-0.31119 c 0.0068,0 0.01355,0.007 0.01355,0.0135 0,0.0135 -0.02707,0.0135 -0.02707,0 0,-0.007 0.0068,-0.0135 0.01355,-0.0135 z"
       fill-rule="evenodd"
       id="path39"
       style="stroke-width:0.264583" />
    <path
       fill="#54b7e3"
       d="m 93.500498,122.89981 c 0.162354,0 0.297656,-0.1353 0.297656,-0.29766 0,-0.16912 -0.135302,-0.29765 -0.297656,-0.29765 -0.162361,0 -0.297656,0.12853 -0.297656,0.29765 0,0.16236 0.135295,0.29766 0.297656,0.29766 z m 0,-0.31119 c 0.0068,0 0.01355,0.007 0.01355,0.0135 0,0.0135 -0.02707,0.0135 -0.02707,0 0,-0.007 0.0068,-0.0135 0.01355,-0.0135 z"
       fill-rule="evenodd"
       id="path41"
       style="stroke-width:0.264583" />
    <path
       fill="#54b7e3"
       d="m 98.155956,122.73445 c 4.884194,0 4.884194,0 4.884194,0 0.0822,0 0.1507,-0.0712 0.1507,-0.14883 0,-0.0841 -0.0685,-0.14883 -0.1507,-0.14883 -4.884194,0 -4.884194,0 -4.884194,0 -0.08905,0 -0.157557,0.0647 -0.157557,0.14883 0,0.0776 0.0685,0.14883 0.157557,0.14883 z"
       fill-rule="evenodd"
       id="path43"
       style="stroke-width:0.264583" />
    <path
       fill="#54b7e3"
       d="m 95.65023,127.89382 h -0.03307 l -0.396875,-1.52137 h -0.297656 l -0.396883,1.52137 h -0.03307 l -0.297656,-1.52137 h -0.363803 l 0.496094,2.14975 h 0.297656 l 0.429956,-1.52136 h 0.03307 l 0.396875,1.52136 h 0.330729 l 0.496094,-2.14975 h -0.363802 z"
       fill-rule="evenodd"
       id="path45"
       style="stroke-width:0.264583" />
    <path
       fill="#54b7e3"
       d="m 98.659855,127.89382 v 0 l -0.429948,-1.52137 H 97.93225 l -0.396875,1.52137 v 0 l -0.330729,-1.52137 h -0.330729 l 0.496094,2.14975 h 0.297656 l 0.429948,-1.52136 v 0 l 0.429948,1.52136 h 0.297656 l 0.496094,-2.14975 h -0.363802 z"
       fill-rule="evenodd"
       id="path47"
       style="stroke-width:0.264583" />
    <path
       fill="#54b7e3"
       d="m 102.36405,126.37245 h -0.3638 l -0.29766,1.52137 h -0.0331 l -0.39688,-1.52137 h -0.29765 l -0.39689,1.52137 h -0.0331 l -0.29766,-1.52137 h -0.363799 l 0.496089,2.14975 h 0.33073 l 0.39689,-1.52136 h 0.0331 l 0.39687,1.52136 h 0.33073 z"
       fill-rule="evenodd"
       id="path49"
       style="stroke-width:0.264583" />
  </g>
</svg>
