<?xml version="1.0" encoding="UTF-8" standalone="no"?>
<!-- Created with Inkscape (http://www.inkscape.org/) -->

<svg
   width="11.94676mm"
   height="11.778554mm"
   viewBox="0 0 11.94676 11.778554"
   version="1.1"
   id="svg624"
   sodipodi:docname="world.svg"
   inkscape:version="1.1 (c4e8f9e, 2021-05-24)"
   xmlns:inkscape="http://www.inkscape.org/namespaces/inkscape"
   xmlns:sodipodi="http://sodipodi.sourceforge.net/DTD/sodipodi-0.dtd"
   xmlns="http://www.w3.org/2000/svg"
   xmlns:svg="http://www.w3.org/2000/svg">
  <sodipodi:namedview
     id="namedview626"
     pagecolor="#ffffff"
     bordercolor="#666666"
     borderopacity="1.0"
     inkscape:pageshadow="2"
     inkscape:pageopacity="0.0"
     inkscape:pagecheckerboard="0"
     inkscape:document-units="mm"
     showgrid="false"
     inkscape:zoom="0.63250561"
     inkscape:cx="-15.01963"
     inkscape:cy="303.55462"
     inkscape:window-width="950"
     inkscape:window-height="932"
     inkscape:window-x="0"
     inkscape:window-y="28"
     inkscape:window-maximized="0"
     inkscape:current-layer="layer1" />
  <defs
     id="defs621" />
  <g
     inkscape:label="Layer 1"
     inkscape:groupmode="layer"
     id="layer1"
     transform="translate(-109.06183,-68.151568)">
    <path
       fill="#54b7e3"
       d="m 111.2913,78.601708 c -0.36737,-0.249704 -0.36737,-0.249704 -0.36737,-0.249704 0.67824,-0.998799 0.67824,-0.998799 0.67824,-0.998799 0.0565,-0.02774 0.0565,-0.02774 0.0565,-0.02774 0.14131,-0.02774 0.28261,-0.110982 0.31087,-0.138727 0.16956,-0.249695 -0.0848,-0.804587 -0.16956,-0.971057 -0.0283,-0.05549 -0.0283,-0.05549 -0.0283,-0.05549 0,-0.02774 0,-0.02774 0,-0.02774 -0.0283,-0.138719 -0.0565,-0.388422 -0.0848,-0.471663 -0.0283,-0.05549 -0.22607,-0.194204 -0.42389,-0.277436 -0.0565,-0.02775 -0.0565,-0.02775 -0.0565,-0.02775 -0.0283,-0.05549 -0.0283,-0.05549 -0.0283,-0.05549 -0.0565,-0.08323 -0.48041,-0.77684 -0.48041,-1.248503 0,-0.554881 0.4239,-0.860073 0.81953,-0.887825 0.33912,-0.05549 0.53694,-0.388419 0.53694,-0.388419 0.0565,-0.08323 0.0565,-0.08323 0.0565,-0.08323 0.0848,-0.02774 0.0848,-0.02774 0.0848,-0.02774 0.22608,-0.05549 0.50867,-0.16647 0.56519,-0.2497 0.0283,-0.110977 -0.0565,-0.499406 -0.16955,-0.860084 -0.0283,-0.05548 -0.0283,-0.05548 -0.0283,-0.05548 0.0283,-0.05549 0.0283,-0.05549 0.0283,-0.05549 0,-0.110974 0.0565,-0.360677 0,-0.527148 -0.0848,-0.166462 -0.2826,-0.332933 -0.33912,-0.388421 -0.0565,-0.02775 -0.0565,-0.02775 -0.0565,-0.02775 -0.0283,-0.05548 -0.0283,-0.05548 -0.0283,-0.05548 -0.0565,-0.194215 -0.31085,-0.665869 -0.56518,-0.860081 -0.16957,-0.110977 -0.16957,-0.110977 -0.16957,-0.110977 0.25433,-0.360685 0.25433,-0.360685 0.25433,-0.360685 0.16957,0.138726 0.16957,0.138726 0.16957,0.138726 0.36737,0.249703 0.62171,0.776843 0.70649,0.971058 0.11303,0.08323 0.33911,0.277444 0.4239,0.554892 0.11304,0.2497 0.0565,0.554892 0.0283,0.69361 0.11304,0.305189 0.28258,0.887826 0.11304,1.137529 -0.1413,0.249692 -0.53694,0.388419 -0.73476,0.443907 -0.11304,0.166471 -0.36737,0.47166 -0.81952,0.527148 -0.11305,0.02774 -0.42391,0.08323 -0.42391,0.471651 0,0.277448 0.25434,0.776852 0.36738,0.971058 0.19781,0.110982 0.50868,0.277445 0.59346,0.47166 0.0565,0.166462 0.0848,0.44391 0.0848,0.554892 0.11304,0.194207 0.4239,0.887825 0.16956,1.359479 -0.0848,0.166471 -0.33911,0.249701 -0.50867,0.305189 z"
       fill-rule="evenodd"
       id="path141"
       style="stroke-width:0.264583" />
    <path
       fill="#54b7e3"
       d="m 116.94247,71.997628 c -0.0282,0 -0.0565,0 -0.0847,0 -0.53664,-0.08301 -1.04504,-0.608732 -1.07328,-0.664067 -0.0847,-0.05534 -0.0847,-0.05534 -0.0847,-0.05534 0.0282,-0.08301 0.0282,-0.08301 0.0282,-0.08301 0,-0.304366 -0.0282,-0.608732 -0.0282,-0.77475 -0.0282,0 -0.0565,0.02767 -0.0565,0.02767 -0.19772,0.05534 -0.50839,0.138345 -0.73434,-0.05533 -0.2542,-0.193691 -0.2542,-0.55339 -0.22596,-0.774751 -0.22595,-0.08301 -0.48015,-0.221353 -0.56489,-0.415036 -0.0847,-0.193688 0.0565,-0.470384 0.16947,-0.691737 0.0282,-0.05534 0.0565,-0.138348 0.0847,-0.166018 0.0565,-0.193691 0.0565,-0.193691 0.0565,-0.193691 0.42367,0.138348 0.42367,0.138348 0.42367,0.138348 -0.0565,0.193691 -0.0565,0.193691 -0.0565,0.193691 -0.0282,0.05533 -0.0565,0.138348 -0.11298,0.221353 -0.0282,0.08301 -0.14122,0.276693 -0.14122,0.359709 0.0565,0.05533 0.2542,0.16601 0.45191,0.22135 0.19771,0.05533 0.19771,0.05533 0.19771,0.05533 -0.0565,0.193691 -0.0565,0.193691 -0.0565,0.193691 -0.0282,0.166018 -0.0565,0.442712 0.0282,0.525719 0.0847,0.02767 0.22593,0 0.36716,-0.02767 0.11298,-0.05533 0.2542,-0.08301 0.36717,-0.02766 0.11298,0.02766 0.28245,0.08301 0.2542,1.10677 0.16947,0.138348 0.48016,0.415044 0.7626,0.442714 0.22596,0.02767 0.70611,-0.359701 0.96031,-0.636394 0.0565,-0.05534 0.0565,-0.05534 0.0565,-0.05534 0.0847,-0.02767 0.0847,-0.02767 0.0847,-0.02767 0,0 0.93207,-0.193683 1.46871,-0.442706 0.19771,-0.110686 0.19771,-0.110686 0.19771,-0.110686 0.19771,0.387382 0.19771,0.387382 0.19771,0.387382 -0.19771,0.110675 -0.19771,0.110675 -0.19771,0.110675 -0.5084,0.221353 -1.27099,0.415041 -1.52519,0.470376 -0.16947,0.193691 -0.73436,0.74708 -1.21451,0.74708 z m -2.40076,-2.932959 c 0,0 0,0 0,0"
       fill-rule="evenodd"
       id="path143"
       style="stroke-width:0.264583" />
    <path
       fill="#54b7e3"
       d="m 115.61491,78.411938 c -0.0565,0 -0.11291,0 -0.16937,-0.02776 -0.14114,-0.02776 -0.31051,-0.138801 -0.42342,-0.444151 -0.1976,-0.444159 -0.11292,-1.19366 0.14114,-1.610061 0.11291,-0.138798 0.0282,-0.555189 -0.0282,-0.777269 -0.0282,-0.08327 -0.0282,-0.166553 -0.0282,-0.24983 -0.0282,-0.05552 -0.1976,-0.194321 -0.28228,-0.305361 -0.22583,-0.19431 -0.42343,-0.388631 -0.42343,-0.582951 0,-0.416391 0.62103,-1.19366 0.81862,-1.443498 0.0565,-0.02776 0.0565,-0.02776 0.0565,-0.02776 0.0565,-0.02776 0.0565,-0.02776 0.0565,-0.02776 0.19759,-0.05551 0.73393,-0.222073 0.95977,-0.166553 0.16937,0.05552 0.47988,0.194313 0.5928,0.27759 0.16937,0.02776 0.76216,0.08328 1.04444,0.222081 0.0282,0.02776 0.0282,0.02776 0.0282,0.02776 0.36698,0.30535 0.36698,0.30535 0.36698,0.30535 0.31051,0.111041 1.01622,0.471919 1.12913,0.749512 0.1976,0.444159 -0.25405,1.33246 -0.64925,1.526778 -0.36696,0.166561 -0.62103,0.416393 -0.73395,0.555191 0,0.02776 -0.0564,0.138801 -0.0847,0.194321 -0.11291,0.33311 -0.28228,0.805029 -0.64925,0.943821 -0.11291,0.02776 -0.28228,0.166561 -0.47988,0.277599 -0.3952,0.277592 -0.84687,0.582951 -1.24206,0.582951 z m -0.79039,-4.025143 c 0.0282,0.08328 0.1976,0.22208 0.28228,0.30536 0.22583,0.19431 0.42342,0.360871 0.42342,0.555192 0,0.05552 0.0282,0.138797 0.0565,0.222078 0.0565,0.333113 0.14114,0.805021 -0.0282,1.110382 -0.1976,0.27759 -0.25405,0.888301 -0.14114,1.22142 0.0282,0.05552 0.0847,0.16656 0.14114,0.16656 0.22583,0.05552 0.73395,-0.277598 1.07269,-0.499679 0.1976,-0.138792 0.3952,-0.27759 0.53634,-0.33311 0.16937,-0.05552 0.31051,-0.444151 0.39519,-0.666232 0.0565,-0.11104 0.0847,-0.222078 0.14115,-0.305358 0.11291,-0.166552 0.42342,-0.471911 0.90332,-0.693983 0.19759,-0.111041 0.53633,-0.77727 0.45165,-0.97159 -0.0565,-0.11104 -0.47988,-0.333111 -0.84687,-0.471911 -0.0282,0.02776 -0.0282,0.02776 -0.0282,0.02776 -0.50811,-0.416398 -0.50811,-0.416398 -0.50811,-0.416398 -0.16937,-0.111033 -0.64925,-0.166553 -0.90331,-0.19431 -0.0564,0 -0.0564,0 -0.0564,0 -0.0282,-0.02776 -0.0282,-0.02776 -0.0282,-0.02776 -0.14114,-0.08328 -0.3952,-0.22208 -0.50813,-0.24984 -0.0847,0 -0.36696,0.05552 -0.64925,0.1388 -0.33873,0.416391 -0.67747,0.916062 -0.7057,1.08262 z m 0.28228,0.916072 c 0,0 0,0 0,0 z m 0,0 c 0,0 0,0 0,0 0,0 0,0 0,0 z m -0.28228,-0.916072 c 0,0 0,0 0,0"
       fill-rule="evenodd"
       id="path145"
       style="stroke-width:0.264583" />
    <path
       fill="#54b7e3"
       d="m 115.02109,79.930122 c -3.27619,0 -5.95926,-2.63339 -5.95926,-5.876628 0,-3.243228 2.68307,-5.876618 5.95926,-5.876618 3.30443,0 5.9875,2.63339 5.9875,5.876618 0,3.243238 -2.68307,5.876628 -5.9875,5.876628 z m 0,-11.309725 c -3.05025,0 -5.53563,2.439352 -5.53563,5.433097 0,2.993755 2.48538,5.433107 5.53563,5.433107 3.07848,0 5.53563,-2.439352 5.53563,-5.433107 0,-2.993745 -2.45715,-5.433097 -5.53563,-5.433097 z"
       fill-rule="evenodd"
       id="path147"
       style="stroke-width:0.264583" />
  </g>
</svg>
