<?xml version="1.0" encoding="UTF-8" standalone="no"?>
<!-- Created with Inkscape (http://www.inkscape.org/) -->

<svg
   width="210mm"
   height="297mm"
   viewBox="0 0 210 297"
   version="1.1"
   id="svg1164"
   inkscape:version="1.1 (c4e8f9e, 2021-05-24)"
   sodipodi:docname="write.svg"
   xmlns:inkscape="http://www.inkscape.org/namespaces/inkscape"
   xmlns:sodipodi="http://sodipodi.sourceforge.net/DTD/sodipodi-0.dtd"
   xmlns="http://www.w3.org/2000/svg"
   xmlns:svg="http://www.w3.org/2000/svg">
  <sodipodi:namedview
     id="namedview1166"
     pagecolor="#ffffff"
     bordercolor="#666666"
     borderopacity="1.0"
     inkscape:pageshadow="2"
     inkscape:pageopacity="0.0"
     inkscape:pagecheckerboard="0"
     inkscape:document-units="mm"
     showgrid="false"
     inkscape:zoom="0.63250561"
     inkscape:cx="397.62493"
     inkscape:cy="561.25984"
     inkscape:window-width="1536"
     inkscape:window-height="932"
     inkscape:window-x="0"
     inkscape:window-y="28"
     inkscape:window-maximized="0"
     inkscape:current-layer="layer1" />
  <defs
     id="defs1161" />
  <g
     inkscape:label="Layer 1"
     inkscape:groupmode="layer"
     id="layer1">
    <path
       fill="#54b7e3"
       d="m 62.425685,92.728555 c -9.58924,0 -9.58924,0 -9.58924,0 1.61308,-0.97767 1.61308,-0.97767 1.61308,-0.97767 0,-0.0066 0.0069,-0.0066 0.0069,-0.01331 0.0069,0 0.0069,0 0.01373,-0.0066 0.01373,-0.01331 0.02058,-0.0266 0.03433,-0.03991 0,0 0,0 0,0 0,0 0,0 0,0 0,0 0,0 0,0 4.475421,-7.974348 4.475421,-7.974348 4.475421,-7.974348 0.631518,-1.12399 0.631518,-1.12399 0.631518,-1.12399 0.164735,-0.299289 0.05491,-0.671735 -0.253989,-0.831358 -1.338501,-0.704987 -1.338501,-0.704987 -1.338501,-0.704987 -0.302032,-0.159618 -0.686424,-0.05321 -0.851159,0.246083 -0.658955,1.170546 -0.658955,1.170546 -0.658955,1.170546 0,0 0,0 0,0 -4.454848,7.927795 -4.454848,7.927795 -4.454848,7.927795 0,0 0,0 0,0 0,0 0,0.0066 0,0.0066 -0.0069,0.0066 -0.0069,0.01995 -0.01373,0.0266 0,0.0066 0,0.0066 0,0.01331 0,0.0066 0,0.01331 0,0.0266 0,0 -0.0069,0.0066 -0.0069,0.0066 0.09609,2.407603 0.09609,2.407603 0.09609,2.407603 0,0.05321 0.03433,0.09976 0.08238,0.126367 0.02745,0.01331 0.04804,0.01995 0.07551,0.01995 0.0069,0 0.01373,-0.0067 0.02745,-0.0067 0.0069,0.0067 0.02058,0.0067 0.02745,0.0067 10.083461,0 10.083461,0 10.083461,0 0.08924,0 0.157872,-0.07316 0.157872,-0.152969 0,-0.08646 -0.06863,-0.152971 -0.157872,-0.152971 z m -9.994222,-0.119716 c -0.06865,-1.875531 -0.06865,-1.875531 -0.06865,-1.875531 1.688592,0.891209 1.688592,0.891209 1.688592,0.891209 z m 5.010838,-11.160093 c 0.08237,-0.14632 0.274563,-0.206179 0.425587,-0.126371 1.338501,0.704993 1.338501,0.704993 1.338501,0.704993 0.157887,0.08646 0.212794,0.27268 0.130418,0.418997 C 58.82886,83.35088 58.82886,83.35088 58.82886,83.35088 56.934354,82.346607 56.934354,82.346607 56.934354,82.346607 Z m -0.658956,1.170543 c 0.809964,0.425656 0.809964,0.425656 0.809964,0.425656 -1.331637,2.374347 -1.331637,2.374347 -1.331637,2.374347 -0.0412,0.07316 -0.01373,0.166267 0.06177,0.206177 0.02058,0.01331 0.04806,0.01995 0.07551,0.01995 0.05491,0 0.109829,-0.02661 0.137282,-0.07981 1.331653,-2.374344 1.331653,-2.374344 1.331653,-2.374344 0.809964,0.425651 0.809964,0.425651 0.809964,0.425651 -4.372472,7.794776 -4.372472,7.794776 -4.372472,7.794776 -1.894507,-0.997625 -1.894507,-0.997625 -1.894507,-0.997625 z"
       fill-rule="evenodd"
       id="path467"
       style="stroke-width:0.264583" />
  </g>
</svg>
